<svg xmlns="http://www.w3.org/2000/svg" viewBox="0 0 19.37 20.04"><title>Asset 1</title><g id="Layer_2" data-name="Layer 2"><g id="Layer_2-2" data-name="Layer 2">
<style type="text/css">
.inksplat{fill:#503945;}
</style>
<path class="inksplat" d="M1,6c-.13,0-.33-.28-.4-.35s-.21-.29-.35-.4S0,5,.08,4.87a1.16,1.16,0,0,0,.09-.41A.34.34,0,0,1,0,4.14l.22-.21c0-.09,0-.31.06-.37S.62,3,.89,3.1s.23-.21.4-.27.5.28.58.06c.09,0,.43,0,.43.09s.53.39.63.49.17.09.17.22.21.22.18.41-.2.27-.12.44.11.11,0,.33a1.55,1.55,0,0,1-.44.72c-.14.14-.37.24-.49.37-.16,0-.43.24-.5,0-.05,0-.09.09-.08,0H1.6V6H1.37v0c-.14,0-.27,0-.4,0m11.22-.61a1.65,1.65,0,0,0-.35.35c-.16.1-.2.24-.37.36s-.09.23-.17.33-.18.19-.18.29-.39.41-.45.54a3.57,3.57,0,0,0-.4.7.48.48,0,0,1,.31.26h.06v0h0V8a.87.87,0,0,0,.23-.19c.27-.08.25.33.09.35v.1c-.19,0,0,.77.13.8v.17h.05c0,.25,0,.5,0,.75s-.39.31-.33.64h0v.13c-.07.05-.12.15-.23.14V11c-.15,0-.12.13-.27.13a1.66,1.66,0,0,0-.3.22H9.73c-.1,0-.09.14-.21.13s-.63,0-.8,0-.22-.07-.27-.18H8.36c-.06-.09-.42-.14-.53-.14a1.7,1.7,0,0,1,.1.37c0,.16-.1.32-.11.48s0,.38.14.4.15.13.14.27h0v.09h0v0h.05v.05c.16-.05.45.08.4.26a.67.67,0,0,1,.27.22c.08.15.14.36,0,.46s-.2.16-.32.06c-.29-.23-.57-.32-.57-.74H8v-.27c0-.14,0-.07-.15-.14a2.5,2.5,0,0,1-.34-.23s-.58.05-.22.28a.93.93,0,0,1,.4.33c.06.1,0,.2.13.25v.08h0v.14h0c0,.27-.13,1.16-.56,1.07,0,.17-.39.09-.46.23-.24,0-.72-.09-.83-.32h-.1c-.07-.14-.13-.56-.35-.53,0,.07-.3.35-.39.35s-.12.14-.28.1v0H4.81c-.06.14-.37,0-.45.14s-.44-.18-.65-.06-.44-.07-.47-.21h-.3c-.12-.09-.23-.17-.38-.3s0-.1-.19-.17-.07-.25-.2-.28v-.14h0s0-.11,0-.13S2,13.1,2,13.09s0-.14,0-.22.09-.16.09-.14c.09-.3-.13-.73.18-.89v-.08h0v-.1c.07-.07,0-.17.17-.17s-.57-.4-.73-.49-.34-.14-.41-.39-.25-.11-.23-.29c-.15,0-.17-.18-.1-.27V9.79S.91,9.65.83,9.62a1.91,1.91,0,0,1,.51-1,1.21,1.21,0,0,1,1.45-.42c.15.08.45.2.6,0s.18-.36.36-.39.44.1.7-.08S4.9,7.55,5,7.7h.11c0,.17.43,0,.56,0S6,8,6.09,8s.52.37.66.52.17.33.24.33.12.12.12.13a.45.45,0,0,0,.1.44V9.3c-.21,0,.19-.58.22-.58s.1-.31.13-.4S8,8,8.07,7.9c.33-.36-.28-.22-.38-.4a2.58,2.58,0,0,0-.22-.31c-.08-.11-.16-.33-.22-.37s0-.44.1-.49v-.1h0V6s.12-.18.1-.16a.78.78,0,0,0,.38-.22H8.1V5.56h.08c.26-.32,1.15.27,1.15.56s0,.16.08.27,0,.49-.07.68-.26.25-.31.41h-.1a.25.25,0,0,1-.26.14V7.7c.08-.08.15,0,.26,0s.38-.1.59,0a3.68,3.68,0,0,1,.53.18c.07-.17.31-.24.27-.45h0V7.27A2.82,2.82,0,0,0,11,6.38c.06-.14.12-.18.19-.32h.08a.82.82,0,0,1,.2-.35,1,1,0,0,1,.19-.16c.12-.07,0,0,.06-.12s.09-.14.17-.27l.1,0c.08-.12-.06,0,.11-.18a.67.67,0,0,0,.19-.36c.15,0,.22-.26.4-.26a.62.62,0,0,1-.05.33,6.12,6.12,0,0,1-.43.69M1.5,7.17c.18,0,.54-.18.54.09,0,.11-.22.25-.27.31s-.22,0-.27,0c-.09-.2,0-.21,0-.4m2.86,9c.23.12.13.6.1.8a.88.88,0,0,1-.37.4.78.78,0,0,1-.33.15c-.17,0-.68-.08-.66-.28-.21,0-.22-.38-.3-.49a.88.88,0,0,1,.66-.92c.25-.06.88,0,.9.34M3,6.6a.47.47,0,0,1,0-.1h.1v0s-.06,0,0,0m1,.75a.11.11,0,0,1,0,.08c-.41-.2,0,0-.13-.08H4v0s.06,0,0,0m1.6-7c-.05.1,0,.17-.18.13S5.5.29,5.61.32m.27,18.42H6c0,.06,0,.12-.08.13v-.13M6,6.15H5.91V6.1s.09,0,.13,0v.09m.14,12.37c-.24-.06.3-.5.36-.53v.21h0v.05c-.19,0-.09.15-.26.19.06.25-.33.09-.14.3v.05c-.06,0-.11,0-.13-.09s.06-.12.08-.23l.14.05m5.26-8.68a.11.11,0,0,1,0-.09h.08v0s0,0,0,.05M12,4a.31.31,0,0,1-.1,0c.1,0,.07,0,.1,0m.8,7.56c-.2.09-.29.3-.58.19a.91.91,0,0,1-.32-.5c.13-.09.08-.33.27-.3v-.05h.13v-.05a1.88,1.88,0,0,1,.4.13.28.28,0,0,0,.14.18v.27c-.05,0-.06.07,0,.13M12.46,20a.13.13,0,0,1-.09-.05c.09,0,.06,0,.09.05m6.76-3.21c.45.12-.25.5-.27.62s.05.29,0,.32v.13c-.09,0-.18.06-.22.14-.2,0-.31.16-.38.3s-.16.88-.33.58h-.17v-.05c-.17,0-.64.13-.64.32s-.18.21-.26.31c-.07-.07-.16-.05-.27-.05V19.4c-.08,0-.16-.11-.27-.08v-.05a1,1,0,0,0-.53.27c-.31-.05-.48,0-.62-.3-.26,0-.59.07-.75-.14-.21.06-.38-.27-.5-.4s-.25-.59-.4-.36c-.27,0-.37,0-.33-.31s.08-.66-.24-.63c0,0-.35-.25-.18-.3,0-.11-.08-.19,0-.23V16.6a.33.33,0,0,1,0-.3.89.89,0,0,1,0-.23c.12,0,.12-.13.1-.22h0c0-.3-.13-.33,0-.62l.16-.14a.57.57,0,0,1,.14-.13v-.13h0c0-.16.13-.75.31-.72s.32-.11.44-.19.34-.48.43-.48c.26,0,.31-.08.5-.21-.07-.49.88.27.9-.14.24-.05.23-.12.54,0,0,0,.14.21.1.16.11.13.09.11.25.06.11.2.23-.06.39-.13.41-.17.53.61.95.61,0,0,.18.29.18.25,0,.11.44.27.53.33s.36.39.17.49-.14.36.11.4.25,0,.29.24-.14,0-.13.16c-.24.2.22.41.05.54v.1h-.05v.17h0v.1h-.05a.8.8,0,0,1,.09.26m-6-14.42h-.1V2.32c.08,0,.12,0,.1.09m1.07,4.05c-.05,0-.06,0-.1,0s.07,0,.1,0m1.47-4h-.13c0-.15.09-.22.21-.27a.79.79,0,0,1-.08.27m2,9.84a.12.12,0,0,1-.1,0c.06,0,.08,0,.1,0M18.12.05C18,.08,18,.07,18,0s.16,0,.14.05m.35,13.61h0a.32.32,0,0,1,.13-.35v-.08c.07-.05.12-.15.23-.14V13c.22.17,0,.33-.08.5s-.19.23-.23.12"/></g></g></svg>