<svg xmlns="http://www.w3.org/2000/svg" viewBox="0 0 16.9 15.58"><title>Asset 105</title><g id="Layer_2" data-name="Layer 2">

<g id="Layer_2-2" data-name="Layer 2" class="inksplat"><path d="M2.29,14.81c-.1,0-.11.34-.15.43v0c-.1,0-.13.2-.23.2s-.12,0-.15.08c-.27.14-.85-.12-.82-.41A.88.88,0,0,1,.88,15c-.07-.15-.26-.1-.26.07a.35.35,0,0,1-.4,0c-.2-.14.05-.45,0-.64S0,14.35.06,14.18,0,14,0,13.86a1.09,1.09,0,0,1,.79-.95h0A.64.64,0,0,0,1,12.86H1c.23-.07.35.1.6.1.08.12.16.08.22.17s-.06.18.1.18,0,.32.18.37,0,.05,0,.07a2.25,2.25,0,0,0,0,.45h0s-.09.09-.08.07.08.14.1.2a.13.13,0,0,1,0,.1h0c0,.08.1.16.15.22M.58,12.47c0-.05-.13-.14,0-.22l0,.05h0l0,.06h0a.15.15,0,0,0,.1.12.11.11,0,0,1,0,.14.64.64,0,0,1-.17-.13m2-2.44c-.33-.14-.06-.58.17-.61h0c.42-.12.48.53.22.64a.32.32,0,0,1-.39,0m2.82,2.32c-.14.15-.11.17,0,.31a.2.2,0,0,1-.17,0A.59.59,0,0,0,5,13c0,.15.19.23,0,.38-.18-.09-.17-.38-.38-.16s-.33,0-.42.23-.21.06-.32.12v0l-.05,0h0a.24.24,0,0,1-.13,0c-.12,0-.33.06-.38-.12H3.22c-.15-.16,0-.27-.26-.27,0-.1,0-.16-.07-.17l0,0v0a1.53,1.53,0,0,1-.07-.24c-.22-.1-.17-.34-.19-.48.15-.11.11-.49.27-.4A.33.33,0,0,0,3,11.87c.08,0,.18,0,.25,0a3,3,0,0,0,.18-.25h0a.35.35,0,0,1,.2-.1.31.31,0,0,1,.11-.08h0c.22,0,0-.21.07-.32s0-.22,0-.2.08-.16.07-.14.48-.25.58-.12a.47.47,0,0,1,.27.25h0c.06.13,0,.22.06.37-.08,0-.18.21-.28.31.11.12.33-.19.43,0s.37.26.4.5c0,.07,0,.15.05.23M4.52,9.58c-.16-.12-.14-.5.07-.56,0-.16.35-.16.49-.09a.54.54,0,0,1,.2.47A.38.38,0,0,1,5,9.68s0,.07,0,0l-.08,0c-.17.06-.19-.1-.32-.12m.72,5.08a.59.59,0,0,1,.07.3c-.1.17-.3.26-.43.1l0,0-.1-.1h0a.3.3,0,0,1,.11-.34v0c.15-.14.2,0,.35,0M4.89,10h0s0,.07,0,.1-.06-.08,0-.09m7.4-5.19.07,0c-.12.12-.1.13-.13.28s-.25,0-.19.26h0c.08.08-.13.22.09.3,0,.1,0,.16-.12.2s0,.34-.3.35h0a.51.51,0,0,0-.11.55c-.16.09-.43-.1-.51.15a.41.41,0,0,0,0,.16s0,.06,0,.06-.15-.09-.25-.12a1.11,1.11,0,0,0-.31.09c-.09,0,0,.2-.16.26s0,0-.08,0v0s-.2,0-.21,0-.28-.26-.36-.15-.08,0-.07.08c-.25,0-.13-.1-.35-.19s-.2.08-.33.08S8.8,7,8.71,7a5,5,0,0,1-.58-.21c0,.14.21.21,0,.32h0a.14.14,0,0,0,0,.22.24.24,0,0,1,0,.12C8,7.61,8,7.52,8,7.73A1.37,1.37,0,0,1,7.76,8c-.14.09,0,.18-.16.22s-.09.27.05.27.18-.06.26,0,.29.11.37.28h0l.09.13h0c0,.1.05.26-.05.34h0l0,0h0c0,.05-.06.15-.13.18a.27.27,0,0,0,.11.09c0,.07,0,.13.09.13s.13.17.15.22a.46.46,0,0,0,.08.35h0a.12.12,0,0,1,0,.1c-.1.08,0,.13,0,.25-.16.11-.12.25-.2.38l0,0L8,11.21s-.27,0-.34.13c0-.13-.15-.11-.19,0s-.13-.05-.18-.07-.17,0-.18,0-.29-.16-.34-.2-.32.1-.4.18-.21.06-.32.15v0H6c-.09-.1-.24,0-.3-.11a.1.1,0,0,0-.08-.09l-.1-.1h0c-.07-.12-.42-.26-.37-.41s0-.34.26-.36a.54.54,0,0,1,.2,0A.57.57,0,0,0,6,10.25a.34.34,0,0,0,.29,0,.78.78,0,0,0,.18-.52c.17-.11.17-.29.34-.39-.1,0-.2-.12-.29-.13s0-.09,0-.07A.65.65,0,0,0,6.31,9V8.9c-.09-.18.08-.4,0-.52s-.2,0-.27-.1l0,0a.18.18,0,0,0-.15-.12.47.47,0,0,0-.2-.1,3.18,3.18,0,0,1-.31-.53h0a.81.81,0,0,1,0-.69.16.16,0,0,1,.09-.22c.18,0,.09-.31.11-.36a1.45,1.45,0,0,1,.36-.34c.29,0,.26-.24.4-.26s.16,0,.26-.07v0a.36.36,0,0,0,.22-.07v0c.1,0,.17,0,.22.08s.12.09.16,0a.43.43,0,0,1,.17,0c.09,0,.11-.06.07-.09s.07-.09,0-.15-.12-.09-.2,0l0,0,0,0,0,0A.08.08,0,0,1,7,5.21s-.07,0-.1,0l.07,0c0,.07.07,0,.08,0s.07,0,.1,0h0c.16-.08.14-.14.05-.18S7,4.68,7.15,4.59l0,0c0-.08-.18-.1-.23-.1h0l0,0c.2,0,.23.09.3-.07s-.07-.32.15-.28a.56.56,0,0,0,.08-.15.42.42,0,0,1,0-.22h0l0,0s0,0,0-.08h0a.16.16,0,0,1,.07-.22l0,0c.08-.08.2,0,.3-.1l0,0c.11-.1.05-.19.1-.26s.17-.05.3-.1h0c.14-.09.06-.24.2-.31s.22.1.33.06.13-.2.15-.25.12,0,.15,0l0,0v0c.14.2.27-.1.4-.07l0,0,0,0a.3.3,0,0,0,.33.1.52.52,0,0,1,.47,0,.22.22,0,0,1,.08-.2c0,.13-.17.27,0,.33l.1.09a.4.4,0,0,0,.25-.09c.17,0,.09.18.12.22,0,.27.23,0,.35.18a.16.16,0,0,0,0,.22l.06.09,0,0a.63.63,0,0,0,.22.05,1.14,1.14,0,0,0,.15.17v0c.07,0,.13.2.16.27-.12.07-.07.26,0,.25l.23-.1c.15,0-.27.15-.25.15a.21.21,0,0,0,0,.06h0s.05.06,0,.07l0,.08h0a.35.35,0,0,1,.09.37.42.42,0,0,0,.2.1M6.08,8.9c.27.27-.28.14,0,0m4.41-6.68a.21.21,0,0,1-.06.1,2.33,2.33,0,0,1,.11-.42h0s0-.06,0-.09,0-.17.09-.22a1.93,1.93,0,0,1-.15.64m0-.55,0,0c.05-.05.1-.05.14,0l-.1,0m.3-.67V1s0,0,0,0m0-.23A2,2,0,0,1,11,.22c0,.15,0,.48-.15.55M11,.05c0,.06,0,.11-.07.17A.33.33,0,0,1,11,0l0,.05m5.88,5a.31.31,0,0,1-.17.15l0,0a1.19,1.19,0,0,0-.09.15c.23.12.07.19-.06.19s-.08.24-.15.31-.24.05-.37.15.06.27-.13.15l0,0c-.07-.07-.11-.1-.15,0l0,0,0,0c-.07.07-.22-.07-.29-.07s-.11.13-.23,0c0,0-.14.08-.19,0s0,0-.11,0-.12-.22-.3-.17S14.5,6,14.48,6c0-.17-.18,0-.19,0s0-.16,0-.27-.23-.13-.33,0a.77.77,0,0,1-.19.14c-.14,0-.16,0,0-.12a.27.27,0,0,0,.23-.18v0l0,0h0c.15-.09.26-.75,0-.71h0c-.14,0-.35,0-.35-.2s.38,0,.52,0a.24.24,0,0,0,0-.08h0A.81.81,0,0,0,14,4.09c-.12.06-.31.26-.36.2l0,0c-.11-.11-.15-.21-.32-.09l0,0h-.15a.61.61,0,0,0-.34-.17s-.13.14-.16.12a1.07,1.07,0,0,1-.14-.2l0-.07v0l0,0h0l-.24-.1c-.32.2-.17-.21-.3-.28s-.05-.11-.08-.07-.34-.13-.19-.23S11.43,3,11.42,3h0l0,0a.19.19,0,0,0,0-.34v0c-.19-.1.09-.27.05-.4h0a.81.81,0,0,1-.13-.11c0-.12,0-.1.12-.17s-.05-.23-.09-.28.32-.18.32-.34-.11-.18,0-.24.28,0,.28-.14,0-.11,0-.17.22,0,.29-.09.08-.18.23-.23h0l.08,0h0a.35.35,0,0,1,.28-.09c.19.14.31-.22.5-.15a1.27,1.27,0,0,0,.33,0,.25.25,0,0,0,.3.12v0c.23-.23.17.18.36.18s.14-.06.24,0v0c.1,0,.1.22.18.25s.05.09.09.09.38.16.38.41.11.27.33.49c0,.07-.05.21,0,.29s0,.27-.09.41a.17.17,0,0,0,0,.17h0c0,.11.14.14.22.2-.08.11-.23.08-.29.13a.7.7,0,0,0,0,.32c-.11.11-.23,0-.27.13l.49,0c.19-.13.09,0,.28,0a.28.28,0,0,0,.17,0h0c.13-.15.51.39.62.4s0,.22.11.35.18,0,.14.14,0,.18.1.3c-.19.25,0,.21,0,.46m-4.36-1s0,.07,0,.09,0-.08,0-.09m.5.57.07.07c-.09,0-.06,0-.14,0l.07,0"/></g></g></svg>