<svg xmlns="http://www.w3.org/2000/svg" viewBox="0 0 23.09 23.58"><title>Asset 174</title><g id="Layer_2" data-name="Layer 2"><style type="text/css">
.inksplat{fill:#503945;}
</style><g class="inksplat" id="Layer_2-2" data-name="Layer 2"><path d="M.18,19.1H.25v.07a3,3,0,0,1-.25.22c0-.14.15-.16.18-.29M2.65,8.68h0v.14h0v0c-.1,0-.31,0-.36.07h-.2v0c-.16.1-.32,0-.5.16S1.2,9.08,1,9a.74.74,0,0,1-.53-.42c-.11-.4.42-.42.62-.51a1.22,1.22,0,0,0,.27,0,1.3,1.3,0,0,0,.15.1l.05,0s.73.14.83.18v0a.3.3,0,0,1,.25.28m-1,11.37h.05v.05c-.05,0-.06,0-.05-.05m1-20A.84.84,0,0,1,2.7.17C2.64.12,2.56,0,2.65,0M2.7.18a.12.12,0,0,1,0,.07s0,0,0-.07M17.45,11.52h0c-.09.26,0,.45-.33.57a1.38,1.38,0,0,1-.54-.21c-.13-.06-.45,0-.28.14a.78.78,0,0,0,.17.48c.06.06.12.21.24.21.31,0,.41-.06.29.3-.06.1-.2.17-.23.35a2.65,2.65,0,0,1,.18.42c.19.09.61.18.28.38a.73.73,0,0,0-.4.13c-.08.21-.4.51-.23.79s-.23.28-.23.51c0,0-.18.2-.19.2-.17.07-.2-.23-.36,0,0,.16-.12.15-.12.3s-.14.25-.24.17a.19.19,0,0,1-.11-.05v0l-.07,0c-.15.13-.22.16,0,.3s-.25.5-.31.25a.15.15,0,0,1-.12-.1c-.16,0-.64.13-.42.35,0,.13.21.35.09.45v0s-.45-.86-.28-.28c.05.15,0,.19-.06.28s-.16-.05-.18-.05-.16-.26-.16-.27-.1-.12-.17-.13-.15.13-.2.31-.11,0-.12-.07c-.06-.56-.33-.14-.59-.19,0-.16-.23-.19-.3-.17a.51.51,0,0,0-.26.35c-.07-.14.06-.31,0-.5a3.17,3.17,0,0,0-.54-.36s-.49-.4-.53-.44a.31.31,0,0,1,0-.2c0-.12-.32-.14-.37,0s-.31.14-.36,0-.29,0-.39-.06c.11,0,.23,0,.28-.05s.11.06.12,0c.22-.15.81.21.77-.23s-.52-.05-.45-.29c.23-.11.46-.3.2-.51l0,0c-.19-.11-.06-.19,0-.33s0-.27-.1-.36.12-.25.15-.38-.06-.11-.09-.19-.41,0-.5,0-.12.37-.43.37c-.08,0-.19-.12-.24-.18-.21-.28.19-.43,0-.63,0,0-.29-.2-.29-.08s-.28.27-.15.27c-.21-.38-.44.25-.19.35s.16.34,0,.48-.3.61-.28.82-.14.76-.3.44a.38.38,0,0,1,.06-.39c0-.27.16-.53.08-.87-.35.12-.71-.34-.88-.28H7.31c-.29-.06-.59-.4-.85-.55-.22,0-.57-.08-.65.12-.12,0-.14.18-.19.31s-.09.15,0,.29.12.31-.11.35c-.35-.23,0-.5.08-.75.27-.21-.36-.46-.45-.55s-.62-.57-.88-.35-.17-.45-.19-.51-.25-.22-.33-.3H3.67c0,.06-.13-.06-.16-.08s-.1-.24-.1-.43-.35-.2-.54-.2v0h-.1c.08-.08.52-.05.57.05.45-.13.17-.56.45-.75a.75.75,0,0,0-.22-.62c0-.07-.17-.1-.21-.2.17,0,.17.15.31.15a.43.43,0,0,0-.44-.35c-.09,0-.44-.19-.18-.24s.64.28.92.33a2.33,2.33,0,0,1,.45-.22c.09,0,.13-.12.17-.17A1.16,1.16,0,0,0,5,8.4c.16-.18,0-.23-.16-.31s-.29-.38-.06-.44a.9.9,0,0,1,.34.11,1.93,1.93,0,0,0,.1-.43c-.23,0-.39-.47-.07-.47,0,.15.14.44.32.35v.08l.15,0A1.07,1.07,0,0,1,5.94,7c.12-.08.45-.15.44-.4-.1-.1-.09-.16-.09-.34s0-.2,0-.24a.14.14,0,0,1,.17.06c.1.07,0,.11,0,.18s0,.28,0,.37a1,1,0,0,0,.63-.31c.09-.09.07-.46,0-.49V5.54c-.15-.09.06-.22.13-.23s.11.16.15.22v.4h0c0,.31.47.38.62.18a.21.21,0,0,1-.07.15H8a1.07,1.07,0,0,0,.44.43c.1,0,.19-.05.23,0s.49,0,.57-.15.08.26.08.27.12.26.22.28a.23.23,0,0,0,.07.22H9.52v0h0s-.12.12-.12.19.1,0,.07.13.13.15.07.2v0L9.5,8c.08.06,0,.09.05.13s0,.26,0,.34H9.6c0,.08,0,.16-.08.16s0,.09.05.12,0,.21,0,.33c.24-.14.39,0,.28.25s-.16.12-.33.12c0,0,0,.1,0,.08s0,0,.07.07h0v.13c.07.05,0,.65.29.39s.69-.19.59.24c0,.19-.22.25-.25.44.25.06.77-.7.89-.57s-.1.5-.25.5,0,.24-.09.27-.18-.15-.33,0a.31.31,0,0,0-.12.1c0,.16,0,.47.19.27s.19,0,.21,0,.27-.15.45-.15.28-.17.4-.2a1.34,1.34,0,0,1,.81.27,2.27,2.27,0,0,1,.25.06c.12,0,.4-.15.51-.22.28-.18-.24-.46.12-.58.23.07.12.37.36.44s.19-.06.26-.1.21-.14.32-.17c.3-.07.08-.13.2-.3,0-.24.2-.39.41-.42s.22.06.33.15c.33.26.09.48-.09.71s.47.31.51.38a1.8,1.8,0,0,1,.31.14s.35.05.38.06.26-.57.45-.18c-.15.14.09.41.29.14s.57-.18.53.14M3.17,13.22a.15.15,0,0,1,.15-.15.21.21,0,0,1-.15.15m.17-.15s0,0,0-.05,0,0,0,.05m1.2,4h0a.24.24,0,0,1-.3,0c-.15.07-.48,0-.69,0,.12-.12.78,0,1,0M3.79,5.26c-.06,0-.14.06-.2,0l.2-.07v.07m-.15-.94c0-.24.75.08.43.4a.71.71,0,0,1-.43-.4M4,12.49c-.06,0-.09,0-.12,0L4,12.39l0,.1m.32-6.9s0-.09,0-.11c0-.24,0-.35.27-.19s.07.2.13.25c-.12.24-.11.13-.35,0m.57,1.14c-.25-.1-.13-.2,0-.34S5,6.4,5,6.47s-.08.18-.13.26m.65,10.53h.1c0,.06,0,.1-.1.09v-.09m.3,4.95c.1.1,0,.28-.12.18s0-.21.12-.18m.26-4.66c.21.12,0,.3-.06.16s0-.22.06-.16M7.5,18.93h0c0,.2-.49.74-.63.65-.38,0,.47-1,.6-.65m1-1.26c0,.38-.35.07-.46,0a1.37,1.37,0,0,1-.33-.43c-.24-.49.3-.24.45-.09s.17.32.27.4a.14.14,0,0,0,.07.16M8.06,6.26s0,0,0,0-.12,0,0,0m0-4.89c0-.11-.11-.22,0-.32.15.15.25.21.25.44l-.24-.12m.12,4.81H8.18a.17.17,0,0,0,0,.1c-.1,0-.11,0-.15-.14a.25.25,0,0,1,.17,0m-.05-.09-.08,0V6c.05,0,.09,0,.08,0m0,10.09c-.18-.08-.09-.26,0-.15s0,.25,0,.15m0-9.9V6.21H8.3s0,.07-.05.07m.43,9.08c.13,0,.38.28.2.3s-.2-.11-.28-.17,0-.07.08-.13m.12-8.7s0,0-.05,0,.06,0,.05,0m.4,6.6,0,.11H9.15c0-.08,0-.12,0-.11m0,.33,0,.05Zm.07.19a.3.3,0,0,1,.06.23.29.29,0,0,1-.06-.23M9.4,6.56s0-.06,0,0l0,0m.22-.5c-.25-.12.16-.6.21-.68s.19-.1.26-.31.2-.3.11-.36a.21.21,0,0,1-.17-.2c.27.09.57.31.57-.19.1-.17.53-.45.67-.3s.27-.27.37-.43a.33.33,0,0,1,.28-.2s.44.08.24,0h-.37c-.08,0-.62-.54-.46-.65s-.09-.29,0-.35.11-.13.16-.14S11.58,2,11.7,2a.19.19,0,0,0,.15-.07h.47V2c.29.1.58.47.45.77a.15.15,0,0,0-.06.1.21.21,0,0,0,0,.12c0,.14-.26.35-.4.35-.11.41.33-.2.3-.17s.25.27.48.17c.05.06.1.13.07.15v.08c.07.22.26.06.28.35a2.89,2.89,0,0,0,.15.39c-.08.33.16.16.19.36-.14,0-.32.13-.19.29s-.15.13-.15.23,0,.15-.08.16-.07.11-.16.22-.2-.07-.17-.16c-.17,0-.1.07-.1.17s-.17.19-.26.09,0-.09,0-.19-.38.37-.52.11c-.14-.09-.78-.58-.78-.18h.06s0,.07.07.07-.17,0-.28.1-.15.23-.22.28-.13.23-.18.3a.72.72,0,0,1-.74.4c-.22,0-.54-.2-.53-.45m0,2v0h0c-.06,0-.06,0,0,0m.15-.48a.12.12,0,0,1,.07,0c0,.06,0,.08-.07,0m.22.58-.08,0a.24.24,0,0,0,0-.08c.09,0,.07,0,.1,0M10.09,8C10,8,10,8,10,8.08l-.08,0L10,8c-.05,0,0-.09,0-.11s-.06,0-.05-.07.14.09.17.17m0,.05H10V8c.05,0,.09,0,.09,0m0-.49a.24.24,0,0,0-.08-.06h.12s0,.07,0,.06m0,.32c-.07,0-.12,0-.1-.07s.12,0,.1.07m-.07-.22s0,.07,0,0m.55,7.7c-.65.33.1-.41,0,0M12,8.3a.79.79,0,0,1-.56.3v0a.5.5,0,0,0-.28-.06c-.11,0-.15-.14-.22-.22a1,1,0,0,1-.26-.4c0-.15,0-.26-.05-.34l-.07,0c0-.07,0-.07.12-.1v.06s.08,0,.06-.08.28-.2.3-.28.23,0,.32-.11c.26,0,.43.19.64.24a1.72,1.72,0,0,1,.14.4c-.08.17.06.43-.14.52M10.75,9.6l.07,0s0,.05,0,.06h-.08s0-.05,0-.07m1,.15c.34,0,0,.2-.05.28s-.07.29-.43.29c-.5-.49.38-.35.48-.57m-.43,13.17c.28.14-.34.35,0,0M12.34,9c-.18.09-.35-.21-.35-.35.2-.23.55.16.35.35m.15,14.33c0,.21-.22.41-.23.06s.24-.36.23-.06M13,17.1h.1v0l-.1,0V17.1M14,9a.13.13,0,0,1-.09-.1,1.22,1.22,0,0,0,.15-.17c.19,0,.46.15.29.32S14.06,9.13,14,9m1.51,7.43c.15-.07.12,0,.16.1-.12,0-.16.05-.16-.1m1.22-5.34c-.06,0-.12-.13-.13-.17s0-.07.05-.06c0-.22.21,0,.23.1s0,.19-.15.13m.17,9.13c.17.13-.06.31-.12,0l.12,0M18,13.59c.2.13,0,.5-.06.44s-.3,0-.39-.06a.24.24,0,0,1,0-.38v-.05c.14,0,.28.05.41.05m-.47,5.11c.21,0,.47,0,.47.3s-.43-.16-.47-.3m.32-10.07-.1,0,0-.15a.24.24,0,0,1,.1-.06.76.76,0,0,1,0,.16m1.05-2.7a1.23,1.23,0,0,1,.42-.1c.07.24-.3.2-.42.31h-.45c.05-.17.3-.23.45-.21m3,.88c.1.28-.59.34-.66.12.21-.17.38-.12.66-.12m1.12,12.41c-.07.07-.08,0-.17,0s.15-.3.17,0"/></g></g></svg>