<svg xmlns="http://www.w3.org/2000/svg" viewBox="0 0 41.83 25.33"><title>Asset 96</title><g id="Layer_2" data-name="Layer 2"><g id="Layer_2-2" data-name="Layer 2"><path class="inksplat" d="M.05,4.25c.13,0,0,.2,0,.27S0,4.3.05,4.25M1.81,7.71c.13.33-.05.53-.41.53S1,7.66,1.29,7.61a.58.58,0,0,1,.13-.14c.11,0,.4.11.39.24M1.79,4c.15.19,0,.28,0,.5H1.77a.69.69,0,0,0-.05-.13h.05V4.27H1.72V4c.07,0,.05,0,.07-.08m.72.17A.43.43,0,0,1,2.31,4c.11,0,.23.06.2.15m14.69,12c.15.14-.18.24-.07.44s-.33.38-.33.57h-.05s.12.22,0,.22h-.25a1,1,0,0,0-.08.3.52.52,0,0,0-.37,0,.18.18,0,0,1,0,.25c-.27-.13-.26-.17-.58,0-.08,0-.33,0-.33-.13s-.33,0-.31,0c-.13-.05-.37-.21-.37-.35-.12,0-.14.11-.29.13s0,.16-.06.22S14,17.8,14,18s.16.14.2.28-.07.15-.16.19-.2.14-.23.34a.15.15,0,0,1,.11.12c.11.23,0,.13-.11.25s-.22-.06-.23.08-.25.25-.34.25,0,.23,0,.34-.2.05-.34,0,0,.13-.16.1h0c-.15.07-.38.14-.38.34a1.37,1.37,0,0,1,.21.3c0,.25.78.7.55.93-.22,0-.31-.27-.35-.45s-.23-.2-.28-.33-.27-.06-.37-.12-.19,0-.21-.13h-.29c0,.07-.28.14-.37.17-.24.07.26.75-.16.63,0-.13,0-.25,0-.38s-.09-.11-.1-.23c0-.27-.31-.15-.4-.31h-.28c-.05.16-.52,0-.68.17s-.13.38-.21.38-.14,0-.22.08.05-.24.13-.3.16-.14.17-.19.08-.17.1-.26c.08-.24-.1-.09-.1-.23s-.09-.16-.13-.2c-.33,0-.38.05-.38-.34-.12,0-.18-.21-.29-.21s-.28,0-.29-.14A.13.13,0,0,1,8.48,19c.08-.19-.07-.13-.09-.28l-.12-.19c-.1,0-.28-.19-.25-.23A.7.7,0,0,1,8.17,18c0-.15.07-.49-.1-.54v0A.15.15,0,0,1,8,17.18c.36-.18.15-.34,0-.59-.1,0-.21.14-.25.23s-.4-.19-.53,0,0,.2,0,.28-.2,0-.2,0-.24-.26-.3-.05c-.18.59-.29,0-.44,0v-.05A.6.6,0,0,0,6,17a.5.5,0,0,1,0,.24c-.1.18-.19-.15-.21-.19S5.47,17,5.3,17s-.18.13-.34.13a1.13,1.13,0,0,0-.27-.34c-.13-.1-.41.11-.4-.09h0c0-.07-.19-.46-.27-.46s-.11-.05-.21,0-.18-.1-.32-.14S3.35,16,3.26,16s.08-.32.09-.35a.23.23,0,0,0-.17-.27v0c-.16,0-.29,0-.29-.22.18-.05.09-.29.09-.4s-.17-.09-.22-.2-.23,0-.27-.2.18-.11.19-.22,0-.13,0-.16v-.3c-.1-.06-.09-.31-.17-.41-.48-.07.12-.34.16-.39a.23.23,0,0,0,0-.28c-.1-.21,0-.18.1-.32S3,12,3,11.78c0-.42.35-.09.47-.35s.29-.22.23-.47.27-.33.27-.15c.2.12.25-.07.38-.2-.08-.07,0-.17,0-.23s.13.15.29.15A.27.27,0,0,0,5,10.19c-.07-.49.43.23.47-.08h0c0-.11,0-.17.06-.23s.11.1.2.21.28.07.41,0a.86.86,0,0,0,.4-.44,5.75,5.75,0,0,1,.36-.82V8.76c.1-.06.12-.33.15-.44s.12-.59.19-.65v0h0a.52.52,0,0,1,0-.18s.15-.52.22-.52c.06-.19.13-.31.19-.54s.16-.57.34-.66.29-.29.66-.38c0,.14.23,0,.36.17a.67.67,0,0,1,.2.33h0v.1h0a4.68,4.68,0,0,0-.15.67c-.09,0-.12.45-.27.45s-.09.46-.21.58v.1h0c0,.22-.3.3-.3.5,0,0-.05,0-.07.14s0,.4-.11.45L8.17,9h0v0h0l0,.18L8,9.33a.39.39,0,0,0,0,.18c-.08.09-.24.54-.15.64-.17.15.1.43.1.61s.47-.15.5-.2v-.08h0c0-.18.36-.49.3-.2a.23.23,0,0,1,0,.2l0,0c-.15,0-.23.46-.43.5s0,.4,0,.59c.08,0,.11.08.1.16s.17,1.28.6.77h.1c.09-.12.54-.15.68-.26h0c.37-.3,1.57-.23,1.67-.86a1.19,1.19,0,0,1,.39,0,.37.37,0,0,1,.35.37c.17,0,.11,0,.11-.12h.22c0-.05,0-.07,0-.09v.07h0l0,.05a.36.36,0,0,0,.34-.12.08.08,0,0,1-.07-.05l.08,0c0-.09.08-.09.1-.17s0-.11,0-.22c.3,0,.08-.51,0-.6s-.14-.15-.19-.25h-.15a.3.3,0,0,0-.32-.2,2.77,2.77,0,0,0-.29-.25c0-.09-.12,0-.14-.13s0-.25-.08-.33a2.64,2.64,0,0,0-.17-.46V8.73h0V8.24h0a.21.21,0,0,0,0-.07.15.15,0,0,0,0-.16.78.78,0,0,1,.39-.47,2.53,2.53,0,0,1,1,0c.23.19.59-.15.59.21.17.14.2-.13.26.15,0,.13.12.17.24.14s.1,0,.1.09a1.35,1.35,0,0,0,0,.28c0,.07.1.12.11.23h0c0,.08,0,.42,0,.43s-.07.19,0,.24.27.33.33.57.12.5,0,.61v.07c-.1.16-.15.49-.27.63a3.42,3.42,0,0,0-.05.39h0c.06.17-.05.44.14.52,0,.11-.06.23.12.19s.16.21,0,.29c.07.06.12.18.24.2.18-.18.23,0,.23.15a.24.24,0,0,0,.17.23c0,.12-.13.17-.07.25,0,.31.48.32.27.51s-.2.25,0,.45.48,0,.59.21.45.17.56.52c.24,0,.28.18.35.32s-.05.1-.05.19.2.06.2.2-.2.05-.11.26a.22.22,0,0,0,.11.12M2.79.86h.07c0,.05,0,0-.07,0M3.48,9a.7.7,0,0,1-.22-.2c.12.12.22,0,.22.2m.9-2.89,0-.1c.12,0,.15.09,0,.1m.45,19c.21-.18.24-.53.57-.55a.85.85,0,0,1,0,.16H5.33c0,.14-.1.2-.15.31s-.23.38-.35.08m3.34-2.71c.06.1.06,0,.1.15-.12,0-.17-.08-.24-.15A1,1,0,0,1,8,22.23a2.43,2.43,0,0,1,.2.25m.17-5.94c.12-.13,0-.25-.14-.28-.06.13,0,.23.14.28m.25-.65c-.24,0-.18,0-.27.2h.07c.09.15.23-.06.2-.2m3.05-3.57c.21-.21-.14-.35-.23-.49A1.34,1.34,0,0,0,11,12c-.2,0-.42.19-.66.22,0,0-.56.25-.56.23s-.66.28-.7.28v.05c-.29,0-.25.34-.43.39,0,.12-.25.39-.1.47v0a4.34,4.34,0,0,0,.51,0v.07H8.79a.67.67,0,0,0,.45.5.06.06,0,0,0,.06.05h0c0,.1.34.11.38,0,.2-.1.35-.22.57,0a1.58,1.58,0,0,1,.27.2c.24.06.38-.15.41-.39-.06,0-.26-.1-.2-.21a.18.18,0,0,1,.2-.07.49.49,0,0,0,.07-.32c-.25-.25.07-.14.1-.38,0,0,.12-.31.13-.32s.15-.14.29-.1v-.08h0c0-.11,0-.25.17-.25M8.9,15.45c0-.25-.27-.21-.36,0v.1c.12,0,.24,0,.36-.07M9,9.08a1.54,1.54,0,0,0-.22-.3h.07a2,2,0,0,0,.23.3H9m1.72,14.56.1,0c.05.16.17.55-.1.55a1.1,1.1,0,0,1,0-.51m.43-2.29h0l0,0s0,0,0,0m1.26-9.89s.06,0,.05.07-.07,0-.05-.07m.08-.1c0,.06.05,0,0,.09a.41.41,0,0,1,0-.09m0,.12,0,0a.05.05,0,0,1,0,.07s0,0,0,0m.24.19h-.05v0s.06,0,.05,0m2.65.78a.25.25,0,0,1-.15.1c0-.07.09-.07.15-.1m0,0c-.1.11.08-.07.07,0s.13-.2.23-.2-.19.23-.3.25m.57-.87c-.38-.11-.15-.42,0-.56s.67-.27.79-.25,0,.08.17.08.28.23.14.23c.12,0-.38.42-.39.42a2.44,2.44,0,0,1-.56.13s-.07,0-.12,0m1.52,5.58a.23.23,0,0,1,.12.12c.14-.14-.13.1-.09.06s-.1-.11,0-.18M28.42,5.4c.11,0-.08.17-.16.17a.43.43,0,0,1-.32.1,2.87,2.87,0,0,1-.91.38,1.64,1.64,0,0,0-.49.15c-.09.09-.35.06-.42.16a2.73,2.73,0,0,1-.87.31v0a1.4,1.4,0,0,0-.6.23,1.92,1.92,0,0,1-.32.09,1.94,1.94,0,0,1-.73.27c-.29.05-.52.22-.86.26a.09.09,0,0,0,.12.07c0,.14-.22.15-.13,0-.36.16-.62.24-.94.37-.06.09-.3.1-.41.16a2,2,0,0,1-.47.16,10.84,10.84,0,0,0-1.47.41c.07-.21.59-.34.77-.4l.58-.22c0-.1.93-.29,1-.42h.05a3.5,3.5,0,0,1,.67-.23v0h.08c.09-.12.44-.16.59-.2s.27-.16.36-.18.32-.15.52-.18.4-.18.56-.21.44-.08.49-.17h0A5.08,5.08,0,0,1,26,6.2c.1-.08.55-.12.59-.25s.18,0,.23-.08h.05c.16-.17.57-.09.73-.27h.1c.13-.14.52-.09.57-.26a.17.17,0,0,1,.15.06s0-.05.05-.06V5.4M21.79,8.76s0,.07.1.07c0,.34-.13.48-.43.66a1,1,0,0,1-.58,0c-.07,0-.23-.17-.17-.21,0-.28,0-.37.2-.58s.45-.23.53-.12h.09v0c.07,0,.22.06.26.12m4-2.72-.42.11c0-.13.19-.1.28-.15s.45-.14.56-.24a.2.2,0,0,1,.24,0c.11.12-.23.12-.28.14s-.28.1-.38.17m4.16,2.2c.11.08.43.14.22.34a.51.51,0,0,1-.41.16c-.18,0-.34-.15-.25-.33s.3-.17.44-.17m1.71,5a.23.23,0,0,1,.19.14.82.82,0,0,1-.49-.35.81.81,0,0,1,.3.21M35.23,3.9a1,1,0,0,0,.24,0c0,.2-.45.21-.59.25a3.86,3.86,0,0,1-1,.22,2.93,2.93,0,0,0,.43-.13s.26-.12.27-.14a1,1,0,0,0,.29-.1c.09,0,.17,0,.21-.05s.09,0,.1,0m2.76,4c.19,0,.47-.11.57.09C38.4,8,38,8.09,38,7.87M41.83,0c0,.12,0,.15-.08.19a1.79,1.79,0,0,1-.57-.08C41,.07,41.27,0,41.3,0a.87.87,0,0,1,.53,0"/></g></g></svg>