<svg xmlns="http://www.w3.org/2000/svg" viewBox="0 0 31.13 16.35"><title>Asset 128</title>
<g id="Layer_2" class="inksplat" data-name="Layer 2"><g id="Layer_2-2" data-name="Layer 2"><path d="M0,10.47c.17-.17.42.14.24.24s-.32,0-.24-.24m.55.95c0,.11-.1.13-.1.08s.06-.07.1-.08m4.46-1.8c.18.18.14.34.13.53s-.19.31-.35.27h0c-.31.16-.37.35-.15.62.14,0,.24.29.32.39v0c.12.15.19.34,0,.42v.05c-.06.07-.12.26-.21.32s0,.07-.07.09l0,0c-.1,0-.18.12-.29.17s.38.26,0,.42c-.16.09-.2.37-.31.48s.27.35.35.38-.12.22-.25.17-.12-.2-.19-.27c-.35-.26-.43.24-.07.24.19,0,.61.16.66.37v0l0,.2,0,0a.72.72,0,0,1,.13.29c.06.14,0,.19,0,.33h0c0,.3-.21.42-.28.67s.14.29,0,.44-.32-.12-.21-.26a.11.11,0,0,0-.11,0v0c-.25,0-.74.52-.89.42s-.16-.18-.1-.23a1.19,1.19,0,0,0-.24-.34.59.59,0,0,0-.71.13c-.16-.11-.44-.14-.55-.33l0,0a1.83,1.83,0,0,1-.13-.24l0,0c-.06-.12-.2-.09-.3-.17v-.05l0,0L1.29,15h0c-.09-.14,0-.28,0-.4.22,0,.07-.24,0-.33s-.08-.29-.14-.45.05-.2,0-.39c.3,0,.2-.41.32-.53l0,0a1.81,1.81,0,0,0,.27-.18l0,0a1.46,1.46,0,0,1,.37-.08l.07,0v0c.09,0,.16-.08.16-.19H2.13c0-.09.11-.06.2-.06,0-.24-.26-.64-.52-.64,0,0,.3.35.15.35S1.81,12,1.69,12c-.12.31-.46,0-.56-.13a.61.61,0,0,1,0-.22l0,0h0v-.08c-.12,0-.2,0-.23-.14h0s0,0,0-.05a.24.24,0,0,1,.18-.21l0,0c.06,0,.09,0,.09-.1,0-.33-.15,0-.27,0s-.36-.28-.12-.33c-.05-.1-.21-.11-.23-.19.15-.1.58-.72.5-.87h0c0-.29.09-.23.3-.41l.1-.05h0l.11,0v0c.11-.11.33-.12.3-.3s0-.09.06-.08a1.76,1.76,0,0,1,.27.07l.25,0h0c.07,0,.45-.08.45-.06s.43,0,.47.05.08.09.12.13,0,0,0,.07.1,0,.16.1.07.22.2.23.12-.13.29-.05.06.1,0,.15.23.11.28.12v0l.13,0h.24a1.09,1.09,0,0,1,.23.14M2.4,16.33c0,.05,0,0-.07,0s.07,0,.07,0M6.82,5.39a1,1,0,0,1-.48.19.47.47,0,0,0-.47-.27c0,.08-.12.22-.2.17s-.06,0,0,0h0l0-.05h0c0-.41-.48-.12-.6-.45H5c0-.11-.09-.1,0-.23-.18-.19-.51-.15-.53-.49,0-.06,0-.08,0-.1s0-.36-.19-.26-.11-.11,0-.19.11-.18.08-.36S4,3.24,4.11,3.05h0A.49.49,0,0,1,4.32,3c.17-.18-.15-.33,0-.44s.2,0,.22-.18l0-.11h0s0-.1-.06-.11.32-.18.36-.2-.19-.22,0-.29.26-.07.16-.23h0s0-.06,0-.07v0H5v0c.06,0,.17,0,.2,0,.18-.11,0-.4.25-.35.24.33.31-.18.4-.25h0c.11,0,.11.16.26.13a.22.22,0,0,0,.2-.21c0-.13.3,0,.36,0s.13-.14.22,0A.26.26,0,0,0,7.19.8v0c.06,0,.14-.08.18-.14s.11,0,.12.07l0,.13C7.62,1,8.06.76,8,1L8,1c0,.05-.06.1,0,.11s.07.11.12.1.12-.12.24,0,0,.17,0,.24.29.12.37.31.09.23,0,.3.18.25.19.25c.12.18.07.29,0,.45v.09c.16-.13.28-.35.48-.29v0c.13-.09.54.07.54.12s0,.06.08.06,0,.06.06.18.13,0,.17.07-.17.12,0,.21,0,.17,0,.26h0c0,.1.08.15-.05.17s-.08.17-.11.25-.19.1-.32.16-.16,0-.23,0-.06,0-.09,0v0c-.16,0-.6-.36-.6-.15s.08.51-.05.54-.19,0-.22,0-.15.21-.28.29h0a.41.41,0,0,0-.09.12l.05.18h0c.06.22-.25.32-.38.24l-.1-.14c0,.21-.15.2-.27.09a.9.9,0,0,0-.28.13l0,0s-.09,0-.07.06-.19,0-.25-.1M5.1,14.59c.07.07.17.08.07.19s-.25-.1-.07-.19m.3-8.95c-.13-.13-.06-.2,0-.29s.23.2,0,.29m.89,4.66c0,.15-.41.24-.61.25a.33.33,0,0,1-.23-.23h0c-.31-.21.05-.67.3-.7l.12,0s.22.08.23.08.15.16.19.27h0l0,.15h0c0,.12-.06.17,0,.2m-.64,4.56c-.12,0-.09-.16,0,0M6,10.65c.15,0-.08.1-.08.1s-.25,0-.3-.06a.26.26,0,0,1,.25-.07.32.32,0,0,1-.17,0,1,1,0,0,0,.3,0m13.91-.55c.22.17-.06.53,0,.72h0c.05.19.12.29-.12.38s-.05.13-.09.27,0,.15-.16.17v0c-.22,0-.11.2-.2.28s-.43,0-.4.22,0,.1-.15.07-.28-.21-.28,0-.22.06-.26,0-.28.13-.34.15c-.36.14-.27,0-.49-.19-.06,0-.28-.15-.34-.09s-.38-.37-.38-.37-.36-.2-.36-.39.08-.08,0-.27,0-.06,0-.16a1.27,1.27,0,0,0,0-.34s-.05,0,0,0-.15-.16-.13-.25a.92.92,0,0,1-.18.12s-.12.12-.15.12-.3,0-.35.08-.49.12-.49.3a.16.16,0,0,0-.23,0v0l-.24,0-.25,0a.47.47,0,0,1-.23.12v0c-.15.1-.42.06-.52.17s-.21.1-.26.11a1.83,1.83,0,0,0-.17.15s-.18-.09-.19-.07a1.37,1.37,0,0,1-.4.09c-.06-.07-.13-.08-.16,0s-.13-.08-.25-.14-.22.05-.24.05c-.17,0-.08.71-.08.71s.17.12.21.15.15.21.09.28,0,.3,0,.25-.22.23-.28.26-.32,0-.44,0l-.07-.12,0,0,0-.07,0,0c0-.1,0-.13,0-.08l0-.07c0,.13-.2.27-.2.15s-.32.21-.3.2v0l-.13,0,0,0a.58.58,0,0,0-.22,0c-.16,0-.11.19-.23.28s-.26-.21-.3-.19a.17.17,0,0,0-.19,0l-.09.12c-.08.07-.33,0-.41,0a.1.1,0,0,0,0,0c-.07.07-.24-.25-.35-.24s-.06.05-.12.12c0-.11-.32-.18-.41-.25s-.49-.25-.57-.25a.36.36,0,0,0-.09-.32v-.05l0,0c-.08-.08-.35-.3-.32-.42v0l0,0h0a1.49,1.49,0,0,0-.13-.25l0,0a.75.75,0,0,1-.05-.42h0a.53.53,0,0,0-.12-.35h0c0-.15.17-.26.16-.4H7s0-.07,0-.13.15-.31.19-.39,0-.36.21-.43v0h0c0-.05,0-.08.08-.08l0,0a3.14,3.14,0,0,1,.37-.18l0,0a.74.74,0,0,1,.56-.19v0a1,1,0,0,0,.21-.1s.15,0,.2-.05.35-.07.35-.18c.12.29.35.12.56.11v0c.25-.19.11.17.35.17,0-.13,0-.21-.14-.19a.14.14,0,0,1-.05-.15s-.14-.23-.08-.26a3.55,3.55,0,0,1,0-.44.3.3,0,0,0,0-.18c0-.12.19-.09.19-.24s-.2.07-.26.07-.08-.25-.21-.25-.36.11-.21,0-.53,0-.25-.3c0,0,0-.13,0-.07s-.07-.14-.17-.12l-.11-.06a.33.33,0,0,0-.1-.44h0a.61.61,0,0,1,0-.3.28.28,0,0,0,0-.13c.08-.16.18-.27,0-.42,0-.06.26-.16.21-.25A.17.17,0,0,1,9,4.89a.63.63,0,0,0,.19-.17h0l.07-.09h0a.17.17,0,0,0,0-.14l.15,0a.24.24,0,0,0,.1,0c.15,0,.08-.2.29-.1s.13-.12.13-.19a.3.3,0,0,0,.29,0,.73.73,0,0,1,.21-.06.58.58,0,0,0,.34.07.18.18,0,0,1,.2.1c0,.18.2,0,.26,0s.23.28.29.39.11.16.25.08c.08.08,0,.24,0,.35s.17.09.23.17c-.1.1-.06.24-.05.37h0c.19.21-.13.31-.08.4a.23.23,0,0,1,0,.27h0l0,0h0c-.11,0-.11.17-.15.24v0l-.15.11,0,0-.12.1c.12.13.62.33.51.53s.38,0,.08.32c.07,0,.17.15.1.22.15.32.56-.23.7-.07h0l0,0h0l0,.08,0,0c.2.2.29.09.48.14a1.55,1.55,0,0,1,.42.23l0,0c.14.16.51.54.75.39l0,0c.17,0,.1-.14.17-.25s.15.07.13.14.11-.12.18-.12l0,0v0l.15-.07a2.32,2.32,0,0,0,.7-.08h0c.07,0,.16,0,.17-.06h.07l0,0a.16.16,0,0,0,.08-.11c.3-.24.17-.55.45-.84a3.14,3.14,0,0,0,.32-.25c.09.07.18,0,.3,0s.22.06.3.14c.24-.05.32.4.4.55a1.16,1.16,0,0,1-.08.5c-.14.22-.28.27-.35.54a.52.52,0,0,0,.08-.2c.09,0,.13-.08.15,0l0,0a.2.2,0,0,0,.18.12c.1-.05.08-.1.15-.13v0a1,1,0,0,1,.36.08c.15.05.22.24.39.24s.37,0,.32.18c0,0,0,0,0,0,0,.18.2.32.33.32l.09.05c.05.06-.07.21-.05.26a.43.43,0,0,0,.18.37M7,9A.14.14,0,0,1,7.14,9a.1.1,0,0,0,0,0h0C7,9.08,7,9.1,6.92,9L7,9m.53,3.62,0,0s0,0,0,0m.25,3c0,.09,0,.08,0,.15s-.19-.08,0-.15m.42-8.1c.19-.1.46.15.57.27v0a.29.29,0,0,1,.12.1c-.05.15-.58-.09-.64-.17v0c-.08-.06-.11-.13,0-.2m.15-.55c.1,0,.08-.1.2-.1A.86.86,0,0,1,8.52,7c-.09,0-.15,0-.15-.05M9,4.26s.06,0,.09,0,0,0-.09,0m.62,3.3a.22.22,0,0,1-.08.2.18.18,0,0,1,.08-.2m1.42,5s0,0,0,0,0,0,0,0m0,0,0,0s0,0,0,0m.26-9.21c-.17-.06,0-.23.07-.34a.57.57,0,0,0-.08-.13c0-.08,0-.1.08-.08s.13-.05.13-.07,0-.16.11-.2.1-.18.11-.25h0A.39.39,0,0,0,12,2.22v0c.08,0,.19-.07.21-.11s.54,0,.67,0a.66.66,0,0,1,.64.1v0l.05.09,0,0c.09.12.17.26.25.38h0a.9.9,0,0,1,0,.32h0a.14.14,0,0,1-.06.19c.21.2.09.14.05.35.21.07.58.36.4.64s-.28.32-.52.27c-.09,0-.42-.26-.42,0,0,.09-.51.23-.6.15s-.14.12-.32-.06a1,1,0,0,0-.21.1A.52.52,0,0,0,12,4.42c-.13,0-.08.14-.21,0s-.08-.26-.08-.27-.21.07-.21-.16-.1-.14-.1-.25,0-.08-.08-.08l0,0,0,0a.65.65,0,0,0,.05-.33M13.13,0l0,0s.05,0,0,0m0,.07a.89.89,0,0,1,0,.23c-.06-.09,0-.17,0-.28s0,0,0,.05m.32,11.79c.2.2.06.32-.18.32s0-.33.18-.32m1-4.44c-.26-.17-.06-.46.12-.27s0,.19-.06.25l-.06,0m.43,3.45c.18.18-.25.43-.15.19.06-.05.08-.14.15-.19m1.85,1.66a.52.52,0,0,1-.21.45.72.72,0,0,0-.19.11c-.05,0-.15,0-.2,0s-.07,0-.08-.07v0a.08.08,0,0,0-.1,0,1.51,1.51,0,0,0-.17-.2v0c0-.05,0-.09,0-.12s0-.07,0-.08c-.16-.32.3-.61.56-.57s.43.33.4.49m1,.83c.11.21-.14,0,0,0m2.92-4.17h-.17v0l-.21.05v0c-.12,0-.27-.11-.4-.1h-.05c-.18,0-.55-.3-.57-.47l0,0A1.41,1.41,0,0,1,19,8.36l0,0c-.14-.16-.11-.46-.32-.46a.78.78,0,0,0,.07-.52h0c0-.17-.1-.24-.1-.39s.1-.12.12-.18-.1-.18-.12-.29c0-.27.21-.52.31-.71h0c-.26-.53.44-.13.33-.6.07-.11.29,0,.32-.17s0-.37.13-.2c0,0,.12.08.15.11s.25-.06.33-.23.24.12.38.06.16-.18.31-.14.16.2.31.2.27-.1.39-.1.12.17.15.21.42.22.52.31.07.23.11.3l.13.1a1.36,1.36,0,0,0,.21.35c.3,0,0,.36,0,.48s.33.4.06.62a.45.45,0,0,1,0,.28c0,.12-.11.1-.05.27a.12.12,0,0,1-.07.18c-.21,0-.16.13-.3.22v0a.28.28,0,0,0-.07.22c0,.3-.17,0-.27.13s-.11.3-.29.35v0l0,0v0h-.07l0,0a.79.79,0,0,0-.27.2,3.47,3.47,0,0,0-.64.22v0l-.08,0h0s0,0-.05,0m-.67,2s0,0,0,0,0,0,0,0m1.64-.62c-.14.19-.3.5-.62.45L20.83,11c-.1,0-.2-.33-.2-.38s.09-.4.31-.45h0c.21-.2.39.1.56.1s.06.24.13.39m-.15,2.72a.18.18,0,0,1,.07.08.22.22,0,0,1-.17.05.11.11,0,0,1,.1-.13m1-3.22c-.12.34-.73.09-.86-.07a.77.77,0,0,1-.1-.57h0c0-.16.21-.4.35-.36s.28-.14.28-.07.28.19.31.17.21.54.21.63-.14.27-.21.27M21.6,2.19s-.05,0,0,0M29.19,8A.35.35,0,0,0,29,8.2v.12h0c0,.08.09.19.13.26h0c0,.19-.42.21-.33.49h0c.08.16,0,.21-.11.3s-.3,0-.25.26,0,.16-.1.14-.14,0-.2,0-.15.18-.22.25a.15.15,0,0,1-.15.18h-.1s-.08,0-.1,0v0l0,0v0l-.24,0c-.16.08-.1.23-.25.32-.2-.25-.47-.3-.62,0-.22,0-.11-.28-.36-.32s-.39.18-.47-.1-.38,0-.5-.23A.5.5,0,0,0,25,9.65l0,0a.18.18,0,0,0-.2-.14.37.37,0,0,1,.09.22v0h0v.09h0v.05h0c0,.1,0,.21.05.31h0c.09.11.11.41.3.3h0c.1,0,.13,0,.2.11a.52.52,0,0,1,.26-.06,1.55,1.55,0,0,0,.43,0v0c.23,0,.32.33.48.32.37,0,.28.41.64.45a.22.22,0,0,0,.08.05,1.59,1.59,0,0,1,.27.12c.13.09,0,.15,0,.26s-.23.1-.14.27.06.08.06.12,0,.09,0,.17c0,.41,0,.8,0,1.18h0a.3.3,0,0,0,0,.13h0v.07c-.06.09-.22,1.1-.48.67a.23.23,0,0,1-.12.1c-.05,0-.06-.07,0-.07,0-.18.05-.33.05-.55a1,1,0,0,0-.6.5c-.09.15-.21.31-.31.49s-.05.45-.24.54-.24.21-.12.36v0h0c0,.07.05.13,0,.16a.88.88,0,0,1-.15-.55c.07-.13.23.08.15-.16l-.16.06-.15,0h0a1,1,0,0,0-.32-.07c-.17,0-.37.14-.5,0h0l0-.08h0c-.09-.12-.21-.07-.32-.06a.9.9,0,0,0-.4.13c-.14.09-.51-.1-.25-.2v0a.39.39,0,0,0,.3-.14,1.31,1.31,0,0,0-.48-.08v0c-.18,0-.23.05-.29.24-.21,0,.1-.42-.21-.42a.22.22,0,0,1-.05-.08h0a.69.69,0,0,0-.13-.15.6.6,0,0,0-.09-.15v0l0-.09,0,0a3,3,0,0,0-.1-.33h0l0-.09h0v-.06h0a.43.43,0,0,0-.08-.29c.24-.16,0-.18,0-.31s.25,0,.27,0,.2-.32.2-.35.22,0,.25,0c.18,0,.2-.21.39-.23h0l.1,0c-.16-.07-.22,0-.3,0s-.15-.23,0-.23l0,0s.05.06.08,0c0,.18.2,0,.32.09s.38-.41.11-.48v0c-.08,0-.25.11-.25.17s-.18.05-.26,0L23,12s-.33-.39-.17-.47c0,0,.14-.16.15-.18,0-.28.42-.06.5,0s.11.25.22.25c0-.22-.07-.14.05-.29a1.3,1.3,0,0,1,.18-.23.53.53,0,0,1,.35-.13v0c.05,0,.07,0,.09,0h0c.08.14.28,0,.34-.05a.21.21,0,0,0,.13-.24.67.67,0,0,0,0-.28h0l-.06-.17h0v-.1h0a1.83,1.83,0,0,1-.07-.45h0c0-.15-.12-.29,0-.42a.29.29,0,0,0-.12-.18c-.33,0-.13-.12-.27-.32v0c-.16-.15,0-.26.08-.38l0-.12,0,0c-.06-.08-.15-.07-.18-.14s.17-.26.2-.32-.11-.1-.2-.2.13-.28.18-.45-.14-.36.07-.41l0,0v0c.17,0,.17-.15.24-.25l0-.11v0c0-.08,0-.29.16-.21s.25-.13.19-.24.17-.1.3-.1.22-.26.31-.32.16-.23.24-.13a.84.84,0,0,0,.2.08v0l.27,0c0-.08.17-.53.3-.18s.33-.08.48-.15l.08.07.07.2,0,0c.11.19.36.09.53,0a.7.7,0,0,0,.3.45c.15.07.35,0,.37.25h0c.07.31.41.2.35.55h0a.34.34,0,0,0,.31.33c.05.17-.11.26-.11.39s.22.26.21.5m-7.09,1h0q0,.08,0,0m1.42-3.68,0,0s0,0,0,0m.73,4.54h0s0,0,0-.06,0,0,0,.06m2.24,5.31c0,.32-.28.11-.1,0s.05,0,.1,0m.07.5c.25.44-.33.12-.16-.06v0c.06,0,.11.07.17.08m.16-1.23c-.08.17-.2.32-.3.52-.06-.12.2-.74.3-.52m.3.57c.11.05.17.17,0,.24s-.29-.24,0-.24m4.11-2.14c0,.7-.63-.14-.15-.08a.28.28,0,0,1,.15.08"/></g></g></svg>