<?xml version="1.0" encoding="utf-8"?>
<!-- Generator: Adobe Illustrator 23.0.1, SVG Export Plug-In . SVG Version: 6.00 Build 0)  -->
<svg version="1.1" id="Layer_1" xmlns="http://www.w3.org/2000/svg" xmlns:xlink="http://www.w3.org/1999/xlink" x="0px" y="0px"
	 viewBox="0 0 95 91.1" style="enable-background:new 0 0 95 91.1;" xml:space="preserve">
<style type="text/css">
	.st0{fill:#010101;}
</style>
<title>Asset 76</title>
<g>
	<g id="Layer_1-2">
		<path class="st0" d="M80.7,89.1c-0.1,0.1-0.1,0.4,0.1,0.4h0.1c0.1-0.1,0.1-0.3,0-0.4H80.7z"/>
		<path class="st0" d="M77.3,90.7c0.1-0.1,0.1-0.3,0-0.4C76.6,90.1,76.9,90.9,77.3,90.7z"/>
		<path class="st0" d="M78.9,91.1H79c0-0.1,0-0.2,0-0.3c-0.1,0-0.1,0-0.2,0L78.9,91.1z"/>
		<path class="st0" d="M22.3,0.2c0-0.1,0-0.2-0.1-0.1S22.3,0.3,22.3,0.2z"/>
		<rect x="18.1" y="0.2" class="st0" width="0.1" height="0.1"/>
		<path class="st0" d="M37.9,1.2c-0.3,0.1-0.3,0.8,0,1C38.3,2,38.2,1.4,37.9,1.2z"/>
		<path class="st0" d="M54,15.3L54,15.3v0.2C54.1,15.5,54.2,15.2,54,15.3z"/>
		<path class="st0" d="M68.5,17.2c-0.2,0-0.2,0.2-0.3,0.4C68.4,17.6,68.5,17.4,68.5,17.2z"/>
		<path class="st0" d="M50.5,18.8c0-0.1,0.2-0.4-0.1-0.3C50.5,18.7,50.3,18.8,50.5,18.8z"/>
		<path class="st0" d="M31.7,20c0,0.1,0,0.2,0.1,0.2C31.8,20.2,31.9,20,31.7,20z"/>
		<path class="st0" d="M43.5,20.3c0,0.1,0,0.2,0,0.1S43.5,20.2,43.5,20.3z"/>
		<path class="st0" d="M21,23.1c0.5-0.7-0.9-0.8-0.3,0H21z"/>
		<path class="st0" d="M33.9,23.6c0.2-0.2,0.3-0.8,0-0.9c-0.2,0.2-0.3,0.6-0.2,0.9C33.8,23.5,33.9,23.5,33.9,23.6z"/>
		<path class="st0" d="M52.4,23c-0.1-0.1-0.2,0.2-0.1,0.2L52.4,23z"/>
		<path class="st0" d="M17.1,25.9c0.1-0.2,0-0.6-0.3-0.7c-0.1,0.2,0,0.5,0.2,0.6C17,25.9,17,25.9,17.1,25.9z"/>
		<path class="st0" d="M10.1,25.7c0-0.1-0.1-0.3-0.2-0.2C10.1,25.6,10,25.7,10.1,25.7z"/>
		<path class="st0" d="M33.8,26.9c0-0.3-0.1-0.5-0.2-0.8c-0.5,0-0.4,0.5-0.8,0.4c-0.2,0.2-0.1,0.5,0.1,0.7
			C33.1,27,33.5,26.9,33.8,26.9z"/>
		<path class="st0" d="M31.6,26.3v0.3C31.8,26.7,31.8,26.2,31.6,26.3z"/>
		<path class="st0" d="M42.9,27.1c0-0.1,0.1-0.1,0.1-0.3h-0.2C42.8,27,42.8,27.1,42.9,27.1z"/>
		<path class="st0" d="M28.3,28.1c0.3,0,0.2-0.5,0-0.6h-0.2C28.1,27.6,28,28.1,28.3,28.1z"/>
		<rect x="23.3" y="27.6" class="st0" width="0.1" height="0.3"/>
		<path class="st0" d="M31.4,27.8l0.1,0c0-0.1,0-0.2-0.1-0.2V27.8z"/>
		<path class="st0" d="M46.2,27.8c-0.2,0-0.3,0-0.2,0.2C46.1,28,46.2,28,46.2,27.8z"/>
		<path class="st0" d="M23.4,28.8c0.3-0.2,0.2-1.1-0.4-0.9C22.7,28.2,22.9,28.8,23.4,28.8z"/>
		<path class="st0" d="M30.8,27.9c0,0.1-0.1,0.1-0.1,0.2h0.2C31,27.9,30.8,27.9,30.8,27.9z"/>
		<path class="st0" d="M32.2,28.6c0.2-0.1,0.2-0.7-0.2-0.7C32,28.1,32,28.5,32.2,28.6z"/>
		<path class="st0" d="M29,28.9c0.2-0.3,0.1-0.6-0.2-0.8C28.6,28.3,28.5,29,29,28.9z"/>
		<path class="st0" d="M56.5,28.3c-0.2,0-0.2,0.2-0.3,0.4C56.5,28.7,56.6,28.5,56.5,28.3z"/>
		<path class="st0" d="M26.6,29.6c0-0.1,0-0.3-0.1-0.3S26.4,29.6,26.6,29.6z"/>
		<path class="st0" d="M32.5,29.9c0-0.2,0-0.4-0.1-0.4S32.2,29.9,32.5,29.9z"/>
		<path class="st0" d="M27.6,29.8c-0.1,0.1,0,0.2,0,0.3C27.8,30.2,27.8,29.7,27.6,29.8z"/>
		<path class="st0" d="M26.6,30.4V30h-0.2C26.3,30.1,26.4,30.4,26.6,30.4z"/>
		<path class="st0" d="M27.5,31.5c0-0.2,0.1-0.2,0-0.3h-0.2C27.3,31.4,27.3,31.5,27.5,31.5z"/>
		<path class="st0" d="M30.9,31.7c-0.1,0.3,0,0.7,0.3,0.9c0.2-0.1,0.5-0.1,0.7-0.2C32.2,31.7,31.3,31.5,30.9,31.7z"/>
		<path class="st0" d="M26.3,31.8c-0.1,0.1-0.1,0.2,0,0.2S26.5,31.9,26.3,31.8z"/>
		<path class="st0" d="M17,32.9c0.1-0.3,0.1-0.6-0.2-0.7h-0.1C16.6,32.7,16.9,32.8,17,32.9z"/>
		<path class="st0" d="M25.4,32.7c0-0.1,0-0.3-0.1-0.3S25.2,32.8,25.4,32.7z"/>
		<path class="st0" d="M41.4,32.9c0,0,0.1-0.2,0-0.2C41.4,32.8,41.2,32.9,41.4,32.9z"/>
		<path class="st0" d="M33.6,33c0,0.1,0,0.3,0.1,0.3S33.8,33,33.6,33z"/>
		<path class="st0" d="M33.9,33.2c-0.1,0-0.1,0.1-0.2,0.1c-0.1,0.2-0.1,0.8,0.3,0.7C34.2,33.5,34.1,33.4,33.9,33.2z"/>
		<path class="st0" d="M26.3,33.6c0,0.1-0.1,0.3,0.1,0.2C26.5,33.7,26.4,33.6,26.3,33.6z"/>
		<path class="st0" d="M28.5,33.7h-0.2c-0.1,0.1,0,0.3,0.1,0.3c0,0,0,0,0,0C28.5,34,28.5,33.8,28.5,33.7z"/>
		<path class="st0" d="M33.5,34.5c0.3,0,0.4-0.2,0.3-0.4h-0.1v-0.1v-0.2h-0.2C33.4,34.1,33.3,34.4,33.5,34.5z"/>
		<path class="st0" d="M26.1,34v0.2C26.3,34.2,26.2,34,26.1,34z"/>
		<path class="st0" d="M34.7,34.3c0,0.1-0.1,0.1-0.1,0.2C34.8,34.5,34.8,34.3,34.7,34.3z"/>
		<path class="st0" d="M21.3,34.4c-0.1,0.1,0,0.1,0,0.2c0,0,0.1,0,0.1,0C21.5,34.5,21.4,34.4,21.3,34.4z"/>
		<path class="st0" d="M27.2,34.8c0.1,0,0-0.3-0.1-0.3S27,34.8,27.2,34.8z"/>
		<path class="st0" d="M75.6,34.8c-0.2,0-0.3,0.1-0.4,0.2C75.4,35,75.6,35,75.6,34.8z"/>
		<path class="st0" d="M39.3,35.3c0-0.2,0-0.3-0.2-0.3s-0.2,0.3-0.1,0.4S39.2,35.2,39.3,35.3z"/>
		<path class="st0" d="M25.9,35.6c0.1-0.1,0-0.4-0.1-0.4l-0.2,0.2C25.6,35.5,25.7,35.6,25.9,35.6z"/>
		<path class="st0" d="M20.1,35.2c0,0.2,0,0.2,0.2,0.2S20.1,35.2,20.1,35.2z"/>
		<rect x="48.7" y="35.6" class="st0" width="0.1" height="0.2"/>
		<path class="st0" d="M14.6,36c0-0.2,0-0.3-0.2-0.3S14.4,36,14.6,36z"/>
		<rect x="25.7" y="35.7" class="st0" width="0.1" height="0.2"/>
		<path class="st0" d="M46.1,35.7c-0.4,0-0.6,0.5-0.4,0.8C46,36.5,46.2,36,46.1,35.7z"/>
		<path class="st0" d="M24.7,35.9v0.2C24.9,36.2,24.9,35.8,24.7,35.9z"/>
		<path class="st0" d="M37.8,36.2c0-0.2,0-0.3-0.1-0.3S37.7,36.3,37.8,36.2z"/>
		<path class="st0" d="M30.1,36L30,36.1c0,0.2,0.1,0.3,0.3,0.3C30.3,36.3,30.3,36.1,30.1,36C30.2,36,30.2,36,30.1,36z"/>
		<path class="st0" d="M21.3,36.2l0.1,0.1c0-0.1,0-0.2-0.1-0.2V36.2z"/>
		<path class="st0" d="M40.1,36.6c0.1-0.1,0.1-0.3-0.1-0.3S39.9,36.6,40.1,36.6z"/>
		<path class="st0" d="M49.4,36.4c0,0.2-0.2,0-0.2,0.2S49.6,36.5,49.4,36.4z"/>
		<path class="st0" d="M19.1,36.6L19,36.5C18.9,36.6,19.1,36.8,19.1,36.6z"/>
		<path class="st0" d="M40,37.1c-0.1-0.3,0.2-0.2,0.2-0.4C39.9,36.6,39.6,37,40,37.1z"/>
		<path class="st0" d="M28.1,37.2c0-0.1,0-0.2,0.1-0.2C28,36.9,28,37.2,28.1,37.2z"/>
		<path class="st0" d="M50.4,37c0,0.1-0.1,0.1,0,0.2S50.5,37,50.4,37z"/>
		<path class="st0" d="M52.5,37c-0.1,0.1-0.3,0.1-0.3,0.3C52.4,37.3,52.6,37.1,52.5,37z"/>
		<path class="st0" d="M46.6,37.2c-0.2-0.2-0.4,0.3-0.3,0.4S46.5,37.4,46.6,37.2z"/>
		<path class="st0" d="M30.1,38c0.7-0.7-0.7-1-0.5-0.2C29.7,37.9,29.8,38,30.1,38z"/>
		<rect x="33.8" y="37.3" class="st0" width="0.1" height="0.1"/>
		<path class="st0" d="M27,37.8L27,37.8L26.9,38C27,38,27,37.8,27,37.8z"/>
		<path class="st0" d="M15.3,38.2c0-0.1,0-0.1-0.1-0.2C15.1,38.1,15.2,38.2,15.3,38.2z"/>
		<path class="st0" d="M15.9,38.5c0-0.2,0-0.3-0.2-0.3C15.6,38.4,15.7,38.5,15.9,38.5z"/>
		<path class="st0" d="M75.1,38.3c-0.2,0-0.3,0.1-0.4,0.2C74.8,38.5,75,38.5,75.1,38.3z"/>
		<path class="st0" d="M50.1,38.3c-0.2,0-0.3,0.2-0.2,0.3S50.2,38.5,50.1,38.3z"/>
		<path class="st0" d="M27.7,38.5c-0.1,0,0-0.1,0-0.2C27.4,38.3,27.5,38.8,27.7,38.5z"/>
		<path class="st0" d="M34,38.6c-0.3-0.2-0.4,0.2-0.3,0.4C34,39,34.1,38.8,34,38.6z"/>
		<rect x="15" y="38.7" class="st0" width="0.1" height="0.1"/>
		<path class="st0" d="M21.4,39.1c0.1-0.1,0-0.2-0.1-0.3S21.3,39.1,21.4,39.1z"/>
		<path class="st0" d="M42.6,39c0-0.1,0.1-0.1,0.1-0.2C42.5,38.8,42.4,39,42.6,39z"/>
		<polygon class="st0" points="36.4,38.9 36.3,38.9 36.3,39 36.4,39 		"/>
		<path class="st0" d="M15.3,39.7c0-0.2-0.1-0.3-0.2-0.5h-0.3C14.8,39.5,15,39.8,15.3,39.7z"/>
		<path class="st0" d="M37.9,39.2h-0.2c0,0.2,0.1,0.4,0.2,0.2l-0.1,0C37.9,39.3,37.9,39.3,37.9,39.2z"/>
		<path class="st0" d="M40.7,39.2v0.2C40.8,39.5,40.8,39.1,40.7,39.2z"/>
		<path class="st0" d="M64.8,39.3c0.1,0,0.2,0,0.2-0.1S64.9,39.2,64.8,39.3z"/>
		<path class="st0" d="M46.5,39.3c-0.1,0.1-0.1,0.2-0.1,0.3c0.1,0,0.2-0.1,0.2-0.2c0,0,0,0,0,0L46.5,39.3z"/>
		<rect x="26.8" y="39.5" class="st0" width="0.1" height="0.2"/>
		<path class="st0" d="M50.1,39.9c0.2,0,0.2-0.1,0.2-0.3C50.2,39.6,50.1,39.7,50.1,39.9C50.1,39.8,50.1,39.8,50.1,39.9z"/>
		<path class="st0" d="M6.5,40.2H6.3C6.3,40.2,6.5,40.3,6.5,40.2z"/>
		<path class="st0" d="M17.3,40.3c0-0.1,0-0.1-0.1-0.1L17.3,40.3L17.3,40.3z"/>
		<path class="st0" d="M44.6,41.4L44.6,41.4L44.6,41.4c0.2-0.3,0.3-0.5,0.4-0.7h0.1c0-0.2-0.1-0.4-0.3-0.5c0,0,0,0,0,0
			C44.3,40.2,44,41.2,44.6,41.4z"/>
		<path class="st0" d="M45.1,41.8c-0.1-0.1-0.2-0.1-0.3-0.2v0.1h-0.1c0,0.4-0.3,0.7,0,1C45,42.6,45.1,42.2,45.1,41.8z"/>
		<path class="st0" d="M40.9,40.4c-0.1,0,0-0.2-0.2-0.2s-0.4,0.2-0.3,0.5C40.8,40.8,40.8,40.6,40.9,40.4z"/>
		<path class="st0" d="M19.5,40.5c0.1,0,0.1,0.1,0.3,0.1C19.8,40.3,19.5,40.3,19.5,40.5z"/>
		<rect x="34.4" y="40.4" class="st0" width="0.1" height="0.1"/>
		<path class="st0" d="M23.4,40.4c0,0.1,0,0.2,0.1,0.2c0.1-0.1,0-0.1,0-0.2C23.4,40.4,23.4,40.4,23.4,40.4z"/>
		<path class="st0" d="M22.5,41v-0.4h-0.2C22.2,40.7,22.2,41,22.5,41z"/>
		<path class="st0" d="M48.8,40.5c-0.1,0-0.2,0.1-0.1,0.2S48.8,40.7,48.8,40.5z"/>
		<path class="st0" d="M24.9,40.9c0.1-0.1,0.1-0.4-0.2-0.3c0,0.1-0.1,0.2,0,0.3H24.9z"/>
		<path class="st0" d="M18.6,40.9V41l0.1,0C18.7,41,18.7,40.8,18.6,40.9z"/>
		<path class="st0" d="M57.7,41c-0.1,0-0.3,0-0.3,0.2C57.5,41.2,57.7,41.1,57.7,41z"/>
		<path class="st0" d="M16.6,41.4c0-0.1,0-0.3-0.2-0.2S16.4,41.4,16.6,41.4z"/>
		<path class="st0" d="M22.5,41.2c0,0.2-0.1,0.1-0.1,0.3s0.1,0.2,0.3,0.2C22.5,41.5,22.7,41.2,22.5,41.2z"/>
		<path class="st0" d="M53.6,41.2c-0.2,0-0.1,0.1-0.2,0.2C53.5,41.4,53.5,41.3,53.6,41.2z"/>
		<path class="st0" d="M62.7,41.2c-0.2,0-0.3,0.1-0.3,0.2C62.6,41.5,62.6,41.4,62.7,41.2z"/>
		<path class="st0" d="M34.6,41.5c0-0.1,0-0.1-0.1-0.2C34.4,41.4,34.4,41.5,34.6,41.5z"/>
		<path class="st0" d="M39,41.5c-0.5-0.6-0.5,0.7-1.2,0.7c0-0.2-0.1-0.2-0.3-0.2c-0.1,0.2-0.1,0.3-0.1,0.5c0.4,0.2,0.6,0.6,1,0.5
			C39.3,42.9,38.8,42.1,39,41.5z"/>
		<path class="st0" d="M33.3,41.5c0-0.1,0-0.1-0.1-0.1L33.3,41.5L33.3,41.5z"/>
		<path class="st0" d="M33.4,41.4c-0.1,0.1-0.2,0.5,0.2,0.4C33.6,41.6,33.5,41.5,33.4,41.4z"/>
		<path class="st0" d="M15.8,41.5c0.1,0,0.1,0.2,0.2,0.1C16.2,41.6,15.8,41.4,15.8,41.5z"/>
		<path class="st0" d="M10.9,41.8c0-0.2-0.1-0.3-0.2-0.2S10.7,41.8,10.9,41.8z"/>
		<path class="st0" d="M27.2,41.6c-0.2,0-0.1,0.1-0.1,0.2C27.3,41.8,27.2,41.7,27.2,41.6z"/>
		<rect x="21.8" y="41.7" class="st0" width="0.1" height="0.1"/>
		<path class="st0" d="M35.7,41.7v0.2h0.1C35.8,41.8,35.8,41.7,35.7,41.7z"/>
		<path class="st0" d="M47.4,42c0.2,0,0.4-0.1,0.4-0.3c0,0,0,0,0,0c-0.1-0.1-0.3,0-0.4,0.1C47.4,41.9,47.4,41.9,47.4,42z"/>
		<path class="st0" d="M14.1,42c0-0.1,0-0.2-0.2-0.2S13.9,42,14.1,42z"/>
		<path class="st0" d="M21.1,41.9l0.2,0.1c0-0.1,0-0.1-0.1-0.2L21.1,41.9z"/>
		<path class="st0" d="M27.8,42v-0.1C27.7,41.7,27.6,42,27.8,42z"/>
		<path class="st0" d="M27.4,42c0-0.1,0-0.1-0.1-0.2C27.3,41.9,27.3,42,27.4,42z"/>
		<path class="st0" d="M47.8,42.2c0.1,0,0.2,0,0.3,0V42C47.8,41.9,47.8,42.1,47.8,42.2z"/>
		<path class="st0" d="M20.8,42.1c0,0.2,0.1,0.4,0.3,0.4s0-0.3-0.1-0.5C21,42,20.9,42,20.8,42.1z"/>
		<path class="st0" d="M25.8,42.3c0.1-0.1,0.1-0.2,0-0.2c0,0-0.1-0.1-0.1-0.1C25.7,42.2,25.7,42.3,25.8,42.3z"/>
		<path class="st0" d="M19.8,42.6c0.1,0,0.2-0.2,0.2-0.3s-0.2-0.1-0.3-0.1C19.7,42.4,19.8,42.4,19.8,42.6z"/>
		<path class="st0" d="M18.7,42.5c0,0.2,0.3,0.4,0.7,0.3C19.6,42.2,18.6,41.9,18.7,42.5z"/>
		<polygon class="st0" points="24.7,42.3 24.9,42.4 24.9,42.3 24.8,42.2 		"/>
		<path class="st0" d="M22.8,42.3h-0.2C22.5,42.5,22.8,42.5,22.8,42.3z"/>
		<path class="st0" d="M25.7,42.6c0-0.2,0-0.2-0.2-0.2S25.5,42.6,25.7,42.6z"/>
		<path class="st0" d="M29.4,43.8c-0.1-0.3,0-0.7,0.2-1c-0.2-0.5-0.6-0.4-1.2-0.4c0,0.5,0.1,1.2,0.1,1.7
			C28.8,44.2,29.1,44.1,29.4,43.8z"/>
		<path class="st0" d="M36.4,42.5c0.1,0.1,0.2-0.2,0.1-0.2l-0.1,0.1V42.5z"/>
		<path class="st0" d="M17.9,42.7l0.2-0.1c0-0.2-0.1-0.2-0.2-0.3C17.9,42.5,17.8,42.7,17.9,42.7z"/>
		<rect x="34.1" y="42.5" class="st0" width="0.2" height="0.4"/>
		<path class="st0" d="M47.4,42.8c0.1,0,0.2,0,0.3-0.1c0-0.1,0-0.2-0.1-0.2S47.3,42.6,47.4,42.8z"/>
		<path class="st0" d="M18.5,42.7h0.2c0-0.1,0-0.2-0.2-0.2V42.7z"/>
		<path class="st0" d="M34.8,42.6c-0.1,0.2-0.2,0.4,0,0.5C35,43,35,42.6,34.8,42.6z"/>
		<path class="st0" d="M10.3,42.9c0-0.2,0-0.3-0.2-0.2C10.1,42.8,10.2,42.9,10.3,42.9C10.3,42.9,10.3,42.9,10.3,42.9z"/>
		<path class="st0" d="M20.7,43c0-0.1,0-0.2-0.2-0.2S20.5,43,20.7,43z"/>
		<path class="st0" d="M37,43.7c0.2-0.1,0.4-0.2,0.4-0.5c0.2,0,0.2,0.1,0.3,0c0-0.1,0-0.3-0.1-0.4C37.1,42.8,36.4,43.5,37,43.7z"/>
		<path class="st0" d="M15.5,42.9L15.4,43h0.2C15.6,43,15.5,42.9,15.5,42.9z"/>
		<path class="st0" d="M32.7,42.9l0.1,0.2h0C32.8,43,32.8,42.9,32.7,42.9z"/>
		<path class="st0" d="M21,43.5c0.1-0.1,0.1-0.3-0.1-0.4c-0.1,0-0.1-0.1-0.2-0.1C20.8,43.2,20.8,43.4,21,43.5z"/>
		<path class="st0" d="M29.6,43c0,0.1-0.1,0.1,0,0.2h0.2C29.7,43.1,29.8,42.9,29.6,43z"/>
		<path class="st0" d="M35.9,43.2c0-0.2,0-0.3-0.2-0.2C35.7,43.1,35.7,43.3,35.9,43.2z"/>
		<path class="st0" d="M19.6,43.2v0.1l0.1,0.1C19.7,43.3,19.7,43.2,19.6,43.2z"/>
		<path class="st0" d="M35.4,44c0.3,0,0.4-0.5,0-0.7c-0.2,0-0.4,0.1-0.4,0.3c0,0.2,0.1,0.4,0.3,0.4C35.3,44,35.4,44,35.4,44z"/>
		<path class="st0" d="M29.9,43.3v0.1l0.1,0.1C30,43.4,30,43.3,29.9,43.3z"/>
		<path class="st0" d="M14.4,43.5c0.1,0,0.1,0,0.2-0.1C14.5,43.3,14.5,43.4,14.4,43.5z"/>
		<rect x="25.8" y="43.3" class="st0" width="0.1" height="0.1"/>
		<path class="st0" d="M29.5,43.3L29.5,43.3l-0.1,0.1C29.6,43.6,29.6,43.3,29.5,43.3z"/>
		<path class="st0" d="M44.4,43.4c-0.2,0-0.2,0.1-0.2,0.2C44.3,43.6,44.4,43.5,44.4,43.4z"/>
		<path class="st0" d="M21.6,43.5v0.3c0.1,0,0.2,0,0.3,0C21.9,43.5,21.8,43.4,21.6,43.5z"/>
		<path class="st0" d="M16.4,43.7v-0.2l-0.2,0.1C16.3,43.6,16.3,43.7,16.4,43.7z"/>
		<path class="st0" d="M27.4,43.6c0.1,0,0.1,0,0.2-0.1C27.5,43.5,27.5,43.5,27.4,43.6z"/>
		<path class="st0" d="M27,43.7v0.2h0.2C27.2,43.8,27.1,43.7,27,43.7z"/>
		<rect x="24.9" y="43.7" class="st0" width="0.1" height="0.1"/>
		<path class="st0" d="M21.2,44.5c0.2-0.4-0.2-0.8-0.5-0.5C20.6,44.3,20.8,44.5,21.2,44.5z"/>
		<path class="st0" d="M19.5,44.1c0.1-0.1,0-0.3-0.2-0.2C19.3,44,19.4,44.1,19.5,44.1z"/>
		<path class="st0" d="M16,44h-0.1l-0.1,0.1C15.9,44.1,16,44.1,16,44z"/>
		<path class="st0" d="M18.8,44c0,0.2,0,0.3,0.2,0.3S19,43.9,18.8,44z"/>
		<path class="st0" d="M24.1,44c-0.1,0.2-0.1,0.6,0.3,0.5c0.1-0.1,0.1-0.3,0-0.4C24.3,44,24.2,44,24.1,44z"/>
		<path class="st0" d="M38.5,44.5c0-0.1,0.1-0.2,0-0.2S38.2,44.5,38.5,44.5z"/>
		<path class="st0" d="M26,44.6v-0.2h-0.2C25.8,44.5,25.8,44.6,26,44.6z"/>
		<path class="st0" d="M32.6,44.4l-0.1,0.1c0,0.1,0,0.2,0.1,0.3h0.2C32.9,44.6,32.8,44.5,32.6,44.4z"/>
		<path class="st0" d="M44.5,44.5c0,0.1-0.2,0.2,0,0.3S44.7,44.5,44.5,44.5z"/>
		<path class="st0" d="M1.3,44.5c0,0.2,0.1,0.2,0.2,0.2S1.4,44.5,1.3,44.5z"/>
		<path class="st0" d="M33.5,44.8c0.2-0.1,0.2-0.4-0.1-0.3C33.3,44.6,33.3,44.9,33.5,44.8z"/>
		<path class="st0" d="M26.2,44.6l-0.1,0.1h0.2C26.3,44.6,26.3,44.6,26.2,44.6z"/>
		<path class="st0" d="M39.3,45l0.2-0.1c0.1-0.4-0.4-0.4-0.4,0C39.2,45,39.1,45.1,39.3,45z"/>
		<path class="st0" d="M35.1,44.7h-0.2c-0.2,0.4,0,1-0.3,1.3c0.2,0.1,0.5-0.1,0.6,0.2c0-0.2,0.2-0.4,0.2-0.6
			C35.2,45.3,35.1,45,35.1,44.7z"/>
		<path class="st0" d="M20,44.9h0.2c0-0.1,0-0.2-0.2-0.2V44.9z"/>
		<path class="st0" d="M21.8,44.9c0-0.1,0-0.2-0.2-0.2S21.6,45,21.8,44.9z"/>
		<path class="st0" d="M24.4,44.9v-0.2h-0.2C24.2,44.9,24.2,45,24.4,44.9z"/>
		<rect x="24.5" y="44.8" class="st0" width="0.1" height="0.1"/>
		<polygon class="st0" points="37.6,44.8 37.5,44.8 37.5,45 37.6,45 		"/>
		<path class="st0" d="M32.5,45v0.2C32.6,45.3,32.6,44.9,32.5,45z"/>
		<path class="st0" d="M32.8,45.5L32.8,45.5L32.8,45.5c0.3-0.2,0.2,0,0.4,0c0-0.3-0.2-0.3-0.3-0.4C32.7,45.2,32.5,45.5,32.8,45.5
			L32.8,45.5z"/>
		<path class="st0" d="M15.9,45.3l0.2,0.1C16.1,45.3,16,45.2,15.9,45.3z"/>
		<rect x="19.2" y="45.3" class="st0" width="0.1" height="0.1"/>
		<path class="st0" d="M20.9,45.4c0-0.1,0-0.2-0.2-0.2S20.8,45.5,20.9,45.4z"/>
		<path class="st0" d="M33.6,45.3v0.2C33.8,45.5,33.8,45.2,33.6,45.3z"/>
		<path class="st0" d="M19.8,45.4c-0.1,0.3,0.1,0.5,0.3,0.4C20.1,45.6,20,45.4,19.8,45.4C19.8,45.4,19.8,45.4,19.8,45.4z"/>
		<polygon class="st0" points="22,45.4 21.8,45.4 22,45.5 		"/>
		<path class="st0" d="M23.8,45.7c0.1-0.1,0.1-0.2,0.1-0.3c-0.1,0-0.2,0-0.2,0.1C23.6,45.6,23.7,45.6,23.8,45.7z"/>
		<path class="st0" d="M45.1,45.4c-0.2,0-0.3,0.1-0.4,0.2c0,0,0,0,0,0C44.9,45.8,45.1,45.6,45.1,45.4z"/>
		<path class="st0" d="M0.2,45.5c0,0-0.2-0.1-0.2,0S0.2,45.6,0.2,45.5z"/>
		<path class="st0" d="M24.6,45.5c-0.1,0.1-0.1,0.2-0.1,0.3c0,0.1,0.1,0.1,0.2,0.1C24.8,45.8,24.7,45.6,24.6,45.5
			C24.6,45.5,24.6,45.5,24.6,45.5z"/>
		<path class="st0" d="M42.2,46c0.1,0,0.2-0.1,0.3-0.1v-0.3c-0.2,0-0.3,0.1-0.3,0.2C42.1,45.9,42.1,45.9,42.2,46z"/>
		<path class="st0" d="M46.6,46.8c0.3,0,0.4-0.3,0.6-0.5c0.3,0.1,0.6-0.1,0.7-0.4c0,0,0-0.1,0-0.1c-0.2,0-0.3,0-0.5,0.1
			s0-0.3-0.2-0.3C46.9,45.8,46.3,46.2,46.6,46.8z"/>
		<path class="st0" d="M18.1,45.8c0-0.1,0-0.1-0.1-0.1L18.1,45.8L18.1,45.8z"/>
		<path class="st0" d="M39.6,45.8l0.1,0.2C39.6,46,39.8,45.7,39.6,45.8z"/>
		<path class="st0" d="M18.1,45.9c-0.1,0-0.2-0.2-0.2,0C17.9,46,18.1,46.1,18.1,45.9z"/>
		<rect x="28.2" y="46" class="st0" width="0.1" height="0.1"/>
		<rect x="38" y="46" class="st0" width="0.1" height="0.1"/>
		<path class="st0" d="M24.5,46l0.1,0.2C24.6,46.1,24.7,46.1,24.5,46z"/>
		<rect x="15.4" y="46.3" class="st0" width="0.1" height="0.1"/>
		<rect x="23" y="46.3" class="st0" width="0.1" height="0.1"/>
		<path class="st0" d="M28.8,46.5c0.2,0,0.2-0.1,0.3-0.2c-0.1,0-0.1-0.1-0.3,0V46.5z"/>
		<rect x="41.2" y="46.3" class="st0" width="0.1" height="0.1"/>
		<path class="st0" d="M44.2,46.3c-0.3-0.1-0.5,0.2-0.4,0.4C44,46.7,44.2,46.6,44.2,46.3z"/>
		<path class="st0" d="M24.6,46.4c-0.1,0-0.2,0-0.2,0.2C24.5,46.5,24.6,46.5,24.6,46.4z"/>
		<path class="st0" d="M29.5,46.4h-0.2c-0.1,0,0,0.3-0.1,0.3c-0.2-0.1-0.4-0.1-0.6,0c0,0.2,0,0.3,0,0.4c0.2-0.1,0.2,0.2,0.3,0.2
			s0.1-0.5,0.4-0.3C29.4,46.8,29.7,46.7,29.5,46.4z"/>
		<path class="st0" d="M37.4,46.5l0.1,0.1c0-0.1,0-0.2-0.1-0.2V46.5z"/>
		<rect x="20.4" y="46.7" class="st0" width="0.1" height="0.1"/>
		<path class="st0" d="M22.9,46.7c0,0.1,0,0.2,0.2,0.2S23,46.6,22.9,46.7z"/>
		<path class="st0" d="M43.9,47.5c-0.1,0-0.2,0.1-0.4,0s-0.1,0.4-0.3,0.5c0.2,0,0.2,0.2,0.4,0.1c0.1-0.2,0.2-0.4,0.4-0.5h-0.1
			L43.9,47.5z"/>
		<path class="st0" d="M20.2,46.9c0-0.1,0-0.1-0.1-0.2C20,46.8,20.1,46.9,20.2,46.9z"/>
		<path class="st0" d="M35.3,46.8c0,0-0.1,0.2,0,0.2C35.3,46.9,35.5,46.8,35.3,46.8z"/>
		<path class="st0" d="M37.1,47.2c0.3,0.1,0.3-0.4,0-0.3C37.1,46.9,37,47,37.1,47.2z"/>
		<rect x="42.7" y="46.9" class="st0" width="0.1" height="0.1"/>
		<rect x="33.9" y="47" class="st0" width="0.1" height="0.1"/>
		<path class="st0" d="M44.6,47c-0.1,0-0.2,0-0.2,0.1C44.3,47.3,44.6,47.2,44.6,47z"/>
		<path class="st0" d="M15.8,47.2l-0.2-0.1c0,0.1,0,0.2,0.1,0.3S15.8,47.3,15.8,47.2z"/>
		<path class="st0" d="M22.8,47.5c0.1,0.1,0.1-0.2,0.1-0.2S22.8,47.4,22.8,47.5z"/>
		<path class="st0" d="M16.4,47.4v0.2h0.3c0-0.1-0.1-0.3-0.2-0.3L16.4,47.4z"/>
		<path class="st0" d="M29.4,47.6c0.1,0,0.2,0,0.2-0.1c0-0.1-0.1-0.2-0.2-0.2C29.5,47.5,29.3,47.4,29.4,47.6z"/>
		<path class="st0" d="M22.9,47.5v0.2C23.1,47.8,23.1,47.5,22.9,47.5z"/>
		<rect x="25.1" y="47.5" class="st0" width="0.1" height="0.1"/>
		<path class="st0" d="M51.7,47.6l-0.2-0.1C51.4,47.7,51.7,47.7,51.7,47.6z"/>
		<rect x="24.7" y="47.8" class="st0" width="0.1" height="0.1"/>
		<path class="st0" d="M44.4,48C44.4,48.3,44.7,47.7,44.4,48z"/>
		<path class="st0" d="M53.4,47.9c-0.1,0-0.2,0.1-0.2,0.2S53.4,48.1,53.4,47.9z"/>
		<path class="st0" d="M19.8,48.1c0,0.1,0,0.1,0.1,0.2C20,48.2,19.9,48.1,19.8,48.1z"/>
		<path class="st0" d="M20.2,48.2c-0.1,0.2,0.2,0.4,0.3,0.2C20.3,48.3,20.3,48.2,20.2,48.2z"/>
		<rect x="23.3" y="48.3" transform="matrix(0.4501 -0.893 0.893 0.4501 -30.3438 47.4921)" class="st0" width="0.1" height="0.1"/>
		<path class="st0" d="M24,48.4c-0.1,0-0.2-0.1-0.3,0.1S24,48.5,24,48.4z"/>
		<path class="st0" d="M44.2,48.3c-0.1,0-0.1,0-0.2,0.1C44.1,48.4,44.2,48.4,44.2,48.3z"/>
		<path class="st0" d="M55.2,48.4c-0.2-0.1-0.5,0-0.4,0.2C54.9,48.7,55.2,48.6,55.2,48.4z"/>
		<path class="st0" d="M6.8,48.8c0-0.2-0.1-0.1-0.2-0.2C6.6,48.7,6.7,48.8,6.8,48.8z"/>
		<path class="st0" d="M18.6,48.9h0.2C18.8,48.7,18.6,48.7,18.6,48.9z"/>
		<path class="st0" d="M34,49.1c0-0.1,0.1-0.1,0-0.2S34,49,34,49.1z"/>
		<rect x="35.3" y="49.1" class="st0" width="0.1" height="0.1"/>
		<path class="st0" d="M18.7,49.2c-0.1,0.1,0.1,0.5,0.2,0.3C18.7,49.5,18.9,49.2,18.7,49.2z"/>
		<path class="st0" d="M19.2,49.6c0.2,0,0.1,0.1,0.4,0.2c0-0.1,0.1-0.1,0.1-0.2S19.3,49.4,19.2,49.6z"/>
		<path class="st0" d="M11.9,49.4c0,0.2,0.1,0.2,0.2,0.2C12.1,49.5,12,49.4,11.9,49.4z"/>
		<rect x="17.8" y="49.4" class="st0" width="0.1" height="0.1"/>
		<path class="st0" d="M16.7,49.5c0,0.1,0,0.1,0.1,0.2C16.8,49.6,16.8,49.5,16.7,49.5z"/>
		<path class="st0" d="M18.4,49.5c0,0.1,0,0.2,0.1,0.2c0.1-0.1,0-0.1,0-0.2C18.4,49.5,18.4,49.5,18.4,49.5z"/>
		<rect x="23.1" y="49.7" class="st0" width="0.1" height="0.1"/>
		<path class="st0" d="M21.2,49.8c-0.1,0.3,0.3,0.4,0.5,0.3C21.7,49.8,21.4,49.7,21.2,49.8z"/>
		<path class="st0" d="M22.8,50H23c0-0.1,0-0.1-0.1-0.2L22.8,50z"/>
		<path class="st0" d="M25.1,49.8c0.1,0,0,0.3,0.2,0.3C25.3,50,25.2,49.7,25.1,49.8z"/>
		<path class="st0" d="M6,49.9H5.8C5.8,50,6,50,6,49.9z"/>
		<path class="st0" d="M17,50.3c0,0.2,0.2,0.3,0.3,0.3c0,0,0,0,0,0l0.1-0.1c0-0.3-0.1-0.4-0.4-0.4C16.9,49.4,16.2,50.3,17,50.3z"/>
		<path class="st0" d="M11.7,50.1c0,0,0.2,0.1,0.2,0S11.7,49.9,11.7,50.1z"/>
		<path class="st0" d="M14.9,50.2c0,0.2,0.1,0.4,0.3,0.4c0,0,0,0,0.1,0c0.1,0,0.2-0.2,0.2-0.4C15.2,50.2,15,50.1,14.9,50.2z"/>
		<path class="st0" d="M25.7,50.5c0-0.1,0-0.3-0.1-0.3s-0.2,0-0.2,0.1C25.4,50.5,25.5,50.5,25.7,50.5z"/>
		<path class="st0" d="M24.5,50.2c-0.1,0.2-0.2,0.2-0.2,0.4c0.2,0.1,0.2-0.1,0.4-0.1C24.8,50.4,24.7,50.2,24.5,50.2z"/>
		<path class="st0" d="M17.7,50.6c0.1,0,0.2,0,0.3,0c0-0.2-0.1-0.3-0.3-0.3S17.7,50.5,17.7,50.6z"/>
		<rect x="18.4" y="50.3" class="st0" width="0.1" height="0.1"/>
		<path class="st0" d="M21.8,50.3c0,0.2,0.1,0.3,0.3,0.2S22,50.3,21.8,50.3z"/>
		<path class="st0" d="M19.1,50.7c0-0.2-0.2-0.2-0.3-0.3C18.5,50.6,18.9,50.9,19.1,50.7z"/>
		<path class="st0" d="M21.4,50.6h0.1c0-0.1,0-0.2-0.1-0.2V50.6z"/>
		<path class="st0" d="M22.3,50.5v0.2C22.6,50.7,22.5,50.5,22.3,50.5z"/>
		<path class="st0" d="M54,51c0.1,0.1,0.4,0.1,0.4,0.3c0-0.3,0.7-0.5,0.2-0.8c-0.3,0.2-0.4,0-0.7,0.2V51z"/>
		<path class="st0" d="M57.4,50.5c-0.2,0-0.3-0.1-0.5,0.1C57.1,50.6,57.4,50.7,57.4,50.5z"/>
		<path class="st0" d="M24.1,50.6c0.1-0.1-0.2-0.2-0.2,0H24H24.1z"/>
		<rect x="21.3" y="50.6" class="st0" width="0.1" height="0.1"/>
		<rect x="13.7" y="50.7" class="st0" width="0.1" height="0.1"/>
		<path class="st0" d="M16.4,51.2c0.1-0.1,0.1-0.2,0-0.3h-0.3C16.1,51.1,16.2,51.2,16.4,51.2z"/>
		<path class="st0" d="M19.5,51.1c0.1,0.1,0.2,0.3,0.5,0.3l0-0.1C20,51,19.6,50.8,19.5,51.1z"/>
		<path class="st0" d="M17.8,51.2H18c0-0.2-0.1-0.3-0.2-0.3L17.8,51.2z"/>
		<path class="st0" d="M25.1,51.3v-0.1C25,51,24.9,51.3,25.1,51.3z"/>
		<rect x="28" y="51.1" class="st0" width="0.2" height="0.1"/>
		<path class="st0" d="M24.4,51.2L24.4,51.2l0.2,0C24.7,51.2,24.4,51.1,24.4,51.2z"/>
		<path class="st0" d="M17.6,52.5c0.3,0.1,0.6,0,0.7-0.3c0,0,0-0.1,0-0.1c0.1-0.9-1.6-1.2-1.5-0.1c0.4,0,0.1,0.8,0.5,0.8
			C17.6,52.9,17.5,52.6,17.6,52.5z"/>
		<path class="st0" d="M20.8,51.7c0.1,0,0.1,0.1,0.3,0.1v-0.3C20.8,51.4,20.9,51.6,20.8,51.7z"/>
		<path class="st0" d="M23.8,51.5c-0.1,0.1,0,0.2,0.1,0.3S24,51.4,23.8,51.5z"/>
		<path class="st0" d="M24.8,51.7L24.8,51.7l-0.2,0.1V52c0.2,0,0.4,0.2,0.4-0.1S24.9,51.7,24.8,51.7z"/>
		<path class="st0" d="M21.2,51.6v0.1l0.1,0.1C21.3,51.7,21.3,51.6,21.2,51.6z"/>
		<path class="st0" d="M54.2,51.6c-0.1,0-0.2,0-0.2,0.1S54.2,51.8,54.2,51.6z"/>
		<path class="st0" d="M18.5,51.9c0.1,0.1,0.4,0.2,0.3-0.1c-0.1,0-0.1-0.1-0.3-0.1L18.5,51.9z"/>
		<path class="st0" d="M16,51.9c0,0.1,0,0.2,0.2,0.2S16.2,51.9,16,51.9z"/>
		<path class="st0" d="M19.2,52.5c0-0.4-0.5-0.4-0.7-0.2c0,0.2,0.1,0.4,0.3,0.4C19,52.7,19.1,52.6,19.2,52.5z"/>
		<rect x="15.8" y="52.2" class="st0" width="0.1" height="0.1"/>
		<path class="st0" d="M19.8,52.3c0.1,0,0.1,0.1,0.2,0s0.1-0.2,0-0.2S19.8,52.2,19.8,52.3z"/>
		<path class="st0" d="M22,52.4l-0.2-0.1C21.8,52.5,22.1,52.5,22,52.4z"/>
		<path class="st0" d="M20.8,53.4c-0.1-0.2-0.1-0.4,0-0.7c-0.1-0.1,0-0.2-0.2-0.2c-0.1,0.2-0.2,0.2-0.4,0.3c0,0.1,0.1,0.3,0.2,0.4
			C20.5,53,20.5,53.5,20.8,53.4z"/>
		<path class="st0" d="M15.6,52.7l-0.1,0.1h0.2C15.7,52.7,15.6,52.7,15.6,52.7z"/>
		<path class="st0" d="M19.1,54.5c0-0.1-0.1-0.4,0.1-0.4s0.5-0.1,0.6,0.1c0-0.1,0-0.2-0.1-0.2h0.5v-0.1h0.1c0.1-0.3-0.3-0.3-0.2-0.6
			c-0.3-0.2-0.6-0.2-0.7-0.4h0h0c-0.6,0.1-0.3,1.3-1,1l0.1,0.2h0.1v0.1h0c0,0.2,0.1,0.1,0.1,0.2C18.8,54.5,19,54.4,19.1,54.5z"/>
		<path class="st0" d="M18.1,52.7c0,0.2,0,0.3,0.2,0.3S18.2,52.8,18.1,52.7z"/>
		<path class="st0" d="M21.5,52.9c0-0.1,0-0.2-0.1-0.2S21.4,53,21.5,52.9z"/>
		<path class="st0" d="M27.9,52.9v-0.1l-0.1-0.1c0,0-0.2,0.2-0.1,0.2L27.9,52.9z"/>
		<rect x="26.3" y="52.8" class="st0" width="0.1" height="0.1"/>
		<rect x="22" y="52.9" class="st0" width="0.2" height="0.1"/>
		<path class="st0" d="M67.3,53c0.1,0,0.2,0,0.3-0.1C67.5,52.9,67.4,53,67.3,53z"/>
		<polygon class="st0" points="23.1,53 23,53 23,53.2 23.1,53.2 23.2,53.2 23.3,53.2 23.3,53 23.2,53 		"/>
		<path class="st0" d="M9,53.3c0-0.2-0.1-0.2-0.2-0.2C8.7,53.2,8.9,53.3,9,53.3z"/>
		<path class="st0" d="M21,53.3c0.1,0.1,0.3,0.1,0.5,0.1c0-0.1,0-0.2,0-0.3C21.3,53,21.1,53.1,21,53.3z"/>
		<path class="st0" d="M26.7,53.2v0.2c0.1,0,0.2-0.1,0.2-0.2C26.8,53.2,26.8,53,26.7,53.2z"/>
		<rect x="29.4" y="53.1" class="st0" width="0.1" height="0.1"/>
		<path class="st0" d="M23.5,53.2c-0.2,0.1,0,0.5,0.2,0.3C23.7,53.4,23.6,53.3,23.5,53.2z"/>
		<path class="st0" d="M23.3,53.4l0.1,0.1c0-0.1,0-0.2-0.1-0.2V53.4z"/>
		<path class="st0" d="M17.4,53.6h0.1c0-0.1,0-0.2-0.1-0.2V53.6z"/>
		<path class="st0" d="M23.9,53.7v-0.2c-0.1,0-0.2,0-0.2,0.1C23.8,53.6,23.8,53.7,23.9,53.7z"/>
		<path class="st0" d="M16.6,53.6c0,0.2,0.1,0.2,0.3,0.2C17,53.5,16.8,53.5,16.6,53.6z"/>
		<path class="st0" d="M22,53.8c0.1,0,0.1-0.1,0.2-0.2C22.1,53.5,22.1,53.7,22,53.8z"/>
		<path class="st0" d="M22.3,53.5c0,0.1,0,0.2,0.1,0.2l0-0.2H22.3z"/>
		<path class="st0" d="M18.4,53.7h0.2c0-0.1,0-0.1-0.1-0.2L18.4,53.7z"/>
		<path class="st0" d="M22.6,53.7c0.1,0.1,0.2,0.2,0.3,0C22.9,53.6,22.7,53.5,22.6,53.7z"/>
		<path class="st0" d="M15.8,53.9c0-0.2-0.1-0.2-0.2-0.2S15.7,53.9,15.8,53.9z"/>
		<path class="st0" d="M23.5,54.3c0.1,0.1,0.3,0.1,0.4,0.1c0.1-0.2,0.2-0.3,0.2-0.5C23.9,53.6,23.5,53.9,23.5,54.3z"/>
		<path class="st0" d="M17,53.8c0,0.1,0,0.1,0.1,0.2C17.1,53.9,17.1,53.8,17,53.8z"/>
		<path class="st0" d="M17.8,54.2c0-0.2-0.3-0.3-0.4-0.2C17.6,54,17.6,54.3,17.8,54.2z"/>
		<path class="st0" d="M28.7,54.1c0.1,0,0.2,0,0.2-0.1s-0.1-0.1-0.2,0V54.1z"/>
		<path class="st0" d="M69.2,54h-0.1L69,54.1C69.1,54.1,69.2,54.2,69.2,54z"/>
		<path class="st0" d="M13.9,54.4c0-0.1,0-0.2,0-0.3h-0.2C13.7,54.3,13.9,54.3,13.9,54.4z"/>
		<path class="st0" d="M21,54.3l0-0.1c-0.1-0.1-0.3,0.1-0.2,0.2v0.1C21,54.4,21,54.3,21,54.3z"/>
		<path class="st0" d="M28.6,54.4l0.1,0c0-0.1,0-0.2-0.1-0.2V54.4z"/>
		<path class="st0" d="M26.4,54.3c-0.1,0.3,0.4,0.2,0.2,0H26.4z"/>
		<path class="st0" d="M13.6,55.5c0.2,0,0.3-0.1,0.6-0.2s0.5,0.1,0.8,0.1c0.2-0.2,0.3-0.4,0.2-0.7c-0.2-0.4-1.1-0.3-1.4,0
			c-0.2,0-0.5,0-0.7,0.1C13.3,55.1,13.3,55.4,13.6,55.5z"/>
		<path class="st0" d="M21.2,54.5l0.2,0C21.5,54.4,21.2,54.4,21.2,54.5z"/>
		<path class="st0" d="M21.5,54.5c0.1,0.2,0.3,0.2,0.3,0.4c0.1,0,0.2-0.1,0.3-0.2C22.3,54.4,21.7,54.3,21.5,54.5z"/>
		<path class="st0" d="M10.8,54.8c0.1,0,0.1-0.1,0.2-0.2l-0.2,0V54.8z"/>
		<path class="st0" d="M21.3,54.8c0-0.2-0.1-0.3-0.3-0.3c-0.1,0-0.1,0-0.2,0.1c0,0.2,0.2,0.3,0.4,0.3C21.2,54.8,21.2,54.8,21.3,54.8
			z"/>
		<path class="st0" d="M22.5,54.6v-0.1C22.4,54.3,22.2,54.7,22.5,54.6z"/>
		<path class="st0" d="M18.6,54.5l0,0.1l0.2,0.1C18.7,54.6,18.7,54.5,18.6,54.5z"/>
		<path class="st0" d="M22.8,54.7c0.1,0.1,0.2,0.3,0.3,0.4c0.2-0.1,0.2,0,0.4,0c0-0.2-0.1-0.3-0.1-0.5c-0.2,0-0.3-0.1-0.4-0.1
			L22.8,54.7z"/>
		<polygon class="st0" points="21.3,54.7 21.4,54.8 21.5,54.6 21.4,54.6 		"/>
		<path class="st0" d="M24.7,54.6c-0.2,0.1,0,0.4,0.2,0.2C24.9,54.7,24.8,54.6,24.7,54.6z"/>
		<path class="st0" d="M26.7,54.7h-0.2C26.5,55,26.8,54.8,26.7,54.7z"/>
		<path class="st0" d="M64.3,54.7c-0.1,0-0.2,0-0.2,0.2S64.3,54.8,64.3,54.7z"/>
		<path class="st0" d="M20,54.9c0-0.1,0-0.1-0.1-0.2C19.9,54.8,19.9,54.9,20,54.9z"/>
		<path class="st0" d="M27.4,54.9c-0.1-0.2-0.3,0-0.5-0.1c-0.1,0.4,0.3,0.4,0.2,0.8C27.5,55.5,27.4,55.2,27.4,54.9z"/>
		<path class="st0" d="M0.3,54.9c-0.1,0-0.1-0.1-0.2,0S0.3,55,0.3,54.9z"/>
		<path class="st0" d="M21.7,55.3c0.1-0.1,0-0.3-0.2-0.3s-0.4,0-0.4,0.2c0.1,0.1,0.2,0.2,0.2,0.3c0.3,0.1,0.3-0.1,0.6-0.1
			C21.9,55.3,21.8,55.2,21.7,55.3z"/>
		<path class="st0" d="M22.6,55L22.6,55L22.6,55c0.1,0.2,0.2,0.2,0.2,0.1S22.7,54.8,22.6,55z"/>
		<path class="st0" d="M22.3,55.3L22.3,55.3h0.2l0.1-0.2h-0.1V55c-0.1,0-0.2,0-0.3,0.1C22.2,55.2,22.3,55.1,22.3,55.3z"/>
		<path class="st0" d="M26.8,54.9c0,0.1-0.3,0-0.2,0.2c0.1,0,0.2,0,0.3,0C26.8,55.1,26.9,54.9,26.8,54.9z"/>
		<path class="st0" d="M19.5,55.1c0,0.1,0.1,0.1,0.1,0.2c0.2,0,0.3,0,0.4-0.1C19.7,55.2,19.6,55,19.5,55.1z"/>
		<path class="st0" d="M20.8,55.2c0.1-0.1-0.2-0.2-0.2,0h0H20.8z"/>
		<path class="st0" d="M16.3,55.3c0.1-0.1-0.2-0.2-0.2-0.1l0,0.1H16.3z"/>
		<rect x="18.5" y="55.3" class="st0" width="0.1" height="0.1"/>
		<path class="st0" d="M15.6,55.5v-0.1C15.5,55.2,15.3,55.5,15.6,55.5z"/>
		<path class="st0" d="M17.1,55.5c0-0.1-0.1-0.2-0.1-0.2C17,55.4,17,55.5,17.1,55.5z"/>
		<path class="st0" d="M19.5,55.4c-0.2,0.1-0.3-0.1-0.3,0.1c0.1,0.1,0.1,0.1,0.1,0.2c0.1,0,0.2,0,0.3-0.1
			C19.6,55.5,19.5,55.5,19.5,55.4z"/>
		<path class="st0" d="M20.7,55.5v-0.2h-0.2C20.6,55.4,20.5,55.5,20.7,55.5z"/>
		<path class="st0" d="M23.5,55.5c0,0.1-0.1,0.4,0.1,0.3c-0.1-0.2,0-0.1,0.1-0.3H23.5z"/>
		<path class="st0" d="M6.8,55.7c0-0.2-0.1-0.2-0.3-0.2S6.7,55.8,6.8,55.7z"/>
		<polygon class="st0" points="25,55.7 25,55.6 24.9,55.5 24.9,55.7 		"/>
		<path class="st0" d="M21.7,55.7c0-0.1,0-0.1-0.1-0.2C21.5,55.7,21.5,55.8,21.7,55.7z"/>
		<path class="st0" d="M18.4,55.8c0-0.1,0-0.1,0-0.2c-0.1,0-0.1,0-0.2,0c0,0,0,0,0,0.1C18.3,55.8,18.3,55.8,18.4,55.8z"/>
		<path class="st0" d="M20.7,56L20.7,56L20.7,56l0.2-0.3c-0.2,0-0.1-0.2-0.4-0.1v0.2l0.1,0.1V56L20.7,56z"/>
		<path class="st0" d="M21.5,56.1c0-0.2-0.2-0.2-0.3-0.3c-0.1,0.1-0.3,0.1-0.4,0.2V56h-0.1c0,0.3,0.3,0.5,0.5,0.5
			C21.3,56.2,21.5,56.3,21.5,56.1z"/>
		<path class="st0" d="M19.6,55.7c0,0.1,0,0.2,0.1,0.3c0-0.2,0.1-0.1,0-0.3L19.6,55.7z"/>
		<path class="st0" d="M22.6,55.8c0.2,0.1,0.2-0.2,0-0.2V55.8z"/>
		<path class="st0" d="M24,56.4c0-0.3,0.1-0.5-0.2-0.7c-0.1,0.1-0.2,0.3-0.3,0.4C23.5,56.3,23.7,56.5,24,56.4z"/>
		<path class="st0" d="M23,55.8l-0.2-0.1C22.8,55.9,23,55.9,23,55.8z"/>
		<path class="st0" d="M18.4,56.1c0.1-0.4-0.4-0.4-0.4-0.1C18,56.1,18.2,56.3,18.4,56.1z"/>
		<path class="st0" d="M19.3,56.1c0.1,0,0.2,0,0.2-0.1c0-0.1-0.1-0.2-0.2-0.2c0,0,0,0,0,0V56.1z"/>
		<rect x="21.7" y="55.8" class="st0" width="0.2" height="0.1"/>
		<path class="st0" d="M2.3,56c0,0,0.3,0.1,0.3,0S2.3,55.8,2.3,56z"/>
		<path class="st0" d="M25.6,56.2c0-0.1,0-0.2-0.1-0.2s-0.2,0-0.2,0.2C25.4,56.1,25.4,56.2,25.6,56.2z"/>
		<path class="st0" d="M4.7,56.1c0.1,0,0.1,0.1,0.3,0.1S4.7,56,4.7,56.1z"/>
		<path class="st0" d="M15.3,56.6c0.1-0.3-0.2-0.7-0.5-0.5S15,56.8,15.3,56.6z"/>
		<path class="st0" d="M17.4,56.6c0-0.3-0.2-0.4-0.4-0.4c-0.1,0.1,0,0.3,0.1,0.4S17.3,56.8,17.4,56.6z"/>
		<path class="st0" d="M19.8,56.3c-0.1-0.1-0.5,0-0.7-0.1c-0.1,0.2-0.2,0.4-0.4,0.6l0,0.1C19.4,57,19.9,56.9,19.8,56.3z"/>
		<path class="st0" d="M18.7,56.7c0-0.3-0.1-0.4-0.3-0.4C18.1,56.5,18.5,57,18.7,56.7z"/>
		<path class="st0" d="M21,56.5c0-0.2-0.1-0.2-0.2-0.2C20.8,56.5,20.9,56.5,21,56.5z"/>
		<path class="st0" d="M22.1,56.7c-0.2,0-0.1-0.2-0.3-0.2v0.2C21.8,56.7,22.1,56.8,22.1,56.7z"/>
		<path class="st0" d="M22.9,56.5c-0.1,0.2,0.2,0.3,0.3,0.2S23.1,56.5,22.9,56.5z"/>
		<path class="st0" d="M23.6,56.8c0.1,0.1,0.2,0.2,0.4,0.2C24.4,56.6,23.6,56.3,23.6,56.8z"/>
		<path class="st0" d="M27.8,56.6c-0.1,0-0.1-0.1-0.2,0c0.1,0.2-0.2,0.2-0.1,0.4C27.6,56.9,27.8,56.8,27.8,56.6z"/>
		<path class="st0" d="M22.4,57.7c0.1-0.2,0.4-0.5,0.4-0.2c0.1-0.4-0.2-1-0.7-0.8c-0.2,0.4-0.4,0.8-0.8,0.9
			c-0.1,0.7,0.8,0.7,1.3,0.6C22.6,58,22.4,57.9,22.4,57.7z"/>
		<path class="st0" d="M21.8,56.9v-0.1C21.7,56.6,21.5,57,21.8,56.9z"/>
		<path class="st0" d="M0.8,56.8C0.8,57,1.1,57,1.1,56.9C1,56.9,1,56.8,0.8,56.8z"/>
		<rect x="21.3" y="56.8" class="st0" width="0.1" height="0.1"/>
		<path class="st0" d="M15.5,57.2c0.1-0.1,0.1-0.2,0.1-0.3c-0.1,0-0.2,0-0.3,0C15.3,57.1,15.3,57.2,15.5,57.2z"/>
		<path class="st0" d="M12.9,57c-0.1,0,0-0.2-0.2-0.1S12.9,57.2,12.9,57z"/>
		<path class="st0" d="M13.3,56.9c0,0.2,0.1,0.2,0.2,0.2S13.4,56.9,13.3,56.9z"/>
		<path class="st0" d="M19.8,57.3c0-0.3-0.1-0.3-0.3-0.3c-0.1,0.1-0.1,0.2,0,0.3C19.6,57.4,19.7,57.4,19.8,57.3z"/>
		<path class="st0" d="M16.8,57.3c-0.3-0.2-0.8-0.2-0.7,0.3c0.1,0.2,0.3,0.3,0.5,0.2C16.8,57.7,16.9,57.5,16.8,57.3z"/>
		<path class="st0" d="M20.4,57.2h-0.2C20.2,57.3,20.5,57.3,20.4,57.2z"/>
		<path class="st0" d="M23.6,57.5c0-0.1-0.1-0.2-0.2-0.3C23.4,57.4,23.4,57.5,23.6,57.5z"/>
		<path class="st0" d="M23.8,57.2c0,0.1,0,0.2,0.2,0.2S23.9,57.3,23.8,57.2z"/>
		<path class="st0" d="M14.4,57.5c-0.1-0.1-0.3-0.1-0.3,0.1S14.4,57.6,14.4,57.5z"/>
		<path class="st0" d="M25.2,57.8c0.1,0,0.2,0.1,0.3,0c0.1-0.1,0.1-0.3,0-0.5C25.2,57.3,25.1,57.6,25.2,57.8z"/>
		<path class="st0" d="M44.8,57.6c0-0.1,0-0.1-0.1-0.2C44.6,57.5,44.6,57.6,44.8,57.6z"/>
		<path class="st0" d="M20.9,57.6c-0.1,0-0.1,0-0.2,0.1C20.8,57.7,20.9,57.6,20.9,57.6z"/>
		<path class="st0" d="M11,57.9c0-0.2-0.2-0.3-0.4-0.3c-0.1,0-0.1,0-0.1,0.1C10.4,58,10.8,58,11,57.9z"/>
		<path class="st0" d="M20.1,58.4c0.1-0.1,0.2-0.3,0.2-0.4c-0.3,0-0.3-0.3-0.5-0.4c0.1,0.2-0.3,0.2-0.2,0.2
			c-0.1,0.2-0.1,0.5,0.1,0.6C19.8,58.5,19.9,58.5,20.1,58.4z"/>
		<path class="st0" d="M24,58.1c0-0.2,0-0.4-0.2-0.3c0,0.1-0.1,0.1-0.1,0.2S23.9,58.1,24,58.1z"/>
		<path class="st0" d="M18.6,57.8V58h0.2C18.8,57.8,18.7,57.8,18.6,57.8z"/>
		<path class="st0" d="M25,58c-0.2,0.1-0.4,0.1-0.4,0.3c0.1,0,0.1,0.2,0.2,0.3C24.8,58.4,25,58.3,25,58z"/>
		<rect x="20.9" y="58.1" class="st0" width="0.2" height="0.2"/>
		<path class="st0" d="M27.3,58.3l-0.1-0.2C27.1,58.1,27.1,58.3,27.3,58.3z"/>
		<rect x="12.7" y="58.2" class="st0" width="0.1" height="0.1"/>
		<path class="st0" d="M14.1,58.3c0,0.1-0.1,0.1-0.1,0.2c0.1,0.1,0.2,0.1,0.3,0.1C14.3,58.4,14.1,58.4,14.1,58.3z"/>
		<path class="st0" d="M23.6,58.7c0.1,0.1,0.1,0.3,0.3,0.3c0.2-0.2,0-0.4-0.2-0.5C23.8,58.7,23.7,58.6,23.6,58.7z"/>
		<path class="st0" d="M10.2,58.6H10C10,58.7,10.2,58.7,10.2,58.6z"/>
		<path class="st0" d="M11.6,58.6c-0.1,0-0.1-0.1-0.2-0.1C11.3,58.7,11.6,58.8,11.6,58.6z"/>
		<path class="st0" d="M7.3,58.6H7.1C7.2,58.7,7.3,58.7,7.3,58.6z"/>
		<path class="st0" d="M21.5,58.7h-0.1c0,0.1-0.1,0-0.2,0.1c0.1,0.1,0.2,0.1,0.3,0V58.7z"/>
		<path class="st0" d="M24.4,58.7h-0.2c0,0.1,0,0.2,0.2,0.2V58.7z"/>
		<path class="st0" d="M23.3,58.9c0,0.1,0,0.3,0.1,0.3S23.5,58.8,23.3,58.9z"/>
		<path class="st0" d="M24.4,59.4c0.3,0,0.6-0.1,0.4-0.5c-0.2,0-0.4,0.1-0.5,0.3C24.4,59.2,24.4,59.4,24.4,59.4z"/>
		<path class="st0" d="M16.9,59.4l0.1,0.1c0-0.1,0-0.2-0.1-0.2V59.4z"/>
		<rect x="23.3" y="59.4" transform="matrix(0.444 -0.896 0.896 0.444 -40.2297 53.988)" class="st0" width="0.1" height="0.1"/>
		<path class="st0" d="M22,59.5h-0.4c0,0.2,0,0.3,0.2,0.4C21.9,59.8,22.1,59.7,22,59.5z"/>
		<path class="st0" d="M23,59.4c-0.1,0.1-0.3,0.1-0.3,0.2C22.8,59.8,23.1,59.5,23,59.4z"/>
		<rect x="14.9" y="59.5" class="st0" width="0.1" height="0.1"/>
		<path class="st0" d="M15.3,59.6c0,0,0.3,0.1,0.3,0S15.3,59.4,15.3,59.6z"/>
		<path class="st0" d="M15.9,59.7c0.1-0.1,0-0.2-0.1-0.2S15.8,59.7,15.9,59.7z"/>
		<path class="st0" d="M45.9,59.5c-0.1,0-0.2,0-0.2,0.2S45.9,59.7,45.9,59.5z"/>
		<path class="st0" d="M20.4,59.8c0.1,0,0.2-0.1,0.2-0.2C20.5,59.6,20.5,59.7,20.4,59.8z"/>
		<path class="st0" d="M9,60.1c0.1-0.3-0.4-0.4-0.4-0.1C8.7,60.1,8.8,60.2,9,60.1z"/>
		<path class="st0" d="M6.8,60c-0.1,0-0.2,0-0.3,0C6.5,60.2,6.8,60.1,6.8,60z"/>
		<path class="st0" d="M23.4,60C23.1,60.3,23.6,59.9,23.4,60z"/>
		<path class="st0" d="M21.8,60.2l-0.2-0.1l0.1,0.3C21.7,60.3,21.8,60.4,21.8,60.2z"/>
		<path class="st0" d="M8.8,60.7c0.1-0.3-0.3-0.4-0.3-0.2S8.5,60.7,8.8,60.7z"/>
		<path class="st0" d="M21.2,60.6h0.2c0-0.1,0-0.1-0.1-0.2S21.2,60.4,21.2,60.6C21.2,60.5,21.2,60.6,21.2,60.6z"/>
		<path class="st0" d="M17.7,60.5c-0.1,0.1-0.1,0.3,0.2,0.3C18,60.6,17.9,60.6,17.7,60.5z"/>
		<path class="st0" d="M21.4,60.7c0,0.2,0.1,0.2,0.2,0.2C21.7,60.7,21.6,60.7,21.4,60.7z"/>
		<path class="st0" d="M22,60.9l0.2,0.1c0-0.1,0.1-0.1,0-0.2S22,60.8,22,60.9z"/>
		<path class="st0" d="M26.5,61v-0.2h-0.2C26.3,60.9,26.4,61,26.5,61z"/>
		<path class="st0" d="M22.8,61.2c0-0.2-0.1-0.2-0.2-0.3C22.6,61.1,22.6,61.2,22.8,61.2z"/>
		<rect x="9.5" y="61.1" class="st0" width="0.2" height="0.1"/>
		<path class="st0" d="M25.6,61.6l0.2,0.1c0-0.1,0.2-0.3,0-0.4C25.7,61.5,25.5,61.5,25.6,61.6z"/>
		<path class="st0" d="M25.7,62.1c0-0.2,0.1-0.4-0.2-0.4v0.1v0.1C25.5,62,25.6,62.1,25.7,62.1C25.7,62.1,25.7,62.1,25.7,62.1z"/>
		<path class="st0" d="M26.8,61.8c-0.1,0-0.2,0-0.2,0.1C26.7,61.9,26.8,61.9,26.8,61.8z"/>
		<path class="st0" d="M12.6,62.1c-0.1,0.2,0.3,0,0.2,0H12.6z"/>
		<path class="st0" d="M14.4,62.3V62h-0.2C14.3,62.1,14.3,62.3,14.4,62.3z"/>
		<rect x="13.1" y="62.1" class="st0" width="0.2" height="0.1"/>
		<path class="st0" d="M18,62.3c0,0.1,0.1,0.2,0.2,0.2c0,0,0,0,0,0c0-0.1,0.1-0.1,0-0.2H18z"/>
		<path class="st0" d="M49.7,63c0-0.1-0.1-0.2-0.2-0.2c0,0-0.1,0-0.1,0v0.1l-0.1,0.1C49.5,63.1,49.6,63.1,49.7,63z"/>
		<path class="st0" d="M15.9,62.3c0,0.1,0.1,0.2,0.2,0.2S16.1,62.2,15.9,62.3z"/>
		<path class="st0" d="M26.2,62.4c0.1-0.1-0.2-0.2-0.2-0.1v0.1H26.2z"/>
		<path class="st0" d="M7.5,62.4c-0.2-0.1-0.3-0.1-0.5,0c0,0.2,0.1,0.3,0.2,0.4c-0.1,0.2-0.1,0.2-0.1,0.3c-0.1,0-0.3,0.1-0.4,0.2
			c0,0.2,0,0.4,0.2,0.5c0.6,0.1,1-0.2,0.7-0.6c0.1,0,0.2,0,0.2-0.2C7.8,62.7,7.4,62.8,7.5,62.4z"/>
		<rect x="9.8" y="62.4" class="st0" width="0.1" height="0.1"/>
		<path class="st0" d="M24.6,62.4c-0.1-0.2-0.3,0.2,0,0.1V62.4z"/>
		<path class="st0" d="M8.6,62.5l-0.2-0.1l-0.1,0.1C8.3,62.7,8.6,62.7,8.6,62.5z"/>
		<path class="st0" d="M25.1,62.4c-0.2,0.1-0.4,0.4-0.3,0.7c0.2,0,0.4-0.1,0.5-0.3C25,62.8,25.3,62.4,25.1,62.4z"/>
		<path class="st0" d="M17.6,62.6c0.1,0,0.1,0.1,0.2,0.1C17.8,62.5,17.6,62.5,17.6,62.6z"/>
		<path class="st0" d="M11.5,62.7c0.1,0,0.2,0,0.2-0.1h-0.1L11.5,62.7z"/>
		<path class="st0" d="M17.4,62.8c0.1-0.1,0-0.2-0.2-0.2C17.2,62.8,17.3,62.9,17.4,62.8z"/>
		<path class="st0" d="M18.4,62.7c0,0.2,0.1,0.2,0.2,0.2c0.1,0,0.1-0.1,0.1-0.2C18.6,62.7,18.5,62.6,18.4,62.7
			C18.4,62.7,18.4,62.7,18.4,62.7z"/>
		<path class="st0" d="M19.7,63c0.1,0,0.2,0,0.2-0.1S19.7,62.9,19.7,63z"/>
		<rect x="24" y="62.9" class="st0" width="0.2" height="0.1"/>
		<polygon class="st0" points="23.8,63 23.6,63 23.6,63.1 23.8,63.2 		"/>
		<path class="st0" d="M25.4,63h-0.2C25.2,63.2,25.4,63.2,25.4,63z"/>
		<path class="st0" d="M40.1,63.1c0,0.1,0.1,0.2,0.2,0.2c0,0,0,0,0,0C40.4,63.2,40.3,63.1,40.1,63.1z"/>
		<path class="st0" d="M23.9,63.7c0-0.2,0-0.3-0.2-0.3S23.6,63.8,23.9,63.7z"/>
		<path class="st0" d="M6.1,63.5c0,0.2,0.3,0.2,0.3,0.1S6.2,63.4,6.1,63.5z"/>
		<rect x="9.5" y="63.5" class="st0" width="0.2" height="0.1"/>
		<path class="st0" d="M17.9,64.2c-0.1-0.3,0.2-0.7-0.4-0.7c0,0.1-0.1,0.1-0.1,0.3C17.7,64,17.5,64.2,17.9,64.2z"/>
		<path class="st0" d="M21.4,63.8l-0.2-0.1C21.2,63.9,21.5,63.9,21.4,63.8z"/>
		<path class="st0" d="M55.5,65.6c0-0.5-0.2-1.1-0.4-1.6c-0.6-0.1-0.5,0.5-0.8,0.7c-0.4,0-0.7,0.2-0.8,0.6c0.3,0.1,0.4,0.5,0.8,0.6
			c0.2-0.4-0.1-0.7,0.2-1c0.2,0,0.1-0.1,0.3,0C55.2,65,55.1,65.5,55.5,65.6z"/>
		<path class="st0" d="M24.2,64.1v0.2C24.4,64.4,24.4,64,24.2,64.1z"/>
		<rect x="8.8" y="64.2" class="st0" width="0.2" height="0.1"/>
		<path class="st0" d="M37.7,64.6c0.1,0,0.1-0.3,0-0.4S37.6,64.5,37.7,64.6z"/>
		<rect x="49.9" y="64.2" class="st0" width="0.1" height="0.1"/>
		<path class="st0" d="M10,64.9c0.2,0.2,0.7,0.2,0.8,0C10.9,64.4,9.8,64.2,10,64.9z"/>
		<path class="st0" d="M24.3,64.6c0,0.2,0,0.3,0.2,0.3C24.5,64.7,24.5,64.6,24.3,64.6z"/>
		<rect x="22.1" y="64.6" class="st0" width="0.1" height="0.1"/>
		<path class="st0" d="M23.6,64.6L23.6,64.6C23.4,65,23.9,64.6,23.6,64.6z"/>
		<path class="st0" d="M45.6,64.8h0.2c0-0.1,0-0.1-0.1-0.2C45.7,64.6,45.6,64.6,45.6,64.8C45.6,64.7,45.6,64.7,45.6,64.8z"/>
		<rect x="22.6" y="64.7" class="st0" width="0.1" height="0.1"/>
		<path class="st0" d="M15.5,64.8c-0.1-0.1-0.2-0.1-0.3-0.1v0.3C15.4,65.1,15.5,65.1,15.5,64.8z"/>
		<path class="st0" d="M14.8,64.8c0,0.2-0.2,0.2-0.2,0.4c0.2,0.3,0.4,0,0.4-0.3C15,65,14.9,64.9,14.8,64.8z"/>
		<path class="st0" d="M21.1,64.8c0,0.1,0,0.2,0.2,0.2S21.3,64.8,21.1,64.8z"/>
		<path class="st0" d="M22.8,64.8c-0.1,0.1,0,0.2,0.1,0.3S23,64.8,22.8,64.8z"/>
		<path class="st0" d="M22.4,65c-0.1,0-0.1,0.1-0.2,0C22.2,65.2,22.5,65.2,22.4,65z"/>
		<path class="st0" d="M21.6,65.2l0.1-0.2c-0.1,0-0.1-0.1-0.2-0.1S21.5,65.2,21.6,65.2z"/>
		<path class="st0" d="M23.4,65.9c0.1,0,0.1-0.2,0.2-0.3h-0.1l-0.1-0.1c-0.3,0-0.2,0.1-0.2,0.3L23.4,65.9L23.4,65.9z"/>
		<path class="st0" d="M22.4,67.3h0.1l0.1,0.1c0.1,0,0.2-0.1,0.2-0.3h-0.1L22.5,67C22.4,67,22.4,67.2,22.4,67.3z"/>
		<path class="st0" d="M21.4,68.6h0.1l0.1,0.1c0.2-0.3,0.5-0.6,0.7-0.9h-0.1l-0.1-0.1c-0.2,0-0.1,0.2-0.3,0.1
			C21.7,68.1,21.6,68.4,21.4,68.6z"/>
		<path class="st0" d="M20.9,69.6c0.3-0.1,0.4-0.5,0.6-0.7h-0.1l-0.1-0.1h0c0-0.2-0.2-0.3-0.4-0.2C20.7,68.9,20.8,69.3,20.9,69.6z"
			/>
		<rect x="16.9" y="65.3" class="st0" width="0.1" height="0.1"/>
		<path class="st0" d="M22.6,65.5c0.1,0.1,0.2-0.2,0-0.2l0,0.1V65.5z"/>
		<path class="st0" d="M45,65.7c0.2,0,0.3-0.1,0.3-0.2h-0.2C45.1,65.5,45,65.5,45,65.7z"/>
		<path class="st0" d="M16.3,65.6c0.1,0.1,0.1,0.2,0.3,0.2C16.7,65.5,16.4,65.4,16.3,65.6z"/>
		<path class="st0" d="M18.2,65.7l0.1,0.1c0-0.1,0-0.2-0.1-0.2V65.7z"/>
		<rect x="23.9" y="65.6" class="st0" width="0.1" height="0.1"/>
		<rect x="46.7" y="65.6" class="st0" width="0.1" height="0.1"/>
		<path class="st0" d="M22.3,65.9l0.1-0.1c0-0.1-0.1-0.1-0.2-0.2S22.2,65.9,22.3,65.9z"/>
		<path class="st0" d="M22.1,66c0-0.1-0.1-0.2-0.2-0.2c0,0,0,0,0,0l-0.1,0.1C21.8,66,22,66.1,22.1,66z"/>
		<path class="st0" d="M11.2,65.9h-0.2C11,66,11.3,66,11.2,65.9z"/>
		<path class="st0" d="M36.3,66c0.1,0.1,0.1,0.3,0.2,0.3C36.5,66.2,36.5,65.8,36.3,66z"/>
		<path class="st0" d="M18.6,66.4c0-0.2-0.1-0.2-0.2-0.2S18.5,66.4,18.6,66.4z"/>
		<path class="st0" d="M40.4,66.2c0,0.1-0.1,0.1,0,0.2s0.2,0,0.2-0.2L40.4,66.2z"/>
		<path class="st0" d="M54,66.5c0.1,0.1,0.3,0.1,0.4,0c0.1-0.1,0.1-0.1,0.1-0.2c-0.1-0.1-0.3-0.1-0.4,0.1
			C54.1,66.4,54.1,66.4,54,66.5z"/>
		<path class="st0" d="M21.5,66.3L21.5,66.3c0,0.1,0,0.2,0.1,0.2l0.1-0.2C21.7,66.4,21.7,66.2,21.5,66.3z"/>
		<path class="st0" d="M14.1,66.5c0.1,0.3,0.4,0.2,0.6,0C14.5,66.4,14.3,66.2,14.1,66.5z"/>
		<path class="st0" d="M17.5,66.5c0-0.2,0-0.2-0.2-0.2C17.3,66.4,17.4,66.5,17.5,66.5z"/>
		<path class="st0" d="M22.5,66.5c-0.1,0.2,0.3,0,0.2-0.1L22.5,66.5z"/>
		<path class="st0" d="M20.5,68c0.4-0.4-0.2-1.5-0.5-1.5s-0.5,0.1-0.4,0.7c-0.5,0.8-1.3,1.3-1.7,2.2h-0.1v0.1l-0.1,0.1l0.1,0.1
			c0,0.2-0.3,0.3-0.2,0.4c0.3,0.2,0.5-0.1,0.6-0.3c0.1-0.9,1-1.4,1.8-1.8C20.3,68,20.3,68.1,20.5,68z"/>
		<path class="st0" d="M38.2,66.7c0-0.1,0-0.1-0.1-0.2C38.1,66.6,38.1,66.7,38.2,66.7z"/>
		<path class="st0" d="M40.3,66.9c0-0.2-0.1-0.3-0.2-0.3C40.1,66.7,40.2,66.9,40.3,66.9z"/>
		<path class="st0" d="M18.8,67.2c0.1,0.1,0.3-0.1,0.5,0C19.5,66.5,18.7,66.6,18.8,67.2z"/>
		<path class="st0" d="M37.8,66.7h-0.2v0.2C37.8,66.9,37.7,66.7,37.8,66.7z"/>
		<rect x="55.9" y="66.7" class="st0" width="0.1" height="0.1"/>
		<path class="st0" d="M15,67.2h0.2v-0.3H15C14.9,66.9,14.9,67,15,67.2z"/>
		<path class="st0" d="M50.2,66.9L50.2,66.9l0.1,0.1C50.5,66.8,50.2,66.8,50.2,66.9z"/>
		<path class="st0" d="M11,67.3c0.1-0.4-0.5-0.1-0.2,0.1C10.9,67.3,10.9,67.3,11,67.3z"/>
		<rect x="36.6" y="67" class="st0" width="0.1" height="0.1"/>
		<path class="st0" d="M16.3,67.1l-0.2,0.1c0,0.2,0.1,0.1,0.2,0.2S16.4,67.1,16.3,67.1z"/>
		<path class="st0" d="M56,67.3c-0.2-0.2-0.6-0.2-0.8,0C55,67.4,55,67.6,55,67.8c0.5,0,0.5,0.6,0.9,0.7C56.1,68.1,55.8,67.6,56,67.3
			z"/>
		<path class="st0" d="M45.2,67.4c-0.2-0.4-1-0.2-1,0.3c0,0.2,0.2,0.2,0.2,0.4c0.1,0.4-0.3,1,0.2,1.2c0.2-0.1,0.1-0.5,0.1-0.7
			C44.8,68.1,45.2,67.9,45.2,67.4z"/>
		<path class="st0" d="M15.4,67.4c0,0.2,0.2,0.3,0.3,0.2S15.5,67.4,15.4,67.4z"/>
		<path class="st0" d="M13.8,67.5c0,0.1,0.1,0.1,0.2,0.2C14,67.6,14,67.5,13.8,67.5z"/>
		<path class="st0" d="M40.1,67.9v-0.3c-0.3-0.2-0.5,0.2-0.3,0.4S40,68,40.1,67.9z"/>
		<rect x="42.8" y="67.6" class="st0" width="0.1" height="0.1"/>
		<path class="st0" d="M21.6,67.7c-0.1,0-0.2,0-0.3,0c0,0.2-0.2,0.3-0.1,0.5C21.4,68.1,21.6,68,21.6,67.7z"/>
		<rect x="22.8" y="67.7" class="st0" width="0.1" height="0.1"/>
		<path class="st0" d="M30.5,67.7c0,0.1,0,0.2,0,0.1S30.5,67.6,30.5,67.7z"/>
		<path class="st0" d="M30.2,68.1c0.1,0,0-0.2,0-0.3h-0.2C30.1,67.9,30,68.2,30.2,68.1z"/>
		<path class="st0" d="M9,68.3c0.1,0.1,0.2,0.2,0.4,0.2C9.9,68.2,9.1,67.7,9,68.3z"/>
		<path class="st0" d="M32.2,68.2c0,0.1-0.1,0.4,0.1,0.3C32.3,68.4,32.4,68.1,32.2,68.2z"/>
		<path class="st0" d="M33.3,68.5c0-0.1,0-0.2,0-0.1S33.3,68.6,33.3,68.5z"/>
		<path class="st0" d="M16.5,68.7c-0.1,0.1-0.1,0.2-0.1,0.3c0.2,0.1,0.3,0,0.5-0.2C16.8,68.8,16.8,68.6,16.5,68.7z"/>
		<path class="st0" d="M22.6,68.8c-0.5-0.2-0.5,0.7-0.1,0.7S22.8,68.9,22.6,68.8z"/>
		<path class="st0" d="M17.3,69.2c0.1-0.3-0.2-0.3-0.3-0.2c0,0.1,0.1,0.2,0.2,0.2C17.2,69.2,17.3,69.2,17.3,69.2z"/>
		<path class="st0" d="M19,69v0.2h0.2C19.2,69,19.1,69,19,69z"/>
		<path class="st0" d="M16.4,69.4c0.1-0.1,0.2-0.1,0.3-0.2C16.4,68.7,15.8,69.3,16.4,69.4z"/>
		<rect x="1.6" y="69.1" class="st0" width="0.1" height="0.1"/>
		<path class="st0" d="M33.2,69.2L33.2,69.2c0-0.1,0-0.1-0.1-0.1L33.2,69.2z"/>
		<path class="st0" d="M34.1,69.3c0,0.1-0.1,0.4,0.1,0.4C34.2,69.5,34.3,69.3,34.1,69.3z"/>
		<rect x="22.9" y="69.3" class="st0" width="0.1" height="0.1"/>
		<path class="st0" d="M17,69.5c0,0.1,0.1,0.1,0,0.2c0.1,0,0.2,0,0.3-0.1C17.3,69.4,17.2,69.4,17,69.5z"/>
		<path class="st0" d="M37.1,69.5C37,69.5,37,69.7,37,69.8c0,0,0.1,0.1,0.1,0.1l0.2-0.1C37.3,69.6,37.3,69.5,37.1,69.5z"/>
		<path class="st0" d="M33.8,69.7c0.1-0.1,0.1-0.2,0-0.2S33.7,69.7,33.8,69.7z"/>
		<path class="st0" d="M28.2,69.6c0,0.1,0,0.2,0.2,0.2S28.4,69.6,28.2,69.6z"/>
		<polygon class="st0" points="32.7,69.6 32.7,69.8 32.8,69.6 		"/>
		<path class="st0" d="M33.4,69.7c-0.2-0.2-0.4,0-0.5,0.2c-0.2-0.1-0.3,0-0.3,0.3s0.4,0.1,0.4-0.1h0.3C33.3,70,33.4,69.9,33.4,69.7z
			"/>
		<path class="st0" d="M23.1,69.9v-0.2h-0.2C22.9,69.9,23,69.9,23.1,69.9z"/>
		<path class="st0" d="M21.9,70c0-0.2,0-0.2-0.2-0.2c0,0.1-0.1,0.1-0.1,0.2C21.7,70,21.8,70,21.9,70z"/>
		<path class="st0" d="M45.5,70.2c0.1,0,0.2-0.1,0.2-0.2c0,0,0,0,0,0c-0.1,0-0.2,0-0.3,0C45.3,70.1,45.4,70.1,45.5,70.2z"/>
		<path class="st0" d="M31,70.1h-0.2c0,0.1,0,0.2,0.2,0.2L31,70.1z"/>
		<path class="st0" d="M21.9,70.6c0-0.1,0-0.2-0.1-0.3c-0.2,0-0.3,0.1-0.3,0.3S21.8,70.6,21.9,70.6z"/>
		<path class="st0" d="M22.3,70.5c0.1,0,0.1,0.1,0.2,0S22.3,70.2,22.3,70.5z"/>
		<path class="st0" d="M30.1,70.5v-0.2h-0.2C29.9,70.4,30,70.5,30.1,70.5z"/>
		<rect x="30.8" y="70.3" class="st0" width="0.1" height="0.1"/>
		<rect x="10.8" y="70.4" class="st0" width="0.2" height="0.1"/>
		<path class="st0" d="M49.4,70.9c0.1,0.1,0.3,0.1,0.4,0c0.1-0.1,0.1-0.1,0.1-0.2C49.7,70.5,49.3,70.6,49.4,70.9z"/>
		<path class="st0" d="M18.7,71.2c0.1-0.1,0.2-0.3,0.2-0.4C18.4,70.3,17.9,71.3,18.7,71.2z"/>
		<path class="st0" d="M34,70.8c0,0.1-0.1,0.3,0.1,0.3C34.2,70.9,34.2,70.8,34,70.8z"/>
		<path class="st0" d="M25.6,70.8l-0.1,0.1c0.1,0.1,0.1,0.3,0.2,0.4c0.1,0,0.2,0,0.3,0C26,71.1,25.8,70.9,25.6,70.8z"/>
		<path class="st0" d="M2.9,71.2c0,0.2,0.5,0.2,0.4-0.1S2.9,71,2.9,71.2z"/>
		<path class="st0" d="M30.1,71.1c-0.1,0.1,0,0.1,0,0.2C30.3,71.3,30.3,71,30.1,71.1z"/>
		<path class="st0" d="M33,71.3c0.1-0.1,0.1-0.2,0-0.2S32.8,71.3,33,71.3z"/>
		<path class="st0" d="M22.7,71.1l0,0.2l0.2,0.1C22.9,71.3,22.9,71.1,22.7,71.1z"/>
		<path class="st0" d="M28,71.3c0.1,0,0.2-0.1,0.2-0.2H28V71.3z"/>
		<path class="st0" d="M15.7,71.2l-0.1,0.1h0.2C15.8,71.3,15.8,71.2,15.7,71.2z"/>
		<path class="st0" d="M30.5,71.3v0.1C30.7,71.5,30.7,71.2,30.5,71.3L30.5,71.3z"/>
		<path class="st0" d="M80.8,71.8c-0.2-0.1-0.4,0-0.6-0.1s-0.3-0.4-0.6-0.4c-0.4-0.1-0.7-0.1-0.9,0.2c0.1,0.6,0.7,0.7,1.3,0.7
			c0.9,0.6,1.9,1,3,1.2c0-0.1,0.2-0.2,0.2-0.3c-0.4-0.4-0.9-0.2-1.4-0.4C81.4,72.4,81.2,72,80.8,71.8z"/>
		<polygon class="st0" points="16.4,71.6 16.5,71.6 16.6,71.4 16.4,71.4 		"/>
		<path class="st0" d="M20.1,71.6c0-0.1-0.1-0.2-0.2-0.2S20,71.6,20.1,71.6z"/>
		<path class="st0" d="M24.2,71.4c-0.2,0-0.4,0-0.4,0c0,0.1,0.1,0.3,0.2,0.4h0.3v-0.1h0.1C24.3,71.6,24.2,71.6,24.2,71.4z"/>
		<path class="st0" d="M22.4,71.8c0.2-0.1,0.1-0.3-0.2-0.3c-0.1,0.1-0.1,0.2,0,0.3C22.3,71.8,22.4,71.8,22.4,71.8z"/>
		<rect x="14.4" y="71.6" class="st0" width="0.2" height="0.1"/>
		<path class="st0" d="M29.6,72.1c0-0.1,0-0.5,0-0.3S29.6,72.2,29.6,72.1z"/>
		<path class="st0" d="M31,71.7h-0.1C30.7,71.8,30.9,71.8,31,71.7z"/>
		<rect x="32.7" y="71.7" class="st0" width="0.1" height="0.1"/>
		<path class="st0" d="M30.1,71.8c0,0.1,0,0.2,0.2,0.2S30.2,71.8,30.1,71.8z"/>
		<path class="st0" d="M30.6,72.2c0-0.1,0.1-0.3-0.1-0.2C30.5,72.1,30.5,72.2,30.6,72.2z"/>
		<path class="st0" d="M31,71.9c-0.1,0.1-0.1,0.4,0.2,0.3C31.2,72.1,31.1,72,31,71.9z"/>
		<path class="st0" d="M34.3,72c-0.1,0.2,0.3,0,0.2-0.1L34.3,72z"/>
		<path class="st0" d="M25.7,72.1c-0.1,0-0.2,0-0.3,0c0,0.2,0,0.3,0.3,0.3C25.8,72.3,25.8,72.2,25.7,72.1z"/>
		<path class="st0" d="M29.1,72.9c0-0.3-0.1-0.5-0.4-0.5c-0.2,0.2,0,0.6,0.3,0.6L29.1,72.9z"/>
		<rect x="34.7" y="72.5" class="st0" width="0.1" height="0.1"/>
		<path class="st0" d="M20.7,72.6c-0.4,0.2-0.2,0.6-0.3,1.1c-0.1,0.3-0.3,0.6-0.4,0.8c0,0.1,0,0.2,0,0.3s-0.2,0.2-0.3,0.3
			c-0.2,0.5-0.2,1.1-0.1,1.6c0.2,0,0.2,0.1,0.4,0.1c0.5-0.3,0.3-1.2,0.9-1.3c0-0.1,0-0.3,0-0.4c0.3-0.2,0.5-0.6,0.5-0.9
			C21.4,73.6,21.5,72.7,20.7,72.6z"/>
		<path class="st0" d="M21.9,72.8c0-0.1,0-0.2-0.2-0.2S21.9,72.7,21.9,72.8z"/>
		<path class="st0" d="M38,72.6c0,0.1,0,0.2,0.2,0.2S38.1,72.6,38,72.6z"/>
		<path class="st0" d="M3.1,72.8L3.1,72.8c0,0.2,0,0.2,0.2,0.2S3.3,72.8,3.1,72.8z"/>
		<path class="st0" d="M18.9,73.1v-0.2h-0.2C18.7,73.1,18.8,73.1,18.9,73.1z"/>
		<path class="st0" d="M17.7,73.7l0.2,0.1C18.6,73.6,17.7,72.8,17.7,73.7z"/>
		<rect x="28.1" y="73.3" class="st0" width="0.1" height="0.1"/>
		<path class="st0" d="M37.6,73.9c0-0.2,0-0.3-0.1-0.4C37.4,73.6,37.5,73.8,37.6,73.9z"/>
		<path class="st0" d="M27,73.8c0,0.3-0.2,0.2-0.2,0.4c0.3,0,0.2,0.6,0.5,0.6c0-0.3,0.3-0.4,0.3-0.7S27.3,73.8,27,73.8z"/>
		<path class="st0" d="M18.3,74h-0.2C18.1,74.2,18.3,74.3,18.3,74z"/>
		<path class="st0" d="M37.8,74.3L37.8,74.3H38C38,74.2,37.8,74.2,37.8,74.3z"/>
		<path class="st0" d="M22.6,75c-0.1-0.4-0.8-0.6-1.1-0.5c0.1,0.3,0,0.8,0.2,1.2H22c0.1-0.3,0.2-0.5,0.5-0.5L22.6,75z"/>
		<path class="st0" d="M23.9,74.4c-0.1,0.1,0,0.1,0,0.2h0.2C24.1,74.5,24,74.5,23.9,74.4z"/>
		<path class="st0" d="M27.6,74.8c0.1,0,0.3,0,0.3-0.1s-0.1-0.1-0.3-0.1V74.8z"/>
		<path class="st0" d="M17.9,74.8c-0.4-0.3-0.8,0.6-0.5,0.8c0.3,0.1,0.2-0.2,0.3-0.4S18,75,17.9,74.8z"/>
		<path class="st0" d="M30,75c0.2,0.1,0.3-0.3,0.1-0.2C30,74.9,30,74.9,30,75z"/>
		<path class="st0" d="M30.4,75.1c0-0.1,0-0.2-0.1-0.1S30.4,75.2,30.4,75.1z"/>
		<path class="st0" d="M30,75.5v-0.3h-0.2C29.8,75.3,29.9,75.4,30,75.5z"/>
		<path class="st0" d="M38.8,75.4c0.1,0,0.2,0,0.2-0.1s-0.1-0.1-0.2-0.1V75.4z"/>
		<path class="st0" d="M30.6,75.5c-0.1,0-0.1,0.1-0.1,0.2c0,0.1,0.1,0.1,0.2,0.1c0,0,0,0,0.1-0.1C30.8,75.6,30.8,75.4,30.6,75.5z"/>
		<path class="st0" d="M22.4,75.5c0,0.1,0.1,0.2,0.2,0.2C22.7,75.5,22.6,75.5,22.4,75.5z"/>
		<path class="st0" d="M27.5,75.5c-0.1,0.1-0.1,0.2-0.1,0.3c0,0.1,0.1,0.1,0.2,0.1c0.1-0.1,0.1-0.2,0-0.3
			C27.6,75.6,27.6,75.5,27.5,75.5z"/>
		<path class="st0" d="M29.4,76c0,0.1,0,0.2,0,0.3c0.1,0,0.2,0,0.2-0.1C29.6,76.1,29.5,76.1,29.4,76z"/>
		<path class="st0" d="M30.4,76.6c0.2,0,0.1-0.5-0.1-0.6C30.3,76.2,30.1,76.6,30.4,76.6z"/>
		<rect x="20.5" y="76.1" class="st0" width="0.1" height="0.1"/>
		<path class="st0" d="M23.9,76.5v0.1l0.1,0.1C24,76.6,24,76.5,23.9,76.5z"/>
		<path class="st0" d="M8.4,77.9c0.5-0.2,1.1-0.2,1.4-0.6c0.1-0.7-1.3-1-1.6-0.4c0.1,0.3,0,0.7,0.2,0.9L8.4,77.9z"/>
		<path class="st0" d="M23.6,77.5c0-0.3,0.2-0.3,0.2-0.6C23.5,76.1,22.9,77.5,23.6,77.5z"/>
		<path class="st0" d="M28.8,77.2v0.1l0.1,0.1C28.9,77.3,28.9,77.2,28.8,77.2z"/>
		<path class="st0" d="M17.9,77.6c0,0.2,0.1,0.4,0.3,0.5c0.2-0.1,0.3-0.4,0.2-0.7c0,0,0,0,0,0C18.2,77.4,18,77.5,17.9,77.6z"/>
		<path class="st0" d="M27,77.5c-0.1,0-0.1-0.1-0.2-0.1s0,0.3,0.2,0.3C27,77.7,27.1,77.6,27,77.5z"/>
		<path class="st0" d="M22.5,77.9c0.2,0,0.2-0.1,0.2-0.3C22.5,77.5,22.4,77.8,22.5,77.9z"/>
		<rect x="19.2" y="77.6" class="st0" width="0.2" height="0.2"/>
		<path class="st0" d="M30.7,77.8c0,0.1,0,0.5,0.1,0.3S30.8,77.6,30.7,77.8z"/>
		<path class="st0" d="M28.4,77.8c0,0.2,0.1,0.3,0.3,0.3C28.7,77.9,28.6,77.7,28.4,77.8z"/>
		<polygon class="st0" points="18.8,78 18.7,78.1 18.7,78.2 18.8,78.2 18.9,78.2 19,78.2 19,78.1 18.9,78 		"/>
		<path class="st0" d="M27.2,79.3c0.2-1-0.6-1.1-1.3-1.3c0,0.2,0.2,0.2,0.2,0.4c-0.1,0.7,0,1.3,0.1,2c0.3,0.2,0.7,0.2,1-0.1
			c0.1-0.1,0.2-0.3,0.2-0.5c0.1,0,0.3,0,0.4-0.2S27.3,79.5,27.2,79.3z"/>
		<path class="st0" d="M30.1,78.3c-0.4,0.1-0.5,0.8,0,0.8S30.8,78.2,30.1,78.3z"/>
		<path class="st0" d="M18.5,79.4c0.1,0,0.2,0.1,0.3,0C18.9,79.1,18.5,79.2,18.5,79.4z"/>
		<path class="st0" d="M31.1,79.6c0.3,0.1,0.2-0.2,0.2-0.4C31,79.2,31.1,79.4,31.1,79.6z"/>
		<path class="st0" d="M41.9,80.4v-0.2c-0.1,0-0.1,0-0.2,0.1S41.8,80.4,41.9,80.4C41.9,80.4,41.9,80.4,41.9,80.4z"/>
		<path class="st0" d="M71.3,80.5c0,0.1,0.1,0.1,0.1,0.3c0.2,0,0.1-0.1,0.1-0.3H71.3z"/>
		<path class="st0" d="M37.7,81.8c0,0.1,0,0.4,0,0.2S37.8,81.6,37.7,81.8z"/>
		<path class="st0" d="M20.2,82.5v-0.2c-0.2-0.1-0.4-0.2-0.7-0.1c0,0.4,0.3,0.9,0.7,0.8S20.3,82.6,20.2,82.5z"/>
		<path class="st0" d="M5.5,85.3c0-0.1,0.1-0.1,0-0.2S5.4,85.3,5.5,85.3z"/>
		<path class="st0" d="M64.2,87.4c0.1,0,0.1,0.2,0.2,0.2S64.3,87.2,64.2,87.4z"/>
		<path class="st0" d="M94.9,7.2c0,0.1-0.3,0.2-0.1,0.2S95.1,7.2,94.9,7.2z"/>
		<path class="st0" d="M42.7,22.8c0.2-0.2,0.3-0.7,0.5-0.8c-0.2-0.1,0-0.2,0-0.2c0-0.1-0.1-0.1,0-0.2l0.1,0.1c0-0.1-0.1-0.1-0.1-0.3
			v-0.1h0.1c0-0.2,0-0.4,0.1-0.7c0,0.1,0,0.4,0.1,0.2c-0.1-0.6-0.1-1.1,0-1.7c-0.1-0.1-0.3-0.1-0.4-0.1c-0.6,0.8-1.5,2.7-0.8,3.7
			L42.7,22.8z"/>
		<polygon class="st0" points="42.4,25.3 42.3,25.2 42.3,25.3 		"/>
		<path class="st0" d="M41.4,27.1c0.5,0,0.5-0.7,0.8-1l0.1,0v0l0,0c0.1-0.2,0.1-0.4,0.1-0.6h-0.1v-0.1l-0.1,0l0.1-0.1h0.1h0.1
			c0-0.3,0-0.5,0-0.8c-0.2,0-0.2,0-0.3-0.1c0.2-0.1,0,0,0.2,0c0-0.4-0.2-0.6-0.3-0.8c-0.8-0.2-1,0.7-1.2,1.4S40.4,27.2,41.4,27.1z"
			/>
		<path class="st0" d="M27.7,31.4c0.5,0.3,0.3,1.2,0.8,1.4c0.1-0.2,0.8-0.5,0.8-0.7s-0.1,0,0.1-0.2v-0.2l0.2-0.2
			c0.2-0.3,0-0.8,0-0.9l-0.2,0.1c0.1-0.1,0.3-0.2,0.2-0.3h-0.1c0.1-0.3,0-0.7-0.2-0.9c-0.4-0.2-0.8-0.1-1.1,0.2
			c-0.1,0.5-0.1,1.1-0.5,1.4L27.7,31.4z"/>
		<path class="st0" d="M18.6,31.7c0.2,0.8,0.7,1.4,1.3,1.3c0-0.3,0.4-0.5,0.3-0.8v0.2c0.1-0.2-0.1-0.3,0.1-0.3
			c-0.2-0.3-0.3-1-0.5-1.3l0,0.1c0.2-0.3-0.2-0.1-0.1-0.4c-0.2,0.1-0.3-0.1-0.2-0.2c-0.1,0.2,0.2,0.2,0,0.1c0-0.3-0.2,0-0.2-0.2
			s0.1,0.1,0.1-0.1s-0.1,0-0.1,0c0-0.6-0.3-0.7-0.9-0.6l-0.2,0.2c0,0.7,0.1,1.3,0.2,2L18.6,31.7z"/>
		<path class="st0" d="M20.7,30.6c0,1,0.5,2.3,1.6,2c0-0.2,0.2-0.2,0.2-0.4c-0.1,0-0.1-0.1-0.1-0.2s0.1,0.2,0.2,0.1l0-0.1h-0.1h0.1
			c-0.1-0.2,0-0.4,0.1-0.2c-0.1-0.3-0.2-0.6-0.4-0.9l0,0.2c0-0.1,0.2-1.2-0.1-0.9c-0.1-0.2,0.1-0.1,0.1-0.4
			c-0.1-0.1-0.3,0.1-0.3-0.3C21.1,29.2,20.7,29.9,20.7,30.6z"/>
		<path class="st0" d="M61.2,30.5L61.2,30.5c0.2-0.2,0.5-0.8,0.2-1.1c-0.5,0-0.5,0.8-0.3,1.2L61.2,30.5z"/>
		<path class="st0" d="M61,31.4L61,31.4L61,31.4c-0.3,0.1-0.6,0.2-0.6,0.6C60.7,32.2,60.9,31.7,61,31.4z"/>
		<path class="st0" d="M38.1,31.8h0.4l0-0.2h0.1v-0.1h0.1v-0.1h-0.1v-0.1h0.1l0.1,0.1l0,0v-0.1l0-0.1V31v-0.1v0
			c-0.2,0,0.1-0.2-0.1-0.2l0.1,0h0.1l0,0c0.2-0.1,0-0.4,0.1-0.6c-0.1,0-0.2-0.1-0.3-0.1C38.3,30.3,37.6,31,38.1,31.8z"/>
		<path class="st0" d="M29.9,32.4c0.3,0.3,0.6-0.3,0.5-0.7h-0.1v-0.1c-0.1,0.1-0.2-0.2-0.1-0.2l0.1,0.1v-0.1h0.1
			c0.1-0.1,0.1-0.2,0-0.1c0.1-0.2,0-0.2-0.1-0.3c0.2,0,0.2-0.3,0.1-0.5c-0.2-0.1-0.5-0.1-0.7,0.1C29.8,31.3,29.5,32,29.9,32.4z"/>
		<path class="st0" d="M78.7,66.8c-0.6,0.1-0.8,0.6-1.6,0.4c-0.3-0.2-0.6-0.2-0.9-0.3c0-0.2-0.2-0.2-0.2-0.4s0.3-0.2,0.2-0.5
			c-0.3-0.2-0.5,0.2-0.8,0.2c-0.3,0-0.7-0.1-0.9-0.3c-1.1-0.1-1.5-0.7-2.4-1c-0.7,0.1-1.4,0.1-2.2,0.1c-0.7-0.1-1.4-0.5-2-0.4
			c-0.4-0.3-0.9-0.4-1.3-0.7c-0.3,0-0.3-0.1-0.6-0.1c-1.2-0.8-2.8-1.3-4-2c-0.5-0.1-1-0.3-0.9-0.9c0.2-0.7,0.6-1.4,1.3-1.3
			c0.1-0.1,0.1-0.2,0.3-0.2s0.3,0.1,0.5,0.1c0.3-0.1,0.5,0,0.8,0c0.4,0.1,0.7,0,1,0.1c1.2,0.2,2.7,0.8,3.9,0.5c0.2,0,0.5,0,0.7-0.1
			c0.5-0.1,0.9-0.3,1.3-0.5c0.6-0.2,1.2-0.4,1.8-0.6c0-0.2,0.2-0.3,0.1-0.5c-0.3,0-0.3,0.3-0.5,0.4c-0.2,0.2-0.6,0.1-0.9,0.2
			c-0.6,0.3-1.2,0.5-1.9,0.7c-0.3,0-0.6,0-0.9-0.1c-0.6-0.1-1.3-0.1-1.9-0.2c-0.8-0.2-1.7-0.4-2.4-0.6c0-0.3,0.3-0.3,0.4-0.5
			s0.4-0.7,0.7-0.9c0.3-0.2,0.7-0.4,1.1-0.5c0.3-0.3,0.7-0.5,1.1-0.7c0-0.2,0.1-0.2,0.1-0.3c0.7-0.4,1.4-0.8,2-1.3
			c0.1-0.1,0.3-0.2,0.4-0.3c0.5-0.5,0.8-1.3,1.5-1.4c-0.1-0.2,0.3-0.3,0.2-0.7c-0.1,0-0.2-0.2-0.3-0.2c-0.2,0.3-0.4,0.6-0.8,0.7
			c-0.8,1.5-2.3,2.5-3.9,2.7c-0.6-0.3,0-1.2,0.6-1.3c0.4-0.4,0.9-0.9,1.4-1.3c0.1-0.1,0.3-0.2,0.5-0.3c0.3-0.3,0.6-0.7,0.8-1.1
			c0.3-0.4,0.6-0.6,0-0.8c-0.2,0.1-0.2,0.3-0.3,0.4c-0.1,0.1-0.2,0.3-0.3,0.4V52c-0.5,0.8-1.4,1-2.1,1.5c-0.1-0.2-0.3,0-0.5,0
			c-0.2,0.2-0.3,0.4-0.6,0.5c-0.3,0.9-0.8,1.6-1.6,2.2c-0.3,0.2-0.6,0.3-0.9,0.4c-0.5,0.3-0.8,0.6-1.5,0.5c-0.2,0.1-0.4,0.2-0.7,0.3
			c-0.1-0.2-0.3-0.2-0.4-0.4c0.1-0.2,0.1-0.5,0.1-0.8c0.2-0.1,0.2-0.5,0.5-0.5v-0.2c0.1-0.2,0.3-0.3,0.4-0.4s0.1-0.3,0.2-0.5
			c0.2-0.3,0.3-0.6,0.3-1c0.8-0.8,1.4-1.8,1.8-2.8c0.1-0.2,0.2-0.4,0-0.5c-0.1,0-0.3,0-0.4,0.1c-0.2,0.3-0.1,0.6-0.2,0.9
			c-0.2,0.4-0.4,0.7-0.7,1c-0.5,0.6-1,1.1-1.7,1.5c-0.1,0.9-0.4,1.7-1,2.3c-0.2,0-0.1-0.2-0.3-0.1c-0.2,0.4-0.6,0.6-0.9,0.8
			c0-0.1-0.2,0-0.2-0.2c0-0.4,0.2-0.8-0.1-0.9c-0.3,0,0,0.4-0.1,0.7c-0.2,0.2-0.4,0.4-0.7,0.4c-0.3-0.2-0.8-0.5-1.1-0.2
			c-0.2-0.1-0.2-0.3-0.2-0.6c-0.3-0.2-0.4-0.1-0.7,0c-0.6-0.4-1.4-0.5-2.1-0.5c-0.3-0.4-1.2-0.3-1.5-0.7c0.2-0.6,0.3-1.3,0.4-1.9
			c0.2,0,0.1-0.3,0.3-0.3c0.3-0.7,0.2-1.5-0.1-2.2c-0.1-0.2-0.3-0.4-0.5-0.6c-0.4-0.5-0.6-1.1-0.9-1.4c-0.5,0-0.7-0.5-1.2-0.4
			c-0.1-0.3-0.2-0.5-0.2-0.8c-0.3-0.4-0.6-0.9-0.7-1.4c0.4-0.3,0.7-0.8,1-1.2l-0.1-0.2c-0.2-0.1-0.4-0.2-0.7-0.1
			c-0.1,0.7-1,0.5-0.9,1.3c-0.6,0.3-1.5,0.5-1.7,1.2c-0.1,0.3,0,0.6,0,0.9c-0.1,0.3-0.3,0.6-0.5,0.8c-0.7,0-1.3,0.1-1.9,0
			c-0.2,0.2-0.5,0.6-0.7,0.5c0-0.2,0.1-0.3,0.1-0.4l-0.1-0.1v-0.1c-0.3,0-0.1,0.3-0.2,0.4c-0.2,0.3-0.5,0.5-0.9,0.6l-0.4,0
			c-0.2-0.1-0.2-0.4-0.2-0.5l-0.2-0.2c-0.2-0.5-0.4-0.9-0.6-1.4c0.2-0.2,0.4-0.4,0.6-0.6c0.2-0.2,0.6-0.3,0.4-0.7
			c-0.5,0.3-1.1,0.6-1.7,0.9c-0.4,0-0.5-0.6-0.7-0.9c-0.4,0.4-1.3,0.3-1.2,1.3c-0.4,0-0.3-0.5-0.5-0.7c-0.8,0.1-1,1-1.8,1.2
			c0,0.1,0,0.1-0.1,0.2c0,0.3,0.1,0.6,0.2,0.8c-0.1,0.1-0.3,0.3-0.5,0.2l0.1-0.1c-0.1,0-0.1,0.1-0.2,0.1c-0.2-0.3-0.3-0.6-0.3-1
			c-0.1-0.7-0.1-1.5,0-2.2h0.2c0-0.2-0.1-0.4,0-0.5l0.1-0.1l-0.1-0.1c0-0.2,0-0.4,0-0.7c0.1-0.1,0.2-0.1,0.2-0.3s-0.2,0-0.4-0.1
			c0,0.3-0.3,0.3-0.3,0.7c0.1,0.1,0.3,0.1,0.3,0.2c-0.1,0.4-0.1,0.9-0.4,1.2c0.2,0.6,0.5,2-0.1,2.4c0.1,0.2,0,0.2,0,0.4
			c-0.4,0.3-0.4,1.1-0.6,1.4c0,0.2,0.2,0.3,0.1,0.4l-0.1,0v0.1h-0.1c0,0.1-0.1,0.1-0.1,0.2h0.1v0.1l0.1,0h0.1v0.1V51h0.1h0.1
			c0.2,0,0.1-0.2,0-0.3s0.1,0.2,0.2,0.1c0,0.2-0.1,0.4-0.3,0.4v0.1h-0.1h-0.3h-0.1h-0.1c0,0.1-0.3,0.1-0.2,0h-0.1v-0.1
			c-0.1,0-0.1,0-0.1-0.2c-0.1,0.3-0.3,0.2-0.5,0.2c0-0.2,0.2-0.1,0.3-0.2h-0.1v-0.1c-0.1,0-0.1-0.1-0.2-0.1c0.3-0.1,0.2-0.3,0.4-0.4
			c0,0.1,0,0.2,0,0.3c0.3-0.1-0.1-0.4,0.3-0.3v-0.1h0.1c0-0.1-0.2,0-0.2-0.1s0.4-0.2,0.1-0.2c0.1-0.2-0.1,0-0.3-0.1s0.1-0.2-0.1-0.2
			s0,0.3-0.2,0.3c0-0.2,0.1-0.3,0-0.4c-0.1,0-0.1,0.1-0.3,0.1c-0.1,0.1,0,0.3-0.2,0.4s0-0.2-0.2-0.2V50v-0.1c-0.2,0-0.3,0.1-0.5,0.2
			s-0.1-0.2-0.2-0.2c0.1,0.2-0.2,0.2-0.2,0.2c0-0.3-0.1,0-0.2-0.2c0.3,0,0.3-0.3,0.4-0.4h-0.1H33c0-0.2,0-0.4,0.2-0.4
			c0,0.1,0,0.2,0,0.3c0.2,0,0.2,0.1,0.3,0c0-0.2,0-0.4-0.3-0.3c0-0.3,0.2-0.5,0.5-0.5l0.1,0.2H34v0.1c0.1,0,0.1,0,0.2,0
			c0,0.1,0.2,0.1,0.2,0.2h0.1V49c0,0.1,0,0.2,0.2,0.2s0.2-0.2,0.2-0.3h-0.1l-0.1-0.1c-0.2-0.1-0.1-0.2-0.2-0.3s-0.4,0-0.2-0.2h0V48
			c-0.1-0.5,0.6-0.6,0.7-1.2h0.2v-0.4c-0.7-0.1-0.7-0.9-1-1.4L34,45.1h-0.1c0,0.2,0,0.4-0.1,0.6c0.2,0.2,0.3,0.4,0.4,0.7
			c-0.1,0.2-0.1,0.5,0,0.6c-0.1,0.1-0.2,0.2-0.3,0.3c-0.5-0.4-1-0.8-1.5-1.3c-0.1-0.2-0.2-0.3-0.1-0.5c-0.4,0-0.7-0.2-0.8-0.5
			c0.1,0,0.1-0.5,0.3-0.4c0-0.1-0.1-0.1-0.1-0.3c0.1,0,0.2,0,0.3,0C32,44,32.3,44,32.3,43.9s0-0.2,0-0.3c0.2-0.3,0.4-0.3,0.3-0.7
			c0.6-0.3,0.1-1.2,0.5-1.7c0.1,0,0.2,0.2,0.3,0.2c0.2-0.2,0.7-0.4,0.4-0.8c-0.2,0-0.3,0-0.4,0.1c-0.4-0.6,0.2-1.9-0.3-2.6
			c-0.1-0.3,0.1-0.3,0.1-0.6c-0.1-0.1-0.2-0.1-0.2-0.3c0-1.5,0.2-3.1,0.4-4.6l-0.1-0.2c-0.8-0.3-1.3,0.6-1.2,1.5
			c-0.7,0.6-0.5,1.9-1.3,2.4c-0.1,0.8,0,1.6,0,2.4c-0.1,0.1-0.1,0.2-0.2,0.3c0.1,0.4,0,0.9,0,1.4c-0.2-0.2-0.1,0.2,0,0.3
			s-0.2,0-0.2,0.1c0.2,1-0.4,1.5-0.6,2.3c0.1,0.1,0.2,0.2,0.3,0.3s-0.3,0.3-0.4,0.4c-0.1,0.3,0,0.3,0.1,0.5
			c-0.2,0.8-0.2,1.7-0.1,2.5h-0.2c0.2,0.3,0,1.1-0.1,1.2c0.2,0.1-0.1,0.2-0.1,0.3h0l0,0c0,0.2-0.2,0.2-0.2,0.4
			c0.2,0,0.3,0.2,0.3,0.3c-0.1,0.2-0.2,0.5-0.3,0.7h0l0,0c0.1,0,0.2,0,0.2,0.2c-0.1,0-0.1-0.1-0.1,0h-0.2v0.1h-0.1
			c-0.1,0.1-0.1,0-0.2,0s0.1,0.2-0.1,0.3s-0.2-0.7,0.1-0.8c0-0.3-0.3-0.4-0.4-0.6c0.1-0.2-0.2-0.5-0.3-0.6h0.1
			c-0.1,0-0.2,0.1-0.2-0.1s0.1-0.3,0-0.2c0-0.1,0.1-0.2,0-0.3c0.1,0,0.1,0.1,0.3,0c0-0.3-0.2-0.6-0.4-0.8c0-0.5-0.2-1-0.4-1.5h-0.1
			v-0.1c-0.2-0.5-0.6-0.7-0.8-1.3s-0.1-1-0.5-1.2c0,0.3-0.1,0.4-0.1,0.6s0.3,0,0.3,0.1c-0.1,0.5,0.2,0.8,0,1.2
			c0.2,0.4,0,1.3-0.5,1.3c0-0.2-0.1-0.2-0.1-0.3h-0.3c0-0.2-0.3-0.3-0.4-0.5s-0.3-0.5-0.6-0.2C25,45.6,25,46.3,25,47
			c-0.1,0-0.2,0-0.3,0c0,0.2,0,0.4,0,0.5c0.1-0.1,0.2-0.1,0.3-0.2c0.3,0.2,0.4,0.5,0.8,0.5c0.1-0.3-0.1-0.5,0.2-0.7
			c-0.3,0-0.1-0.5-0.1-0.5c0.4,0,0.1,0.5,0.1,0.5l0.1,0.1c0,0.5-0.2,0.9-0.5,1.2c-0.1,0.3,0,0.7,0.2,1h0.1v0.1
			c0.3,0.4,0.9,0.3,1.4,0.3c0,0.3,0.1,0.3,0.1,0.6c-0.4,0.1-0.9-0.2-1-0.3s-0.6-0.2-0.5-0.6h-0.1v-0.1c-0.2-0.1-0.3-0.3-0.4-0.5
			c-0.4-0.2-0.8-0.5-1.1-0.8L24,48.1c0,0.3,0.4,0.3,0.4,0.5h0.1v0.1c0.2,0.1,0.3-0.1,0.4,0.1c-0.1,0.1-0.3,0-0.4,0.1l0-0.2h-0.1
			v-0.1c-0.1,0-0.3,0.1-0.4,0.1c0,0.3,0.3,0.3,0.3,0.5c-0.1,0-0.2,0-0.2,0.1c0.2,0,0.4,0.3,0.7,0.3c0.3-0.3-0.1-0.5,0.3-0.7
			c0.2,0.3,0.4,0.6,0.5,0.9c0.1-0.1,0.2,0.2,0.2,0.3s-0.2,0.1-0.2,0.3c0,0.4,0.5,0.5,0.3,0.9c0.3,0,0.3,0.2,0.7,0.2
			c0,0.2,0.1,0.3,0.2,0.3c0-0.2,0.1-0.1,0.2-0.3c-0.2,0-0.2-0.3-0.2-0.4c0.3,0.1,0.4-0.1,0.5-0.2c0,0.4,0.4,0,0.6,0.1
			c0.1-0.5,0.6-0.4,0.9-0.6v-0.1h0.1c0.1-0.2,0.4,0,0.3,0.2c-0.1,0-0.1,0.1-0.2,0.1v0.1L28.9,51c0,0.1,0.1,0.3,0.2,0.4h0.1v0.1
			c0.2-0.1,0,0.2,0,0.2s0.2,0.1,0.4,0.2c0.1-0.2-0.2,0-0.1-0.2s0.1,0,0.2,0v-0.1h0.1c0.1,0,0.2,0,0.2,0.1h-0.1v0.1h-0.1
			c0,0.1-0.1,0.2,0,0.3s-0.2-0.1-0.2,0.2h-0.1c-0.1,0-0.1-0.1-0.1-0.2c0,0,0,0,0,0L29.3,52v0.1h-0.1c0.1,0.2-0.1,0.4-0.2,0.2H29
			v-0.1c-0.1,0-0.3-0.2,0-0.2c-0.1,0-0.2-0.3,0-0.3v-0.1H29c-0.1-0.2-0.1-0.3,0-0.5c-0.3,0.1-0.5-0.1-0.7,0.1c0.1,0,0.3,0.2,0.2,0.2
			l-0.1,0.1h0.1v0.1V52h-0.2v-0.1h-0.1v-0.1c-0.2,0.1-0.3,0.2-0.5,0.3c0,0.2,0,0.3,0,0.5c0.2,0.2,0.7,0.1,0.8,0.4
			c0.2,0,0.3,0.1,0.4,0v-0.2c0.3-0.1,0.5-0.1,0.8,0v-0.1h0.1v-0.1c0.1-0.2,0.2,0,0.2-0.2l0,0c0,0.2-0.1,0.1-0.1,0.2H30
			c0,0,0,0.3,0.3,0.3l0,0.2c0.1,0,0-0.1,0.2-0.1l0.1-0.1h0.1v0.1v0.1v0.2c-0.2,0-0.3,0.3-0.4,0.2h-0.1l0,0v0.1H30h0v0.1v0.1
			c0,0.1,0,0.2-0.1,0.2v0.1h-0.1v0.2h0.1v0.1v0.2l0.1,0.1c0,0,0,0.1,0.1,0.1c0,0.2,0.1,0.1,0.1,0.3l-0.2,0.1c-0.1,0,0-0.2,0-0.2
			l0-0.1l0,0c0,0,0-0.1,0-0.1h-0.1l-0.1-0.1c-0.1-0.1-0.1,0.1-0.3,0c0-0.1,0.3-0.1,0.3-0.3v-0.1v0c-0.1,0,0-0.2,0-0.2V54h0.1l-0.2,0
			h-0.1v-0.1l0-0.1v0.1h-0.1c-0.1,0.1-0.2,0.3-0.4,0.3c0.2,0.3-0.1,0.5-0.1,0.8h0.1v0.1c0.2,0.1-0.1,0.3-0.1,0h-0.1v-0.1
			c-0.2,0-0.3,0.2-0.4,0.1c0.1-0.3,0.1-0.5,0.2-0.8c-0.1-0.2-0.3,0-0.4-0.1c0.2-0.2,0.2,0,0.4,0v-0.3h-0.1h-0.1
			c-0.2-0.1-0.4,0.2-0.5-0.1h-0.1v-0.1c-0.3,0.2,0.1,0.5,0.2,0.6c-0.1,0-0.2,0.1-0.3,0.2c0.1,0.3,0.1,0.3,0,0.7
			c0.2,0.1,0.4,0.1,0.5,0.4c-0.5,0.1-1,0.2-1.4,0.3c-0.2-0.3-0.6-0.5-0.6-1c-0.3-0.2-0.7-0.3-0.9-0.7l-0.1,0v-0.1
			c-0.3-0.1-0.5-0.4-0.4-0.7c0,0,0,0,0,0c-0.3-0.1-0.5,0-0.5-0.3c0.2,0.2,0.5-0.2,0.7,0.2l0.1,0l0,0c0.3,0.2,0.3,0.2,0.8,0.2
			c0.1,0.1-0.1,0.2,0,0.3c0.2,0,0.4,0.1,0.5,0.3c0-0.3,0.5,0.2,0.5-0.3c-0.2-0.1-0.4-0.2-0.4-0.4c-0.2-0.1-0.3,0-0.3-0.1v-0.1H26
			v-0.1l0,0c0-0.2,0.3-0.1,0.2-0.4c-0.5,0-0.8-0.4-1.3-0.2c0.1,0,0,0.2-0.1,0.2c-0.4-0.2-0.5,0.3-0.8,0.3l0-0.1c0-0.1,0.4,0,0.3-0.2
			s-0.3-0.1-0.3-0.2s-0.2-0.2-0.2-0.4s-0.4,0-0.4-0.1c0.3-0.4,0-0.8,0-1.2c-0.1-0.1-0.3,0.1-0.4-0.1c-0.2,0.1-0.2,0.3-0.6,0.3
			c0,0.2-0.3,0.1-0.3,0.3h0.1v0.1c0,0.2,0.2,0.2,0.3,0.3v-0.1h0.1c0.2,0.1,0.4,0.2,0.5,0.4c-0.2,0.1-0.3,0.4-0.6,0.4l-0.1,0v0h0
			c-0.3,0-0.3,0.6,0,0.5v-0.1h0.1c0.1,0,0.1-0.1,0.2-0.1c0.7,0.4,1.5,0.5,1.9,1c0,0.1-0.3,0-0.2,0.2c0.3,0,0.4-0.1,0.5,0.1
			c-0.1,0.2-0.3,0.3-0.4,0.4h0.1l0.1,0.1c0.2,0,0.4-0.1,0.5-0.2c0.5,0.3,0.2,0.7,0.1,1.2l0.1,0.1v0.1c0.4,0,0-0.5,0.4-0.4l0,0l0,0
			c0.1-0.1,0.2,0.1,0.2,0.2l0,0H26c0.1,0,0,0.2,0.2,0.2c0,0.1-0.2,0.2-0.3,0.3c-0.1,0,0.1-0.2,0-0.3h-0.1v-0.1l-0.2,0v0.1h-0.1v0.5
			c-0.2,0-0.2,0.1-0.3,0.2c0.1,0,0.1,0.2,0.3,0.2h0.1v0.1c0.1,0.3,0.4,0.5,0.5,0.8h0.1h0c0.1,0,0.1,0.2,0.2,0.3v0v0.1
			c0.1,0.5,0.1,1-0.2,1.4c-0.1-0.3-0.4-0.1-0.6,0c0-0.4,0.4-0.4,0.6-0.5c-0.1-0.2,0.1-0.3,0.2-0.5c-0.1-0.1-0.1-0.3-0.4-0.2
			s0,0.3-0.1,0.3c0-0.2,0-0.3-0.2-0.5c-0.2,0-0.3,0.3-0.4,0.4c0.2,0.3,0,0.5,0.2,0.8c-0.3-0.1-0.1,0.5-0.3,0.2
			c0.1,0.2-0.3,0.3-0.3,0.4c0.2,0,0,0.4-0.2,0.3c-0.1,0.4-0.3,0.6-0.7,0.7h-0.1v-0.1c-0.5,0.1-0.5-0.2-1-0.3c0,0.4,0.5,0.4,0.5,0.8
			c-0.2,0.1-0.3,0.3-0.4,0.4L23,61.1c0,0.2-0.1,0.4-0.3,0.5c-0.3-0.1-0.7-0.2-1-0.2v0.1l-0.1,0.1c0.3,0.2,0.8,0.1,1.1,0.3
			c-0.1,0.1-0.3,0-0.5,0.2c0.1,0.5-0.2,1-0.7,1.2l0.1,0.1v0.1c0.5-0.1,1,0,1.3-0.2l0.1,0.1v-0.1h-0.1c0-0.2,0-0.5-0.2-0.7h0.2
			c0.2-0.3,0.3-0.7,0.8-0.7c0,0.1,0.3,0.3,0,0.4s-0.1-0.2-0.2-0.2s-0.2,0.1-0.3,0.2s0.2,0.2,0.2,0.4c-0.2,0-0.2,0.2-0.3,0.3l0.1,0.1
			v0.1c0.2-0.2,0.4-0.5,0.8-0.5c0.5-0.3,0.5-0.9,0.6-1.4c0-0.1-0.2-0.2-0.2-0.3c0.3-0.1,0.5-0.4,0.8-0.3c0-0.1-0.1-0.1,0-0.2h0.2
			v-0.1h0.1c0.2-0.1,0.2-0.3,0.2-0.5c0.1,0,0.3-0.2,0.3-0.1h0.1h0c0.1,0,0.1-0.1,0.2-0.2c0.4,0.2,0.5-0.3,0.7-0.5
			c0-0.1-0.1-0.1-0.2-0.2c0.2-0.5,0-0.8,0.2-1.1H27v-0.1c-0.1-0.1,0-0.5,0.2-0.5c-0.1-0.4,0.3-0.9,0.5-0.6c0.1-0.1,0.3-0.2,0.5,0
			c-0.1,0.2,0,0.4-0.2,0.6c0.1,0.1,0.3,0.1,0.4,0.3v-0.1c0,0,0.1,0,0-1c0.2,0.1,0,0.5,0.4,0.5c0,0.1,0.1,0.7,0,0.3
			c0-0.1-0.1-0.1,0-0.2c-0.1,0-0.2,0.2-0.3,0.3l0,0v0.1c-0.1,0.2-0.5,0-0.4,0.4l-0.1,0h-0.1h-0.1l-0.3,0.2c0.1,0.3-0.1,0.5-0.1,0.8
			c-0.3,0-0.3,0.3-0.2,0.4h0.1l0.1,0.1c0.1,0,0.1-0.3,0.2-0.1c-0.1-0.1,0-0.3,0.2-0.3v-0.1l0.1-0.1c-0.1-0.3,0.3-0.3,0.5-0.3
			c-0.1,0.4,0.1,0.5,0.1,0.9h0.1l0.1,0.1c0.3-0.1,0.1-0.4,0-0.7s0.1-0.1,0.2-0.1c0-0.5,0.4-0.7,0.5-1.1c0.1,0.2,0.3-0.1,0.3,0.2
			l-0.2,0h0.1v0.1c0.1,0,0.2,0,0.2,0.2c-0.1-0.1-0.2,0-0.2-0.2h0h-0.1c-0.1,0-0.2,0-0.2,0.1c0.1,0.2,0,0.4,0.2,0.4l0.1-0.1h0.1
			l0-0.1c0.1,0.1,0.2,0.4,0.1,0.5c-0.1,0-0.1,0-0.2-0.1h-0.1h0c-0.6-0.4-0.7,0.7-0.5,1c-0.1,0.3,0,0.5,0.1,0.7h0.1v0.1
			c0,0.2-0.1,0.2,0,0.3s-0.1-0.1-0.2,0l0-0.1h-0.1v-0.1l-0.1-0.1c-0.2,0.1-0.2,0.3-0.3,0.4c-0.1-0.1-0.2-0.4-0.2-0.3
			c0-0.1-0.1-0.3,0.2-0.3l0,0v-0.1c0.1-0.2,0-0.2,0.1-0.4l-0.1-0.1v-0.1c-0.1,0-0.2,0-0.2-0.2h-0.1v-0.1L28.1,59H28h-0.1
			c-0.1,0.1-0.1,0.2-0.1,0.4h0.1v0.1c0.1,0,0.2,0,0.2,0c0,0.2-0.1,0.1,0,0.3c-0.1-0.1-0.1,0-0.2-0.1h-0.1l-0.1,0.1
			c0.4,0.3,0,0.6-0.1,0.9h0.1l0.1,0.1c0.1,0,0.1-0.1,0.1-0.2c0.2-0.1,0.3,0.5,0.4,0.2c0.3,0.1-0.1,0.2,0,0.4c-0.7-0.1-0.6,0.4-0.5,1
			c-0.1-0.1-0.3-0.1-0.4-0.2h-0.1L27,62c-0.1,0.2-0.1,0.4-0.3,0.5l0.1,0.1v0.1c0.3,0.1,0.4-0.2,0.5-0.1c0,0.3-0.4,0.5-0.3,0.7
			l-0.1,0.1v0.1h-0.1c0,0.1,0,0.3-0.1,0.2v-0.1h-0.1v-0.1h0h-0.1v-0.1l-0.1,0.1c-0.1,0-0.2-0.1-0.3-0.1v-0.1H26v-0.1h0
			c-0.1-0.1,0-0.4-0.2-0.4c-0.3-0.1-0.4,0.3-0.7,0.5c-0.1-0.1-0.1-0.2-0.3-0.1c0,0.3,0,0.6-0.1,0.9H25l0.1,0.1c0.1,0,0.2,0,0.2-0.2
			s0.1,0.1,0.1,0.2c-0.1,0-0.1,0-0.2,0.1h0v0.1c0.2,0.4,0.1,0.8-0.3,1c0.2,0.2,0,0.8,0,1.1h-0.1v0.1v0.1c0,0.8,0.1,1.6,0.1,2.2
			c-0.1-0.1-0.2-0.1-0.3-0.1c0,0.3,0.3,0.3,0.3,0.5c-0.2,0.8-0.2,1.6-0.2,2.4c0,0.8-0.2,1.6-0.3,2.4s-0.3,1.4-0.3,2
			c0,0.4,0,0.8,0.3,1c0.4,0,0.2-0.3,0.2-0.5c0-0.4,0-0.9,0-1.4c0.1-1.1,0.5-2.2,0.5-3.2c0.1,0,0.2-0.1,0.3-0.2v-0.5
			c0-0.1-0.2,0-0.2-0.1c0.1-0.3,0.2-0.8,0.5-0.9c0.3,0.1,0.5,0.3,0.6,0.6c-0.1,0-0.2,0.1-0.2,0.3c0.3,0.5-0.1,1.1,0,1.7
			c-0.1,0.1-0.1,0-0.3,0.1c0.3,0.5,0,0.9,0,1.7l-0.3,0.1c-0.1,0.3,0.2,0.2,0.2,0.3c-0.1,0.3,0,0.6,0.2,0.9c0,0.1-0.2,0.1-0.2,0.3
			l0,0v0.1h0.2c0.1,0.3,0.5,0.4,0.9,0.3c0.1-0.5,0.7-1.2,0-1.5c-0.3,0-0.3,0.3-0.5,0.3c0-0.5-0.2-1.6,0.3-2.2
			c0.3,0.1,0.3-0.1,0.5-0.1V73c-0.2-0.8-0.1-1.6,0.3-2.3c0-0.2,0-0.3,0.1-0.5c0.1-0.2,0.2-0.4,0.3-0.6c0.1-0.3,0.1-0.7,0.4-0.7
			c0.3,0.2,0.6,0.5,1.2,0.3c0.2-0.3-0.1-0.4-0.1-0.8h-0.1v-0.1c-0.3-0.3-0.4-0.7-0.2-1.1c0.2-0.1,0.2,0.1,0.3,0.1v0.2h0.1v0.1
			c0.2,0,0.2,0.3,0.4,0.3v-0.1h0.1c0-0.1,0.1-0.1,0-0.2c-0.4-0.7-0.6-1.4-0.7-2.2c0.1-0.2,0.2-0.2,0.1-0.4c0.1,0,0.2-0.2,0.3-0.2
			s0.2,0.1,0.1,0.3h0.1v0.1c0,0.2,0.2,0.4,0,0.6c0.2,0.2,0.2-0.1,0.3,0c-0.3,0.2-0.4,0.5-0.4,0.8c0.1,0.2,0.2-0.1,0.3,0.1h0.1v0.1
			c0.1,0.1,0.1,0,0.2,0v-0.1h0.1c0.1-0.1,0.1-0.3,0.4-0.3c-0.1,0.1-0.2,0.2-0.3,0.3l0,0.1h-0.1c0,0.4,0.2-0.1,0.3,0
			c0,0.7,0,1.4,0.2,2c-0.1,0-0.2,0-0.2,0.2c0.5,0.2,0.2,1.2,0.4,1.6c-0.2,0-0.4,0.3-0.3,0.5c0,0,0,0,0,0c0.1,0.2,0.2,0,0.3,0.1
			c0.1,0.5,0.4,1,0.3,1.5c0.3,0.4,0.5,0.9,0.7,1.3c0.2,0.4,0.7,0.9,0.7,1.4s-0.2,0.7,0,1.1l0.1-0.1h0.1v-0.2c0.2,0,0.4,0,0.5,0
			c0.1-0.1,0.3-0.2,0.3-0.4c-0.3-0.7-0.7-1.4-1.2-2.1c0-0.1,0.1-0.1,0.1-0.2h-0.1v-0.1h-0.1c-0.2-0.7-0.6-1.7-0.2-2.3
			c-0.1-0.7-0.5-1.2-0.3-2c0.1-0.1,0.3-0.1,0.3-0.3c-0.3-0.6-0.8-1.7,0.1-1.9c0,0.3,0.3,0.4,0.3,0.7c0.4,0.3,1.2,0.5,1.8,0.9
			c0.3,0.1,0.3-0.1,0.5-0.1c0.1,0.1,0.2,0.2,0.3,0.3c1.2-0.3,1.9,0.3,2.7,0.7c0.1-0.1,0.4-0.2,0.3-0.5c-0.2-0.2-0.6-0.3-0.5-0.7
			c-0.9,0.2-1.4-0.7-1.3-1.4c-0.1,0-0.1,0.1-0.2,0c-0.3-0.5-0.4-2,0.5-1.5v0.1l0.1,0.1v0.1c0.6,0,0.8,0.5,1.3,0.4
			c0.3-0.5-0.2-0.8-0.2-1.3c-0.3,0-0.5-0.3-0.4-0.7c-0.2,0-0.4-0.1-0.4-0.3c0.1-0.4,0.5-0.1,0.4-0.3c0.1,0.1,0.1,0,0.3,0
			c0.2,0.6,0.5,1.1,0.9,1.5v-0.2c0.4-0.2,0.8,0.2,1.3,0c0-0.5-0.7-0.7-0.8-1.2c0-0.4,0.3-0.8,0.7-0.9c0.2,0,0.5,0.1,0.6,0.3v0.2
			c0.1,0.1,0.1,0.3,0.2,0.4c0,0.4-0.3,0.8-0.2,1.3c0.3,0.1,0.4-0.1,0.7,0c0.1,0.3,0,0.6-0.1,0.8c0,0.4,0.1,0.8,0.2,1.2
			c0,0.4-0.1,0.8-0.2,1.2c0,0.1,0,0.3,0,0.4c-0.1,0.4-0.3,0.9-0.5,1.3c-0.1,0.4-0.1,0.9-0.4,1.2c0,0.9-0.6,1.7-0.6,2.8
			c0.7,0,1.1,0.5,2,0.4c0-0.3-0.1-0.7-0.3-0.9v0.1h-0.1c-0.3,0.2-0.7-0.3-0.8-0.7c0.8-2.1,1.5-4.3,2-6.5c0.1-0.1,0.1-0.2,0.3-0.2
			c0.5-0.1,0.4,0.3,0.5,0.6s0.3,0.6,0.3,0.7c0.1,0.6-0.3,1.3-0.4,1.9c0,0.2,0.1,0.3,0.1,0.4c0,0.4-0.3,0.8-0.3,1.3c0,0.3,0,0.7,0,1
			c0.1,0.1,0.3,0.2,0.4,0.1c0.1-0.3,0.1-0.6,0-0.8c0.2-0.8,0.3-1.5,0.4-2.3c0.1-0.5,0.2-1,0.2-1.6c0.1-0.1,0.2-0.3,0.4-0.3
			c0.2-0.4,0.3-0.9,0.4-1.3c0.1-0.4,0-1,0.2-1.2c-0.2-0.1-0.2-0.3-0.2-0.7c0.1-0.1,0.3-0.2,0.4-0.2v-0.3c-0.2-0.5-0.6-0.9-0.8-1.4
			l0.1-0.1c0-0.1-0.3-0.3-0.2-0.3c-0.3,0-0.3-0.2-0.5-0.1c-0.1-0.3-0.3-0.4-0.2-0.8c0.2-0.1,0.4-0.1,0.7,0c0.9,1.2,2.5,2.4,1.8,4.5
			c-0.2,0.1-0.2,0.3-0.3,0.4c0.4,0.5-0.2,2.1,0.5,2.4c0.2-0.2,0-0.5,0-0.7c0-0.5,0.1-1.1,0-1.8c0.3-0.4,0.4-0.8,0.4-1.3
			c0-0.3-0.1-0.7,0.2-0.9c0.1,0.2,0.5,0.6,0.5,0.8c0.2,1.2,0.8,2.4,0.8,3.6h-0.1v0.1h-0.1c0.4,0.4,0.1,1.5,0,2.1
			c0.2,0.6,0.4,1.2,0.6,1.8h0.3c0.1-0.4-0.2-0.7-0.2-1c0-0.2,0-0.3,0-0.5s-0.1-0.3-0.2-0.5s0.2-0.8,0.1-1.2c0-0.1,0.2,0,0.2-0.2
			s-0.3,0-0.2-0.2c0-0.6,0-1.3-0.2-1.9c-0.2-1.3-0.5-2.9-1.4-3.4v-0.2c-0.1,0-0.2,0-0.2-0.2c-0.5-0.9-1.2-1.5-1.7-2.4l0.1,0h-0.1
			l-0.1-0.1h-0.1c-0.1-0.3-0.4-0.5-0.4-0.9h-0.1l-0.1-0.1c-0.2,0-0.2-0.1-0.2-0.3c-0.1,0-0.2,0-0.2-0.1h-0.1v-0.1
			c-0.4-0.2,0-0.8,0.4-0.8c0.1,0.2,0,0.3,0.1,0.5h0.1l0.1,0.1c0.2-0.5,0-1,0.5-1.2c0.4,0.1,0.4,0.7,0.1,0.9c0.1,0.2,0.3,0,0.4,0
			c0.1,0.2,0.1,0.5,0,0.7v0.1h-0.1h0.1h0.1V59l0.1,0l0,0h0.1c-0.1-0.3-0.1-0.7-0.1-1c0.3-0.1,0.6-0.2,0.9-0.2
			c0.1,0.1,0.1,0.3,0.2,0.4c-0.2,0-0.2,0.2-0.2,0.3s0.2,0,0.3,0c0.4,0.6,0.5,1.3,0.5,2h0.1l0.1,0.1c0.1-0.3,0-0.8,0.2-1.1l-0.1-0.1
			v-0.1c-0.1,0-0.1-0.1-0.1-0.3s-0.2,0.1-0.3-0.1c0-0.4-0.1-0.5-0.2-0.8c0.2,0,0.2-0.2,0.4-0.1c-0.3,0.5,0.4,0.5,0.3,1l0.2,0v0.1
			c0.1,0,0.1-0.2,0.2-0.2c0.2,0.2,0.2,0.5,0.3,0.7l0.1-0.1h0.1c0-0.4-0.3-0.8,0-1c0.7,0.1,1,0.6,1.6,0.8l0.1-0.1h0.1
			c0-0.1-0.2-0.2-0.2-0.3c0.1-0.1,0.1-0.3,0.3-0.4c0.7,0.3,1.2,0.9,1.5,1.7l0.1-0.1h0.1c-0.1-0.4-0.2-0.8-0.4-1.1c1,0,1.3,1,2.2,0.7
			c0.8,0.3,1.2,0.9,2.3,0.9c0.2,0.1,0.4,0.2,0.5,0.2c0.3,0,0.5-0.4,0.7-0.1c-0.1,0.2-0.2,0.3,0,0.5c0.3,0.1,0.5-0.1,0.7-0.2
			c0.9,0.3,1.7,0.6,2.5,1.1c0.3,0.1,0.5,0.2,0.8,0.3c0.3,0.2,0.6,0.4,0.9,0.5c0.1,0,0.3,0,0.4,0c0.3,0.1,0.5,0.4,0.7,0.5
			c0.3,0.1,0.6,0.1,0.9,0.2c0.4,0.2,0.8,0.6,1.2,0.7c0.1,0,0.3,0,0.4,0c0.4,0.2,0.8,0.4,1.2,0.6c0.4,0.2,0.8,0.4,1.3,0.6
			c0.1,0,0.2-0.1,0.3-0.1c0.3,0,0.4,0.2,0.7,0.2s0.2-0.2,0.4-0.2c0.6,0,1.1,0.2,1.7,0.3c0.3,0,0.6-0.1,0.8-0.1
			c0.2,0.1,0.5,0.1,0.7,0.2c0.6,0.1,1.1,0.3,1.6,0.6H75c0.1,0.2,0.5,0.3,0.8,0.4c0.1,0.1,0.2,0.2,0.3,0.3s0.3,0,0.5,0.1
			c0.2,0.1,0.4,0.2,0.6,0.2c0.4,0.1,0.9-0.1,1.2-0.4c0.1,0.1,0.4-0.1,0.4-0.3S78.7,66.9,78.7,66.8z"/>
		<path class="st0" d="M33.9,44.8L33.9,44.8c0.1-0.3,0.1-0.3-0.2-0.3C33.7,44.6,33.7,44.7,33.9,44.8L33.9,44.8z"/>
		<path class="st0" d="M34.7,48.5L34.7,48.5c0.3-0.1,0.5,0,0.6-0.2h-0.1v-0.1h-0.1c0,0,0-0.3-0.1-0.4h-0.1v-0.1
			c-0.2,0-0.2-0.1-0.3,0c0,0.3,0,0.5,0,0.8L34.7,48.5z"/>
		<path class="st0" d="M45.4,47.1c0.2-0.1,0.2-0.6-0.2-0.4V47L45.4,47.1L45.4,47.1z"/>
		<path class="st0" d="M53,60.9c-0.3-0.1-0.7-0.2-0.8-0.5h-0.1H52l0,0c-0.1,0-0.3,0-0.3,0.2c0.2,0.1,0.3,0.2,0.3,0.4
			c0.3,0,0.8,0,0.7,0.3C52.9,61.2,53,61.1,53,60.9z"/>
		<path class="st0" d="M51.5,60.7L51.5,60.7l-0.1,0.2c-0.4-0.1-0.5,0.2-0.5,0.4c0.3,0.1,0.6,0.2,0.9,0.1c0.1,0,0,0.2,0.2,0.2
			l0.1-0.1h0.1c-0.1-0.3-0.3-0.7-0.5-0.9L51.5,60.7z"/>
		<path class="st0" d="M52.3,62.3L52.3,62.3l-0.2,0.1v0.4c0.3,0.1,0.7,0.7,0.9,0.2C52.7,62.9,52.4,62.6,52.3,62.3z"/>
		<path class="st0" d="M48.5,61.1L48.5,61.1c-0.2,0.1-0.3,0.2-0.3,0.4c0.4,0,0.4,0.3,0.7,0.4l0.1-0.1H49
			C48.9,61.6,48.6,61.4,48.5,61.1L48.5,61.1z"/>
		<path class="st0" d="M47.4,60.9L47.4,60.9l-0.2-0.1c-0.1,0.3-0.4,0.3-0.5,0.5c0.5,0.2,0.5,0.9,0.8,1.2l0.1-0.1h0.1
			C47.6,61.9,47.1,61.5,47.4,60.9z"/>
		<path class="st0" d="M47.6,62.7c0,0.2,0.2,0.3,0.4,0.3c0,0,0,0,0.1,0c0-0.3-0.1-0.3-0.4-0.4v0.1L47.6,62.7z"/>
		<path class="st0" d="M23.6,68.5c0.2,0.1,0.2-0.2,0.3-0.1s-0.2,0.5,0,0.7c-0.2-0.1-0.2,0-0.3,0.1c0.4,0.3-0.2,1.2,0.3,1.3l0.1-0.1
			H24c0-0.2,0.1-0.1,0.1-0.3S24,69.9,24,69.8c0.1-0.4,0.2-0.6,0.3-1s0.5-0.9,0.5-1.1s-0.1-0.6,0-0.9l-0.1-0.1v-0.1
			c-0.2,0-0.1-0.2-0.4-0.1s0,0.1,0,0.3h0.1v0.1c0.1,0.1,0,0.4-0.3,0.4v0.1v0.1h0.1c-0.2,0.2-0.3,0.4-0.3,0.6c0.1,0,0-0.1,0.2-0.1
			c0,0.2,0.2,0.1,0.2,0.3c-0.1,0-0.3,0-0.3-0.2c-0.1,0.1-0.1,0.2-0.2,0l-0.1,0.1h-0.1C23.5,68.4,23.5,68.4,23.6,68.5z"/>
		<path class="st0" d="M23.7,67.4h0.1l0.1,0.1l0.1-0.2v-0.1h0.1c0-0.2,0.3-0.1,0.2-0.3h-0.1h0.1c-0.5-0.7,1.4-1.5,0-1.8
			c0.1,0.3-0.3,0.4-0.1,0.7c-0.1,0.2-0.2,0.5-0.3,0.7C24,66.8,23.6,66.9,23.7,67.4z"/>
		<path class="st0" d="M26.3,62.2c-0.2,0.1-0.1,0.6-0.4,0.4c0,0.1,0.2,0.2,0.1,0.4h0.1l0.1,0.1v-0.1h0.1c0.1-0.2,0.4-0.5,0.2-0.8
			c0-0.4,0.1-0.7,0.5-0.8c0-0.2-0.1-0.1-0.2-0.2v0.1h-0.1c-0.1,0-0.2,0-0.2-0.1c-0.1,0.2-0.1,0.4-0.3,0.5C26.1,62,26.3,62,26.3,62.2
			z"/>
		<path class="st0" d="M26.2,60.4h0.1l0.1,0.1c0.1-0.1,0.4-0.1,0.4-0.2c0.1,0.3-0.1,0.3-0.1,0.6h0.1V61c0.4-0.3,0.2-0.9,0.5-1.2
			v-0.1v0c0-0.2,0.1-0.2,0.1-0.3l-0.1-0.1l0.1,0l-0.1-0.1h-0.1h-0.1c-0.2,0.3-0.4,0.6-0.5,0.9c-0.1-0.1,0-0.3-0.2-0.4
			c-0.1,0.1-0.2,0.1-0.3,0.2l0,0V60C26.2,60.1,26.2,60.3,26.2,60.4z"/>
		<path class="st0" d="M25.9,60.6L25.9,60.6l-0.1,0.2l0.1,0.1v0.1c0.2,0.1,0.3-0.2,0.3-0.4c-0.1,0-0.1,0-0.2,0L25.9,60.6z"/>
		<path class="st0" d="M18.2,61.6c0.2,0.3,0.5,0.4,0.8,0.4c0.2-0.2,0.3-0.5,0.6-0.7c0.1,0.3,0.2,0.5,0.4,0.7c0.4,0,0.4-0.3,0.7-0.4
			v-0.1l0.1-0.1l-0.1-0.1c0.1-0.1,0.2-0.2,0.2-0.4c-0.1-0.2-0.3-0.3-0.5-0.4c-0.1,0.1-0.2,0.5-0.3,0.4c0.3-0.2,0.2-0.7,0.5-0.8
			c0-0.2-0.2-0.1-0.2-0.3c0.2-0.1,0.1-0.3,0.3-0.4c0-0.5-0.5-0.8-1-0.8c-0.2,0-0.3,0.1-0.5,0.2l-0.1-0.1c-0.1,0.2,0,0.1,0,0.3
			c-0.1,0-0.2,0-0.3,0c0,0.1,0.2,0.2,0,0.2s-0.1-0.2-0.2-0.1c0.2,0.1-0.1,0.5-0.3,0.5c-0.4-0.2-0.7-0.4-0.9-0.8h-0.1v-0.1
			c-0.2,0-0.3,0.1-0.3,0.3c0.4,0.4,0.9,0.8,1.3,1.2c0.2,0,0.3,0,0.3,0.2c-0.2,0.6-1.5,0.7-2.1,0.4c-0.4,0-0.8,0-1.2,0
			c-0.6-0.1-1.2-0.4-1.7-0.3c0,0.1,0,0.2-0.1,0.2c1.1,0.6,2.7,0.3,3.9,0.8C17.7,61.6,17.9,61.8,18.2,61.6z"/>
		<polygon class="st0" points="25.8,55.6 25.8,55.5 25.7,55.5 25.7,55.5 25.7,55.6 25.7,55.6 		"/>
		<path class="st0" d="M24.7,56.2c0.1-0.2,0.3,0,0.5,0s-0.1-0.1,0-0.2H25l0,0c-0.2,0-0.2-0.1-0.3-0.1C24.6,56,24.5,56.1,24.7,56.2z"
			/>
		<path class="st0" d="M24.1,54.8H24l-0.1-0.1l-0.1,0.1c0,0.2,0.2,0.3,0.3,0.3c0,0,0,0,0,0C24.2,54.9,24.1,54.9,24.1,54.8z"/>
		<path class="st0" d="M22.4,52.9L22.4,52.9L22.4,52.9c-0.1,0.1-0.2,0.1-0.1,0.3h0.3l0,0h0.1C22.5,52.9,22.7,52.9,22.4,52.9z"/>
		<path class="st0" d="M21.9,51.9c0.1,0.1,0.1,0.4,0.4,0.3v-0.1h0.1C22.4,52.1,22.1,51.7,21.9,51.9z"/>
		<path class="st0" d="M22.4,51.9c-0.1-0.2,0.3-0.2,0-0.3l0,0.1l-0.1-0.1C22.1,51.6,22.2,51.9,22.4,51.9z"/>
		<path class="st0" d="M21.9,51.1c-0.1-0.2-0.2-0.2-0.5-0.2c0-0.2-0.2-0.2-0.4-0.2c0,0.5,0.4,0.6,0.5,0.9h0.1v0.1h0.2
			C21.9,51.5,22,51.4,21.9,51.1L21.9,51.1L21.9,51.1z"/>
		<path class="st0" d="M21.6,52L21.6,52h-0.2c0,0.1-0.1,0.1-0.1,0.3s0.1,0.2,0.3,0.2l0.1-0.1C21.8,52.1,21.8,52,21.6,52z"/>
		<path class="st0" d="M25.8,53.5c-0.3,0.1-0.4,0-0.5,0.3l0.1,0.1V54c0.1,0,0.4,0.1,0.5,0.1v-0.1v-0.1H26
			C26,53.6,25.8,53.7,25.8,53.5z"/>
		<path class="st0" d="M26,53.9V54l0,0c0,0.2,0.1,0.2,0.2,0.2c0-0.2,0.1-0.1,0.1-0.3S26.1,53.8,26,53.9z"/>
		<path class="st0" d="M28.9,53.3c-0.2,0-0.2-0.1-0.3-0.1s-0.1,0.3,0,0.3h0.1l0.1,0.1C28.8,53.7,28.8,53.4,28.9,53.3z"/>
		<polygon class="st0" points="29.5,53.6 29.5,53.5 29.4,53.5 		"/>
		<polygon class="st0" points="29.5,53.6 29.5,53.6 29.5,53.7 		"/>
		<path class="st0" d="M29.6,53.5c0.2,0,0.1,0.1,0.3,0.1v-0.1H30l0,0h-0.1l0.1-0.1l0-0.1l0,0h-0.1c-0.1,0,0-0.1-0.2-0.1
			C29.6,53.4,29.5,53.2,29.6,53.5L29.6,53.5L29.6,53.5z"/>
		<path class="st0" d="M29.1,53.3c0-0.3-0.1-0.1-0.2-0.2l0,0l0,0C29,53.2,29,53.3,29.1,53.3z"/>
		<polygon class="st0" points="28.4,51.7 28.3,51.6 28.3,51.7 		"/>
		<path class="st0" d="M28.1,51.7h0.1h0.1v-0.1C28.2,51.5,28.1,51.6,28.1,51.7z"/>
		<path class="st0" d="M28.4,59.1c0-0.2-0.1-0.2-0.1-0.3L28.2,59h0.1v0.1L28.4,59.1z"/>
		<polygon class="st0" points="27.7,59.6 27.6,59.7 27.7,59.7 		"/>
		<polygon class="st0" points="27.8,59.7 27.7,59.7 27.7,59.8 		"/>
		<path class="st0" d="M26.7,63h-0.1l-0.1-0.1c-0.1,0-0.1,0.1-0.1,0.2v0.1h-0.1l0.1,0.1h0.1v0.1h0.1v-0.1l0.1-0.1
			C26.7,63.1,26.7,63.1,26.7,63z"/>
		<polygon class="st0" points="26.7,63.5 26.8,63.5 26.8,63.4 		"/>
		<path class="st0" d="M33.7,46c0-0.1,0.1,0.1,0.2,0v-0.2C33.7,45.7,33.6,46,33.7,46z"/>
		<path class="st0" d="M13.6,34.1c0.1-0.2-0.2-0.2-0.1-0.1C13.6,34.1,13.6,34.2,13.6,34.1z"/>
		<path class="st0" d="M38.3,35.6c0.2,0,0.1-0.3,0-0.1C38.5,35.5,38.1,35.6,38.3,35.6z"/>
		<path class="st0" d="M28.2,39.5c0,0.1,0,0.3,0.1,0.3c0.1-0.1,0.1-0.2,0-0.3L28.2,39.5z"/>
		<path class="st0" d="M24.2,41.9c-0.2-0.2-0.3-0.4-0.7-0.5c0-0.4-0.6-0.7-0.7-0.2c0,0.2,0.2,0.2,0.2,0.4c-0.1,0.8,0.6,1.5,1,1.9
			c0-0.1,0.3,0,0.4-0.1c0.1-0.1,0.1-0.3,0.2-0.4C24.4,42.8,24.2,42.3,24.2,41.9z"/>
		<path class="st0" d="M22.6,47c0-0.6,0.2-1.2,0.4-1.7v-0.1v-0.1c-0.4-0.4,0-1.2,0-1.8c-0.5-0.2-0.6-0.8-1.3-0.7
			c-0.1,0.1,0,0.4-0.1,0.5c0.1,0,0.2,0,0.2,0.1c0.4,0.7,0.5,1.4,0.3,2.2c0.1,0,0.1,0.1,0.1,0.3l-0.1,0.1c-0.2,0-0.2-0.2-0.4-0.1
			s-0.1,0-0.2,0.1c0.1,0.6,0.5,0.8,0.3,1.5c-0.1,0-0.3,0.1-0.2,0.1h0c-0.2,0.4-0.6,0.6-1,0.6v0.1h-0.1v0.1h-0.1
			c-0.3,0.3-0.3,0.8,0,1.1c0.2,0.2,0.6,0.3,0.9,0.2c0.1,0.2,0.3,0.4,0.6,0.5c0.1-0.1,0.3,0,0.4-0.1h0h0.1c0.2-0.1,0.4-0.4,0.7-0.3
			c-0.1-0.2,0-0.5,0.1-0.7C23.2,48.3,22.6,47.8,22.6,47z"/>
		<path class="st0" d="M20.3,47c0,0.1,0.1,0.1,0,0.2c-0.2-0.2-0.4-0.2-0.6,0c0,0,0,0-0.1,0.1v0.1h-0.1c0.1,0.2,0.4,0.1,0.5,0.4h0.3
			l0,0v0h0.1c0.1-0.1,0-0.4-0.1-0.5S20.1,46.9,20.3,47z"/>
		<path class="st0" d="M16.6,43c0,0.1,0.1,0.2,0.2,0.3C16.9,43,16.7,43,16.6,43z"/>
		<path class="st0" d="M18.2,44.6c-0.2,0.1-0.1-0.2-0.3-0.2c0.1,0.2,0,0.3,0.3,0.4V44.6z"/>
		<path class="st0" d="M29.4,44.6c0.1,0,0,0.2,0.2,0.2C29.6,44.6,29.2,44.5,29.4,44.6z"/>
		<path class="st0" d="M23.7,45.2h-0.2c0,0.1-0.1,0.2,0,0.2S23.7,45.4,23.7,45.2z"/>
		<path class="st0" d="M17.4,45.7c0.1-0.1,0.2,0,0.2-0.1c-0.1,0-0.1-0.2-0.3-0.2C17.3,45.6,17.4,45.6,17.4,45.7z"/>
		<path class="st0" d="M38.8,45.9c0,0,0.3-0.2,0.2-0.2S38.7,46,38.8,45.9z"/>
		<path class="st0" d="M18.5,46.4c0-0.1-0.1-0.2-0.2-0.2C18.2,46.3,18.7,46.5,18.5,46.4z"/>
		<path class="st0" d="M46.1,47.9c0,0,0.4-0.1,0.2-0.2C46.3,47.8,45.9,47.8,46.1,47.9z"/>
		<path class="st0" d="M20.2,48.1c0-0.1,0-0.2,0-0.3c-0.1,0.1-0.2-0.1-0.2,0s0,0.1,0,0.2L20.2,48.1z"/>
		<path class="st0" d="M23.8,48.6c0.1-0.2-0.2-0.3-0.2-0.2S23.5,48.7,23.8,48.6z"/>
		<path class="st0" d="M29,49.8c-0.2,0-0.2,0.1-0.1,0.2h-0.1C29,50.1,29,49.9,29,49.8z"/>
		<path class="st0" d="M20.2,51.2c-0.2,0.2,0,0.9,0.5,0.6c0-0.2,0.1-0.4,0.2-0.5v-0.1C20.7,51.2,20.4,51.2,20.2,51.2z"/>
		<path class="st0" d="M54.4,51.7L54.4,51.7L54.4,51.7c-0.1,0.1-0.3,0.1-0.3,0.3c0.2,0.2,0.3,0,0.4,0C54.4,51.9,54.5,51.7,54.4,51.7
			z"/>
		<path class="st0" d="M25.2,51.6c0.1,0,0,0.2,0.2,0.2S25.2,51.5,25.2,51.6z"/>
		<path class="st0" d="M27,53.8c0.3,0.1-0.2,0.4,0,0.6l-0.1,0c0.2,0,0.3-0.1,0.5-0.1c0-0.3,0-0.4,0.2-0.5c0,0-0.1-0.2,0-0.2
			c0.1,0.3,0.2-0.3,0.3-0.4c-0.2,0-0.3,0-0.2-0.2c-0.4,0-0.3,0.5-0.5,0.4c0.1,0,0.1,0.2,0.1,0.3C27.1,53.6,27,53.7,27,53.8z"/>
		<path class="st0" d="M29,53.9c0.1,0,0.2,0.1,0.1,0C29.1,53.8,28.8,53.9,29,53.9z"/>
		<path class="st0" d="M19.1,55.5c-0.1-0.1-0.2-0.2-0.3-0.3c0,0.1,0.1,0.1,0.1,0.2l-0.1,0.1C19,55.4,19.1,55.6,19.1,55.5z"/>
		<path class="st0" d="M24.4,55.7c0.1,0,0.1,0.3,0.2,0.1S24.5,55.6,24.4,55.7z"/>
		<path class="st0" d="M24.6,56.7h0.2v-0.1h0.1c-0.1-0.2,0.2,0,0.1-0.2C24.7,56.3,24.3,56.4,24.6,56.7z"/>
		<path class="st0" d="M24.9,56.6L24.9,56.6L24.9,56.6v0.1c0.1,0,0.2,0,0.2-0.1S25,56.5,24.9,56.6z"/>
		<path class="st0" d="M24.6,57l-0.1,0.1c0,0.2,0,0.3,0.1,0.5c0.2,0,0.3-0.1,0.3-0.3v-0.1v-0.1C24.8,57,24.8,56.9,24.6,57z"/>
		<path class="st0" d="M27.4,57.2c0,0.1-0.2,0-0.3,0.2S27.5,57.3,27.4,57.2z"/>
		<path class="st0" d="M23.1,58c0-0.1-0.1-0.3-0.2-0.2C23.1,57.8,23,58,23.1,58z"/>
		<path class="st0" d="M16.9,58c0.1,0,0,0.3,0.2,0.2C17,58,16.9,57.8,16.9,58z"/>
		<path class="st0" d="M22.3,58.7c0.1,0,0.2-0.2,0.1-0.2S22.3,58.5,22.3,58.7z"/>
		<path class="st0" d="M12.7,61.8c0.1,0.1,0.3-0.2,0.2-0.2C12.9,61.7,12.6,61.5,12.7,61.8z"/>
		<path class="st0" d="M17.1,62.4c0,0.1-0.1,0.1,0,0.2h0.2C17.3,62.4,17.2,62.3,17.1,62.4z"/>
		<path class="st0" d="M23.9,64.7c0-0.1,0.2-0.2,0.1-0.3S23.7,64.7,23.9,64.7z"/>
		<path class="st0" d="M19.2,64.5c0,0.2-0.2,0.1-0.3,0.3C19,64.8,19.3,64.6,19.2,64.5z"/>
		<path class="st0" d="M15.1,65.8c0-0.2,0-0.3-0.2-0.3l-0.1,0.1l0,0l0,0C14.9,65.7,15,65.8,15.1,65.8C15.1,65.8,15.1,65.8,15.1,65.8
			z"/>
		<path class="st0" d="M14.9,65.8L14.9,65.8L14.9,65.8c-0.2,0.1-0.3,0.1-0.3,0.3c0.1,0.1,0.2,0.1,0.4,0.1C15,66,15,65.8,14.9,65.8z"
			/>
		<path class="st0" d="M32.5,67.5c0,0.2,0.1,0.4,0.2,0.3C32.4,67.8,32.7,67.6,32.5,67.5z"/>
		<path class="st0" d="M45.3,68.3c0.2,0,0.1,0.3,0.3,0.3C45.7,68.4,45.4,68.2,45.3,68.3z"/>
		<path class="st0" d="M22.7,68.8c0.1,0.1,0.3-0.2,0.2-0.2S22.6,68.6,22.7,68.8z"/>
		<path class="st0" d="M39.1,68.7c0,0.2,0.1,0.3,0.2,0.2S39.2,68.7,39.1,68.7z"/>
		<path class="st0" d="M39.2,69.1c0.1,0,0,0.2,0.2,0.2S39.3,69,39.2,69.1z"/>
		<path class="st0" d="M19.7,69.5c0-0.1,0.2-0.2,0-0.2C19.8,69.3,19.6,69.4,19.7,69.5z"/>
		<path class="st0" d="M57.7,72.7l0.1,0.1l0.2-0.1C57.8,72.8,57.7,72.6,57.7,72.7z"/>
		<path class="st0" d="M29.4,73.2L29.4,73.2L29.4,73.2l0.3,0.1c0-0.2,0.1-0.6-0.2-0.6S29.4,73,29.4,73.2z"/>
		<path class="st0" d="M29.7,73.8c-0.1-0.1-0.3-0.1-0.4-0.2v-0.2l0,0h-0.1c0,0.1-0.3,0-0.3,0.1c0.5,0.3,0.3,1.3,0.9,1.5l0.1-0.1
			C29.6,74.6,29.9,74.2,29.7,73.8z"/>
		<path class="st0" d="M10.9,84.7c0.1,0,0.3-0.2,0.2-0.2S10.9,84.6,10.9,84.7z"/>
		<path class="st0" d="M44.1,88.6c0,0.1,0,0.2,0,0.1S44,88.5,44.1,88.6z"/>
		<path class="st0" d="M35.2,6.5c0-0.1,0.1-0.2,0.1-0.3c0-0.7,0.1-1.4-0.3-1.5h-0.1l-0.1,0.2c-0.1,0.2-0.2,0.5-0.2,0.7
			c-0.1,0.7-0.1,1.6,0.2,1.9C35.2,7.4,35.1,6.9,35.2,6.5z"/>
		<path class="st0" d="M31.3,16.9c-0.1,0,0.3-0.2,0.2-0.4c-0.2,0-0.2-0.2-0.3-0.3C30.8,16.3,30.9,17.1,31.3,16.9z"/>
		<path class="st0" d="M53.8,22.1c0.1-0.4,0.5-1.2-0.1-1.4h-0.1c-0.5,0.5-0.7,1.3-0.5,2C53.4,22.8,53.7,22.3,53.8,22.1z"/>
		<path class="st0" d="M23.8,21.8c0.5-0.1,0.2-0.6,0-0.7C23.5,21.1,23.6,21.7,23.8,21.8z"/>
		<path class="st0" d="M47.8,24.5L47.8,24.5L47.8,24.5c-0.1-0.1-0.2-0.2-0.2-0.3v-0.1h0.1c-0.3-0.6-1,0.5-0.4,0.8
			C47.7,25,47.7,24.7,47.8,24.5z"/>
		<path class="st0" d="M39.3,29c0.3,0,0.4-0.4,0.4-0.4l0.1,0.1c0.3-0.6,0.2-1.4-0.2-1.9C38.8,26.8,38.5,29,39.3,29z"/>
		<path class="st0" d="M18.7,37.1c0.1-0.5-0.2-0.8-0.5-1c-0.1-0.1-0.3-0.5-0.6-0.4C17.5,36.4,18.1,37.2,18.7,37.1z"/>
		<path class="st0" d="M27.5,36.2h-0.2c-0.2,0.3-0.2,0.8,0,1.1c0.3,0.1,0.3-0.1,0.4-0.2C27.6,36.8,27.7,36.4,27.5,36.2z"/>
		<path class="st0" d="M22.4,36.1c-0.1,0.6,0,1.2,0.3,1.7c-0.1,0.1-0.1,0.2-0.1,0.3c0.3,0.3,0.1,0.8,0.2,1.2
			c0.2,0.6,0.7,1.3,1.3,1.1s0.5-1.3,0.2-1.5c0-0.1,0.1-0.3,0.1-0.4c0-0.2-0.1-0.4-0.1-0.7s0.1-0.5,0-0.7c-0.1-0.2-0.3-0.3-0.5-0.3
			c0-0.4-0.4-0.8-0.8-0.7C22.7,35.8,22.5,35.9,22.4,36.1z"/>
		<path class="st0" d="M40.8,43.7c0.3,0,0.5-0.4,0.7-0.6s0.4-0.3,0.3-0.8c0.5-0.4,0.6-1.2,0.3-1.7c-0.7-0.1-0.6,0.7-1.2,0.5
			c-0.2,0.3-0.1,1-0.3,1.5l-0.2,0.2c-0.2,0.3-0.1,0.6,0.2,0.8C40.7,43.7,40.8,43.7,40.8,43.7z"/>
		<path class="st0" d="M28.2,44.3v0.4h0.2C28.5,44.5,28.4,44.3,28.2,44.3z"/>
		<path class="st0" d="M21.4,46.3c0-0.2,0-0.3-0.2-0.3c-0.1,0.1-0.1,0.2,0,0.3C21.3,46.3,21.3,46.3,21.4,46.3z"/>
		<path class="st0" d="M18,58.1c0-0.2-0.2-0.3-0.3-0.3C17.7,58,17.8,58.2,18,58.1z"/>
		<path class="st0" d="M8.8,81.5c-0.3,0-0.5,0.3-0.6,0.6c-0.1,1.1,2.2,1.7,1.8,0.1C9.7,81.7,9.2,81.4,8.8,81.5z"/>
	</g>
</g>
</svg>
