<?xml version="1.0" encoding="utf-8"?>
<!-- Generator: Adobe Illustrator 23.0.1, SVG Export Plug-In . SVG Version: 6.00 Build 0)  -->
<svg version="1.1" id="Layer_1" xmlns="http://www.w3.org/2000/svg" xmlns:xlink="http://www.w3.org/1999/xlink" x="0px" y="0px"
	 viewBox="0 0 133 82.5" style="enable-background:new 0 0 133 82.5;" xml:space="preserve">
<style type="text/css">
	.st0{fill:#010101;}
</style>
<title>Asset 77</title>
<g>
	<g id="Layer_1-2">
		<path class="st0" d="M101.4,0v0.2h0.2C101.5,0,101.5,0,101.4,0z"/>
		<polygon class="st0" points="105,0.2 104.9,0.1 104.8,0.2 104.9,0.3 		"/>
		<path class="st0" d="M101.9,2.3c0.1-0.3,0-0.6-0.1-0.8c-0.3-0.2-0.7-0.1-0.9,0.3c-0.1,0.1-0.1,0.2-0.1,0.4
			C100.8,2.6,101.6,2.6,101.9,2.3z"/>
		<path class="st0" d="M41.9,4.6c0.2,0.1,0.2,0.3,0.3,0.3c0.3,0.1,0.7,0.1,1,0c0.3-0.3,0.9-0.3,1.2-0.8c0-0.5,0.1-0.8,0-1.1
			c0-0.1-0.2-0.2-0.3-0.3s-0.2-0.3-0.3-0.4C43.3,2,42.7,1.9,42.2,2c-0.4,0.1-0.8,0.7-1,0.8c0,0.5,0,1.1,0.2,1.6
			C41.6,4.6,41.7,4.5,41.9,4.6z"/>
		<path class="st0" d="M25.8,3.5C26,3,25.7,2.6,25.3,2.4c0,0-0.1,0-0.1,0C25.1,2.9,25.3,3.5,25.8,3.5z"/>
		<path class="st0" d="M73.3,4.4c0.6,0.1,1-0.3,0.9-0.8c0-0.6-0.5-1-1-1c-0.2,0-0.4,0.1-0.6,0.2c-0.1,0.4-0.1,0.8,0,1.1
			C72.8,4.2,73,4.4,73.3,4.4z"/>
		<path class="st0" d="M100.7,5.7c0.8,0.2,1.6-0.2,1.9-1c0.1-0.2,0.1-0.4,0.1-0.5c0-0.2-0.2-0.3-0.3-0.5c-0.3-0.2-0.7-0.4-1.1-0.4
			c-0.6,0.1-1.2,0.5-1.3,1.2c0,0.3,0,0.5,0.1,0.8C100.3,5.3,100.5,5.5,100.7,5.7z"/>
		<path class="st0" d="M20.1,3.8c0,0.8,0.3,1.5,1.1,1.4C21.6,4.4,20.7,3.1,20.1,3.8z"/>
		<path class="st0" d="M35.7,4.6c0.2-0.2,0.1-0.7-0.2-0.7c-0.2,0.1,0,0.4,0,0.6C35.6,4.4,35.5,4.6,35.7,4.6z"/>
		<path class="st0" d="M29.4,5.5c0.1-0.4-0.1-0.8-0.4-0.9c-0.1,0-0.1,0-0.2,0C28.7,5,28.9,5.5,29.4,5.5z"/>
		<path class="st0" d="M13.3,6h-0.1c-0.1,0.2-0.3,0.9,0.1,0.8C13.5,6.7,13.7,6.1,13.3,6z"/>
		<path class="st0" d="M32.4,6.4c0-0.3,0-0.4-0.3-0.4C32.1,6.1,32.2,6.4,32.4,6.4z"/>
		<path class="st0" d="M35.7,7.2c0.1,0.1,0.2,0.2,0.4,0.2C36.5,7,35.6,6.3,35.7,7.2z"/>
		<path class="st0" d="M34,7.3c0-0.1,0-0.2,0-0.3c-0.3-0.1-0.6,0.1-0.9,0c0,0.1,0,0.3,0,0.3S33.7,7.2,34,7.3z"/>
		<path class="st0" d="M99,7.7C99,7.1,97.7,7,98,8c0.1,0.3,0.4,0.4,0.7,0.2C98.9,8.1,99,7.9,99,7.7z"/>
		<path class="st0" d="M22.4,7.4c-0.1,0.6,0.3,1.3,1,1.1c0.2-0.4,0.1-0.9-0.3-1.1C22.8,7.3,22.6,7.3,22.4,7.4z"/>
		<path class="st0" d="M32.2,7.8c-0.1,0.6,0.4,1.5,1,1.5c0.3-0.5,0.1-1.2-0.4-1.5c-0.2-0.1-0.3-0.1-0.5-0.2
			C32.2,7.7,32.2,7.7,32.2,7.8z"/>
		<path class="st0" d="M87.1,7.8c0.1-0.1,0-0.2-0.1-0.2S87,7.9,87.1,7.8z"/>
		<path class="st0" d="M38.9,7.9c0-0.1,0-0.2-0.1-0.2C38.8,7.8,38.8,7.9,38.9,7.9z"/>
		<path class="st0" d="M66.5,7.8V8C66.7,8.1,66.7,7.7,66.5,7.8z"/>
		<path class="st0" d="M37.5,9c0.2-0.2,0.2-0.6,0-0.9C37.4,8.1,37.3,8,37.3,8C36.8,8.2,37.1,8.9,37.5,9z"/>
		<path class="st0" d="M12.5,8.4c-0.1,0.1-0.2,0.4,0,0.4C12.6,8.8,12.7,8.5,12.5,8.4z"/>
		<path class="st0" d="M72.3,12.3c0.6,0.1,1.2,0,1.7-0.3c0.3-0.2,0.4-0.5,0.5-0.8c0-0.7-0.2-1.3-0.6-1.8c-0.4-0.5-1-0.7-1.6-0.6
			l-0.1,0.1C72,9,72,8.9,71.9,9c-0.2,0.1-0.3,0.3-0.4,0.5c-0.2,0.3-0.2,0.7-0.2,1.1C71.3,11.2,71.7,11.9,72.3,12.3z"/>
		<path class="st0" d="M79.6,8.9h-0.2C79.4,8.9,79.6,8.9,79.6,8.9z"/>
		<rect x="44.2" y="9" class="st0" width="0.1" height="0.1"/>
		<path class="st0" d="M38.3,9.1L38.3,9.1C38.2,9.1,38.3,9.3,38.3,9.1z"/>
		<path class="st0" d="M35.4,10.3c0.6-0.7-0.8-1.6-1-0.9c-0.1,0.4,0.2,0.9,0.6,1C35.2,10.3,35.3,10.3,35.4,10.3z"/>
		<path class="st0" d="M37.7,9.6c0-0.1,0-0.2-0.1-0.3C37.6,9.4,37.6,9.5,37.7,9.6C37.7,9.6,37.7,9.6,37.7,9.6z"/>
		<path class="st0" d="M80.1,11.9c0.7,0.1,1.3-0.4,1.2-1.4c-0.2-0.6-0.8-0.9-1.4-0.7c-0.6,0.2-0.9,0.8-0.7,1.4
			C79.4,11.6,79.7,11.8,80.1,11.9z"/>
		<path class="st0" d="M31.1,10.7c0.1-0.3-0.1-0.7-0.5-0.8c-0.1,0-0.3,0-0.4,0C30.2,10.5,30.6,10.9,31.1,10.7z"/>
		<path class="st0" d="M39.2,10.4c0-0.1,0-0.2-0.1-0.2S39.1,10.4,39.2,10.4z"/>
		<path class="st0" d="M22.4,10.3c0,0.1,0,0.1,0,0.2h0.2C22.5,10.4,22.5,10.3,22.4,10.3z"/>
		<path class="st0" d="M38.4,12.4c0.3-0.5,0-1.4-0.6-1.4C36.7,11,37.5,12.9,38.4,12.4z"/>
		<path class="st0" d="M43.3,11.4c0-0.1-0.1-0.3-0.2-0.2S43.2,11.4,43.3,11.4z"/>
		<path class="st0" d="M56.1,11.9c0.1-0.1,0.2-0.1,0.2-0.2C56.3,11.1,55.4,11.7,56.1,11.9z"/>
		<path class="st0" d="M77.5,13.1c0.6,0.1,1.1-0.3,1-0.8c-0.1-0.2-0.2-0.3-0.4-0.4c-0.4-0.1-0.7,0.2-0.8,0.5c0,0.1,0,0.3,0,0.4
			C77.3,12.8,77.5,12.9,77.5,13.1z"/>
		<path class="st0" d="M39,12.3c0-0.2,0-0.4-0.2-0.3c-0.1,0.1,0,0.2,0.1,0.3C38.9,12.2,38.9,12.3,39,12.3z"/>
		<path class="st0" d="M50,12.1c-0.1-0.1-0.5-0.1-0.5,0.1c0,0.1,0.2,0.2,0.3,0.2C50,12.4,50,12.2,50,12.1z"/>
		<path class="st0" d="M39.8,13.8c0.2,0.3,0.5,0.5,0.8,0.4c0.8-0.2-0.1-2.1-0.9-1.7c-0.2-0.2-0.4-0.6-0.7-0.4c-0.1,0.3,0,0.7,0.2,1
			C39.7,13.2,39.7,13.5,39.8,13.8z"/>
		<polygon class="st0" points="33.9,12.2 33.9,12.1 33.8,12.1 33.8,12.2 		"/>
		<rect x="36.8" y="12.3" class="st0" width="0.1" height="0.1"/>
		<path class="st0" d="M29,13.2c0.7-0.9-1.3-1.1-0.7-0.2C28.5,13.2,28.7,13.2,29,13.2z"/>
		<path class="st0" d="M74,12.6c0.1,0,0.2,0,0.2-0.1H74V12.6z"/>
		<path class="st0" d="M54.6,12.8c0.1-0.1,0-0.1,0-0.2c0,0-0.1,0-0.1,0S54.4,12.8,54.6,12.8C54.5,12.8,54.5,12.8,54.6,12.8z"/>
		<path class="st0" d="M77,12.8h-0.2C76.8,13,77.1,13,77,12.8z"/>
		<path class="st0" d="M32.8,13.3c0-0.2-0.1-0.2-0.1-0.3c-0.1,0-0.2,0-0.3,0C32.4,13.2,32.5,13.4,32.8,13.3z"/>
		<path class="st0" d="M71.6,15c0.5-0.1,0.6-0.6,0.8-0.9c-0.1-0.5-0.3-1-0.8-1.1s-0.9,0.3-1.2,0.8c-0.1,0.5,0.2,1.1,0.7,1.2
			C71.2,15,71.4,15,71.6,15z"/>
		<path class="st0" d="M77,13.1c-0.2,0-0.5-0.1-0.6,0s-0.3,0.4-0.4,0.7c0.1,0.3,0.3,0.5,0.5,0.6C77.5,14.6,77.6,13.4,77,13.1z"/>
		<path class="st0" d="M46.2,16.1c0.1,0,0.1-0.2,0.2-0.3c0.3,0.1,0.5,0.1,0.6,0.4h0.4c0.1,0,0.1-0.2,0.3-0.3
			c0.3-0.1,0.6-0.3,0.8-0.5c0.2-0.2,0-1.2,0-1.4c-0.3-0.2-0.6-0.5-0.8-0.8c-0.5,0-1.2-0.1-1.5,0.2v0.1h-0.1
			c-0.2,0.1-0.2,0.3-0.3,0.6s-0.2,0.2-0.3,0.3c-0.1,0.3-0.1,0.5,0,0.8c-0.2,0.3,0,0.7,0.3,0.9C46,16.1,46.1,16.1,46.2,16.1z"/>
		<path class="st0" d="M37,13.8c0-0.2,0-0.4-0.3-0.4C36.5,13.6,36.7,13.9,37,13.8z"/>
		<path class="st0" d="M41.8,13.4L41.8,13.4L41.8,13.4C41.9,13.5,41.9,13.4,41.8,13.4z"/>
		<path class="st0" d="M28,13.6l-0.2-0.1l0,0.2C27.8,13.6,28,13.7,28,13.6z"/>
		<path class="st0" d="M39.4,14.2c0.2-0.1,0.3-0.6-0.1-0.7C39.2,13.7,39,14.1,39.4,14.2z"/>
		<path class="st0" d="M41.4,13.7c0-0.1,0-0.2-0.1-0.2S41.3,13.7,41.4,13.7z"/>
		<path class="st0" d="M37.9,13.7c-0.1,0,0-0.1-0.1-0.1S37.8,13.8,37.9,13.7z"/>
		<path class="st0" d="M43.5,15.1c0.2-0.5-0.1-1.1-0.6-1.3c0,0,0,0,0,0c-0.3,0.4-0.2,0.9,0.2,1.1C43.2,15,43.3,15.1,43.5,15.1z"/>
		<path class="st0" d="M89.5,15.5c0.5,0,0.7-0.3,1-0.6c0.1-0.8-0.4-1.2-1.1-1c-0.4,0.1-0.7,0.5-0.6,1C88.8,15.2,89.1,15.5,89.5,15.5
			z"/>
		<path class="st0" d="M38,14.6c0-0.3-0.1-0.5-0.3-0.6c-0.2,0-0.2,0.1-0.3,0.1C37.4,14.4,37.7,14.8,38,14.6z"/>
		<path class="st0" d="M34.3,14.3c0-0.2,0-0.3-0.2-0.3S34.1,14.3,34.3,14.3z"/>
		<path class="st0" d="M32.3,18.8c0,0.2-0.1,0.3-0.1,0.5c0.2,0.3,0.4,0.5,0.7,0.5c0.5,0,0.7-0.5,0.8-0.9c0.9-0.4,1.4-1.3,1.4-2.2
			c0-0.4-0.2-0.8-0.2-1.2c-0.4-0.8-1.2-1.2-2.1-1.2c-0.5,0.1-1,0.3-1.3,0.8c-0.4,0.9-0.5,1.9-0.1,2.8C31.7,18.1,32.2,18.2,32.3,18.8
			z"/>
		<path class="st0" d="M28.7,14.7c-0.1,0.5,0.2,1.1,0.8,1.2c0.4,0.1,0.8,0.1,1.1-0.2C31.3,14.8,29.4,13.5,28.7,14.7z"/>
		<path class="st0" d="M40.8,14.7c-0.1-0.6-1-0.3-1.1,0.2c0,0.3,0.1,0.6,0.4,0.7c0.3,0,0.5,0,0.8,0c0.1,0.2,0.3,0.4,0.4,0.6
			c0.1-0.3,0.2-0.6,0.1-0.9c0.1,0,0.1,0.1,0.2,0c0.3-0.5,0-1.4-0.6-1.1C41,14.4,41,14.6,40.8,14.7z"/>
		<path class="st0" d="M75.9,14.4c-0.1,0.1-0.1,0.2,0.1,0.1L75.9,14.4z"/>
		<path class="st0" d="M81.8,15.4c0.2-0.2,0.2-0.6,0-0.9C81,14.4,80.9,15.6,81.8,15.4z"/>
		<path class="st0" d="M28.5,14.9v-0.2C28,14.3,28,15.3,28.5,14.9z"/>
		<path class="st0" d="M42.9,15.3c0.1-0.2,0-0.6-0.3-0.6C42.4,15,42.5,15.4,42.9,15.3z"/>
		<path class="st0" d="M38.9,15.1c0,0.1,0.1,0.2,0.2,0.2C39.1,15.2,39.1,15.1,38.9,15.1L38.9,15.1z"/>
		<path class="st0" d="M43.3,15.2c-0.3,0.2-0.1,0.9,0.3,0.8c0.2-0.2,0.1-0.5-0.1-0.7C43.4,15.2,43.3,15.2,43.3,15.2z"/>
		<path class="st0" d="M37.2,15.7c0,0.2,0.2,0.3,0.3,0.5c-0.2,0.2,0,0.4,0,0.6s-0.2,0.6,0,0.8c0.6-0.1,1-0.8,0.5-1.3
			c0.1-0.2,0.2-0.2,0.3-0.4C38.3,15.4,37.2,14.9,37.2,15.7z"/>
		<path class="st0" d="M42.2,15.3c-0.6,0-0.2,1.1,0.3,0.8C42.6,15.8,42.5,15.4,42.2,15.3z"/>
		<path class="st0" d="M39.8,16.7c0.2-0.4,0.1-0.9-0.2-1.1c-0.3-0.2-0.9-0.1-1,0.3C38.4,16.5,39.1,16.9,39.8,16.7z"/>
		<path class="st0" d="M43.7,15.4c0,0.1,0,0.2,0.1,0.2C43.8,15.6,43.8,15.4,43.7,15.4z"/>
		<path class="st0" d="M26,16.7c0.2-0.2,0.2-0.5,0.1-0.8c-0.2-0.4-0.5-0.5-1-0.4s-0.6,0.1-0.6,0.3C24.3,16.6,25.6,17.2,26,16.7z"/>
		<path class="st0" d="M40.5,15.7c0,0.1,0,0.2,0.2,0.2C40.7,15.8,40.7,15.7,40.5,15.7z"/>
		<polygon class="st0" points="11.9,16 11.9,16 12,15.9 11.9,15.9 		"/>
		<path class="st0" d="M30.9,16c0-0.1-0.3-0.2-0.3,0S30.9,16.1,30.9,16z"/>
		<path class="st0" d="M43.1,16L43.1,16C43,16,43.1,16.1,43.1,16z"/>
		<path class="st0" d="M71.5,16.2v-0.1h-0.1C71.4,16.2,71.4,16.2,71.5,16.2z"/>
		<path class="st0" d="M40.4,16.3c-0.1,0.1,0,0.3,0.1,0.4c0.1,0.1,0.2,0.1,0.3,0C40.8,16.5,40.8,16.3,40.4,16.3L40.4,16.3z"/>
		<path class="st0" d="M42.4,16.3c0,0.1,0,0.3,0.2,0.3C42.5,16.4,42.5,16.2,42.4,16.3z"/>
		<path class="st0" d="M44.5,16.6c0-0.2-0.2-0.3-0.3-0.3c-0.1,0.1,0,0.3,0,0.4C44.3,16.6,44.4,16.6,44.5,16.6z"/>
		<path class="st0" d="M45.8,16.5c0-0.1,0-0.2-0.1-0.2c0,0.1,0,0.1,0,0.2C45.7,16.5,45.8,16.5,45.8,16.5z"/>
		<path class="st0" d="M11.4,16.5h0.2v-0.3h-0.1C11.3,16.4,11.3,16.5,11.4,16.5z"/>
		<path class="st0" d="M43.2,16.4c-0.1,0-0.2-0.1-0.3,0c-0.1,0.4,0.4,0.5,0.8,0.6C43.6,16.6,43.2,16.7,43.2,16.4z"/>
		<path class="st0" d="M104.2,18.7c0.2,0,0.4-0.1,0.6-0.1c0.2-0.2,0.3-0.4,0.5-0.5c0.1-1.1-0.3-1.9-1.4-1.7c-0.6,0.2-1,0.8-0.9,1.4
			C103.1,18.4,103.6,18.7,104.2,18.7z"/>
		<rect x="51.8" y="16.5" class="st0" width="0.1" height="0.1"/>
		<path class="st0" d="M41.5,16.5c-0.3,0-0.2,0.6,0.1,0.6C42,17,41.7,16.5,41.5,16.5z"/>
		<path class="st0" d="M42.8,16.8c-0.1-0.1-0.2,0.1-0.3,0s-0.2-0.3-0.4-0.3s-0.2,0.4,0,0.7c0.5-0.1,0.6,0.4,0.9,0.2
			C43,17.2,43,16.9,42.8,16.8z"/>
		<path class="st0" d="M45.3,17.2c0.1-0.2,0.1-0.4-0.1-0.5c-0.1,0-0.1-0.1-0.2-0.1c-0.1,0.2,0,0.4,0.1,0.5
			C45.2,17.2,45.3,17.2,45.3,17.2z"/>
		<path class="st0" d="M76.9,16.8c-0.1-0.1-0.3,0-0.3,0.1c0,0.1,0,0.1,0,0.2h0.3V16.8z"/>
		<path class="st0" d="M46.2,17c0,0.3,0.2,0.6,0.5,0.6c0.1,0,0.1,0,0.2,0C46.8,17.2,46.4,16.7,46.2,17z"/>
		<path class="st0" d="M44.1,17.5c0-0.2,0-0.4-0.2-0.4S43.8,17.6,44.1,17.5z"/>
		<path class="st0" d="M67.5,17.7c0.3,0,0.5-0.1,0.6-0.3c-0.3-0.1-0.9-0.5-0.8,0.2L67.5,17.7z"/>
		<path class="st0" d="M62.7,17.7c0-0.3-0.3-0.6-0.5-0.3c-0.1,0.1,0.1,0.4,0.1,0.5C62.4,17.9,62.6,17.8,62.7,17.7z"/>
		<path class="st0" d="M41.3,18c0.3,0,0.3-0.5,0-0.7C40.7,17.2,41,18,41.3,18z"/>
		<path class="st0" d="M76.3,17.8c0,0.5,1,0.4,0.9-0.1c0-0.3-0.3-0.3-0.5-0.3C76.3,17.4,76.3,17.6,76.3,17.8z"/>
		<path class="st0" d="M30.6,17.4c-0.1-0.1-0.1,0-0.3,0v0.2c0.1,0,0.1,0,0.2,0L30.6,17.4z"/>
		<path class="st0" d="M38.8,17.4c-0.8-0.2-0.3,1.2,0.3,0.7C39.2,17.7,39,17.4,38.8,17.4z"/>
		<path class="st0" d="M42.5,17.6c0.1-0.1,0.1-0.1,0-0.2h-0.2C42.5,17.5,42.4,17.7,42.5,17.6z"/>
		<path class="st0" d="M65.5,17.8c0.1,0,0.2-0.1,0.2-0.2C65.6,17.2,65.2,17.6,65.5,17.8z"/>
		<path class="st0" d="M71.1,17.6l0.1-0.2H71C71,17.6,71,17.6,71.1,17.6z"/>
		<path class="st0" d="M40.2,17.5c0,0.1,0,0.1,0.1,0.1C40.4,17.5,40.3,17.6,40.2,17.5z"/>
		<path class="st0" d="M45.5,18.5c0.1-0.3,0.1-0.5,0.2-0.8c-0.2-0.3-0.6,0-0.8,0.2C44.9,18.3,45.2,18.6,45.5,18.5z"/>
		<path class="st0" d="M36.1,18.5c0.3,0.3,0.7,0.3,1.1,0.3C38,17.6,35.8,17.1,36.1,18.5z"/>
		<path class="st0" d="M71.9,18.4c0.2,0,0.4,0.2,0.6,0.1c0.1-0.2,0.1-0.4,0.1-0.6c-0.2,0-0.2-0.2-0.2-0.2C72,17.5,71.7,18,71.9,18.4
			z"/>
		<path class="st0" d="M55.8,18v0.2H56C56,18,55.8,18,55.8,18z"/>
		<path class="st0" d="M51.8,19.1c0.1-0.1,0.3-0.2,0.5-0.2c0.1-0.5-0.2-0.6-0.5-0.8c-0.6,0-1.2-0.2-1.1,0.4
			C50.8,18.9,51.4,18.9,51.8,19.1z"/>
		<path class="st0" d="M43,18.6c0-0.2,0-0.3-0.2-0.3c-0.1,0.1,0,0.2,0.1,0.3C42.9,18.6,42.9,18.6,43,18.6z"/>
		<path class="st0" d="M44.9,18.7c0,0,0-0.1,0-0.1c0,0-0.1,0-0.1,0C44.8,18.6,44.8,18.7,44.9,18.7z"/>
		<path class="st0" d="M67.7,18.7v-0.2c0-0.1-0.2-0.1-0.2,0L67.7,18.7z"/>
		<path class="st0" d="M40,19.6c0.2,0,0-0.2,0.1-0.4s0.2-0.4,0-0.6C39.5,18.6,39.8,19.5,40,19.6z"/>
		<path class="st0" d="M40.9,19.2c0.1,0.1,0.2,0.2,0.4,0.1c0.2-0.1,0.2-0.7-0.1-0.7s-0.6,0-0.8,0.2c0,0.2,0.1,0.3,0.2,0.4
			C40.7,19.3,40.8,19.2,40.9,19.2z"/>
		<path class="st0" d="M75.2,18.7h-0.2c-0.1,0.1,0,0.2,0,0.3S75.2,18.8,75.2,18.7z"/>
		<path class="st0" d="M75.9,18.9v-0.2h-0.3C75.6,18.9,75.8,19,75.9,18.9z"/>
		<path class="st0" d="M105,20c0.2,0.1,0.3,0.4,0.5,0.4c0.4,0.1,0.9-0.1,1-0.5c0.1-0.3,0-0.7-0.3-0.9c-0.4-0.2-0.9-0.1-1.1,0.4
			C104.9,19.5,104.9,19.8,105,20z"/>
		<path class="st0" d="M34.8,19.6c-0.2-0.1-0.4,0.1-0.3,0.3c0.2,0,0.2,0,0.3-0.1S34.8,19.7,34.8,19.6z"/>
		<path class="st0" d="M38,19.7c-0.2-0.3-0.6,0-0.4,0.4H38C38,20,38,19.8,38,19.7z"/>
		<path class="st0" d="M38.5,20c0,0.3,0.1,0.6,0.3,0.8c0.4,0,0.6,0,0.7-0.2C40,19.8,38.6,19.1,38.5,20z"/>
		<path class="st0" d="M51.4,19.6l-0.2-0.1l-0.1,0.1C51.2,19.8,51.4,19.8,51.4,19.6z"/>
		<path class="st0" d="M35.3,19.6c0,0.1,0,0.2,0.2,0.2S35.5,19.6,35.3,19.6z"/>
		<path class="st0" d="M85.4,19.6l-0.2,0.1C85.3,19.7,85.4,19.8,85.4,19.6z"/>
		<path class="st0" d="M41.3,20.2c0.1,0.2,0.3,0.2,0.5,0.1c0,0,0,0,0,0C42,19.9,41.2,19.7,41.3,20.2z"/>
		<path class="st0" d="M33.5,20c-0.2,0-0.3,0.1-0.2,0.3c0.1,0,0.2,0,0.3,0C33.6,20.1,33.5,20.2,33.5,20z"/>
		<path class="st0" d="M40,21.2c0,0.1,0,0.3,0,0.4c-0.1,0.5-0.3,0.9,0,1.1c0.2,0.1,0.5,0,0.7,0.1c0.1-0.1,0.2-0.2,0.3-0.3
			c0-0.3,0-0.6-0.2-0.8c0.1-0.2,0.1-0.5,0-0.7c0.1-0.1,0.1-0.3,0-0.5c-0.1-0.1-0.2-0.1-0.3-0.1C40.5,20.8,40.1,20.9,40,21.2z"/>
		<path class="st0" d="M94,22.4c0.3-0.1,0.6-0.2,0.7-0.5v-0.3c0,0,0.1,0,0.1-0.1c0.1-0.5-0.2-0.9-0.6-1c-0.2,0-0.4,0-0.5,0
			c-0.3,0.2-0.5,0.5-0.6,0.9c0,0.2,0.1,0.4,0.2,0.6C93.4,22.3,93.7,22.3,94,22.4z"/>
		<path class="st0" d="M38.1,21.5c0.2,0,0.4-0.1,0.6-0.2C38.9,20.2,37.4,20.9,38.1,21.5z"/>
		<path class="st0" d="M35.9,21.8c0.3,0.1,0.6,0.1,0.8-0.1C36.9,20.8,35.6,21.1,35.9,21.8z"/>
		<path class="st0" d="M39.7,22.3c0.1-0.4-0.2-0.6-0.6-0.5s-0.5,0.1-0.6,0.3C38.4,22.7,39.6,22.7,39.7,22.3z"/>
		<path class="st0" d="M77.8,21.6c-0.4,0-0.6,0.1-0.6,0.4C77.3,22.8,78.5,22.3,77.8,21.6z"/>
		<path class="st0" d="M108.9,21.7c-0.2,0-0.3,0.1-0.2,0.3S109,21.9,108.9,21.7z"/>
		<path class="st0" d="M42.5,22.4c0-0.1,0-0.3,0-0.4C42.2,21.6,42,22.5,42.5,22.4z"/>
		<path class="st0" d="M41.6,22.2c0.1,0,0.2,0,0.3,0C42,22,41.6,21.9,41.6,22.2z"/>
		<path class="st0" d="M95.7,22.5c-0.2-0.1-0.5,0-0.5,0.2S95.8,22.9,95.7,22.5z"/>
		<path class="st0" d="M78.4,22.7c0-0.4-0.8-0.2-0.4,0.3C78.3,23,78.4,22.9,78.4,22.7z"/>
		<path class="st0" d="M41.6,22.8c-0.1,0-0.2,0-0.2,0.1S41.6,22.9,41.6,22.8z"/>
		<path class="st0" d="M38.9,23.4L38.9,23.4c-0.3-0.2-0.7-0.1-0.6,0.3C38.5,23.8,39,23.8,38.9,23.4z"/>
		<path class="st0" d="M41.1,23.5c-0.5,0.3-1.3-0.5-1.4,0.2c0,0.2,0.1,0.4,0.3,0.5c0.6-0.4,0.7,0.3,1,0.3
			C41.5,24.6,41.5,23.7,41.1,23.5z"/>
		<path class="st0" d="M39.7,25.8c0.2,0,0.1-0.2,0.3-0.3c0.3-0.1,0.6-0.2,0.5-0.7c-0.2-0.2-0.3-0.3-0.4-0.6c-0.4,0.1-0.9,0.1-1,0.5
			C39.2,25.2,39.7,25.3,39.7,25.8z"/>
		<path class="st0" d="M92.9,24.5c-0.2-0.1-0.3,0-0.4,0.2c0,0,0,0.1,0,0.1c0.1,0.1,0.3,0,0.4-0.1C92.9,24.6,92.9,24.5,92.9,24.5z"/>
		<path class="st0" d="M38.9,25.8c0.2-0.5-0.3-0.8-0.5-1.1c-0.4-0.1-0.8,0.1-1,0.4c0,0.2,0.1,0.2,0,0.3s-0.4,0-0.5,0.2
			s0.3,0,0.3,0.2c-0.1,0.2-0.1,0.4-0.1,0.6c0.2,0.1,0.5,0.1,0.8,0.1C38,26.1,38.8,26.2,38.9,25.8z"/>
		<path class="st0" d="M28.8,24.8c-0.1,0-0.2,0-0.3,0c0,0.2,0.1,0.3,0.3,0.3C28.9,25,28.9,24.9,28.8,24.8z"/>
		<path class="st0" d="M35.9,25.9c0.1,0.1,0.3,0.1,0.4,0c0.1-1.3-2.1-0.9-2.2,0C34.5,26.4,35.6,26.1,35.9,25.9z"/>
		<path class="st0" d="M93.2,25.2c0.1,0,0.2,0,0.2-0.1S93.2,25,93.2,25.2z"/>
		<path class="st0" d="M41.7,25.6c0-0.1,0-0.2,0-0.3c-0.3-0.3-0.5,0.1-0.5,0.5C41.5,25.8,41.5,25.6,41.7,25.6z"/>
		<path class="st0" d="M29.4,25.4h-0.2v0.1C29.3,25.6,29.4,25.6,29.4,25.4C29.4,25.5,29.4,25.5,29.4,25.4z"/>
		<path class="st0" d="M40.8,26c0.1,0,0.3,0,0.4-0.1c0-0.1-0.1-0.2-0.1-0.3C40.7,25.5,40.7,25.8,40.8,26z"/>
		<path class="st0" d="M39.2,26c0.1,0,0.2-0.1,0.2-0.3l-0.2-0.1C39.1,25.7,39.2,25.9,39.2,26z"/>
		<path class="st0" d="M42.7,26.4c0-0.1,0-0.3,0-0.4c-0.3,0-0.4,0.1-0.3,0.3C42.5,26.4,42.6,26.5,42.7,26.4z"/>
		<path class="st0" d="M33.6,26.7c0.1-0.2,0.3-0.1,0.3-0.4c-0.3,0-0.6,0-0.7,0.3C33.3,26.6,33.5,26.7,33.6,26.7z"/>
		<path class="st0" d="M41.7,26.8c0.1,0.1,0.2,0.2,0.4,0.1C42.3,26.5,41.7,26.3,41.7,26.8z"/>
		<path class="st0" d="M120.7,28c0.4,0,0.5-0.9,0.3-1.4C120.1,26,120.1,28,120.7,28z"/>
		<path class="st0" d="M43.3,26.7v0.2c0.1,0,0.2,0,0.2-0.2H43.3z"/>
		<path class="st0" d="M38.7,26.7c-0.1,0-0.2,0-0.1,0.1L38.7,26.7z"/>
		<rect x="36.3" y="26.8" class="st0" width="0.1" height="0.1"/>
		<path class="st0" d="M38.1,27.1c0-0.1,0-0.2-0.1-0.2C37.9,27,37.9,27.1,38.1,27.1C38,27.1,38,27.1,38.1,27.1z"/>
		<path class="st0" d="M42.9,27.7c0.1,0.1,0.2-0.1,0.2,0.1c0,0.3,0,0.6,0.2,0.8c-0.1,0-0.2,0.1-0.2,0.3c0.4,0.1,0.4-0.5,0.7-0.6
			c0-0.1,0.1-0.2,0-0.3c0.6-0.4-0.4-1.3-0.8-0.7C43,27.4,43,27.6,42.9,27.7z"/>
		<path class="st0" d="M32.5,27.8c0.3,0.2,0.8,0,0.7-0.4v-0.1C32.8,27.1,32.2,27.4,32.5,27.8z"/>
		<path class="st0" d="M22.5,27.8c0.3,0.2,0.7,0.1,0.7-0.2C23.3,27.2,22.4,27.2,22.5,27.8z"/>
		<path class="st0" d="M93.3,27.8c-0.6,0.1-1,0.3-1.1,1C92.9,29,93.2,28.4,93.3,27.8z"/>
		<path class="st0" d="M44.4,28c-0.1,0-0.2,0.1-0.3,0.1s0.1,0.1,0.1,0.2s0.1-0.1,0.2,0C44.4,28.2,44.4,28.1,44.4,28z"/>
		<path class="st0" d="M96.9,28.1c-0.2-0.4-0.9,0-0.5,0.3C96.7,28.5,96.9,28.4,96.9,28.1z"/>
		<path class="st0" d="M98.2,28.5L98.2,28.5C98.1,28.8,98.4,28.6,98.2,28.5z"/>
		<path class="st0" d="M87.8,29.2c-0.2-0.1-0.6,0-0.6,0.4C87.6,29.6,87.8,29.5,87.8,29.2z"/>
		<path class="st0" d="M80.6,29.7c-0.1,0.4,0.3,0.7,0.6,1c0.4,0.1,0.8,0.1,1.2,0c0-0.2,0-0.5,0-0.7c-0.3-0.1-0.3-0.5-0.6-0.7
			S80.7,29.3,80.6,29.7z"/>
		<path class="st0" d="M90,29.7L90,29.7c0.3,0.3,1,0.1,0.8-0.5C90.4,29.1,90,29.3,90,29.7z"/>
		<path class="st0" d="M98.3,30c0,0.2,0.1,0.4,0.2,0.6c0.6,0,0.8-0.3,0.7-0.6C99.1,29.4,98.4,29.6,98.3,30z"/>
		<path class="st0" d="M87,29.7c-0.4,0-0.8,0.1-0.6,0.5C86.7,30.2,87,30.1,87,29.7z"/>
		<path class="st0" d="M102.2,36.3c-0.7-0.1-1,0.3-1.5,0.5c-0.3-0.2-0.5-0.3-0.8-0.3c-0.8,0.2-0.3,2.4,0.6,1.5
			c0.2,0.2,0.4,0.3,0.5,0.5c-0.4,0.6-0.6,1.3-0.7,2.1c-0.4,0.1-0.8,0-1.2-0.1c-0.2,0.3-1.2,0.3-1.5,0.8c0,0.1,0,0.3-0.1,0.5
			s-0.4,0.2-0.4,0.4s0.5,0.4,0.9,0.3c0.5,0.2,1,0.3,1.5,0.1c0.4-0.3,0.2-0.9,0.5-1.2c0.1,0,0.1,0.2,0.1,0.3c0.2-0.2,0.5-0.1,0.7,0.1
			c0,0.1,0.1,0.1,0.1,0.2c-0.2,0.2-0.5,0.5-0.7,0.8c-0.6-0.2-0.9,0.2-1.2,0.5c0.3,0.4,1,0.2,1.4,0.1c0.1,0.2,0.3,0.3,0.4,0.5
			c-0.1,0.3,0,0.6,0.3,0.8c0.1,0,0.3,0.1,0.4,0c0.3-0.1,0.3-0.4,0.5-0.5c0.4,0,0.8-0.1,1.1-0.3c0.4,0.2,1.1,0.7,1.3,0
			c0-0.5-0.9-0.2-1.1-0.5c0.6-0.9,3.3,0.7,3.2-0.8c0-0.2-0.4-0.7,0-0.8v-0.1h0.1c0.3-0.2,0.8-0.4,1-0.7c0.2-0.2,0.2-0.5,0.2-0.8
			c-0.2-0.3-0.4-0.6-0.7-0.7c-0.4-0.1-0.8,0.2-1.4,0.2c-0.4-0.4-0.7-0.9-0.6-1.5c0-0.3,0.2-0.4,0.1-0.7s-0.5-0.6-0.6-0.8
			c0-0.3,0.1-0.6,0.2-0.8c0.1-0.3,0.2-0.5,0.4-0.7c0.4,0.4,1,0.7,1.6,0.8c0.7,0,0.9-0.7,1.5-0.7c0.2,0.7,0.6,1.3,1.2,1.7
			c0,0.2,0,0.4,0.1,0.6h0.6c-0.3,0.3-0.3,0.8-0.8,0.9c-0.2,0.2-0.2,0.5-0.1,0.8c0.2,0,0.4,0,0.6,0c0.1,0.4,0.4,0.6,0.8,0.6
			c1,0.1,2.2-1.1,1.9-2.1c-0.2-0.7-1.3-0.9-2.1-0.5c0.2-0.5,0.8-0.8,1.4-1.4c1.1-1.3,0.7-3.7-0.6-4c-0.6-0.2-0.7,0.3-1.4,0.3
			c-0.4-0.2-0.6-0.8-1-1.3c-0.4-0.4-0.9-0.6-1.4-0.6c-0.8-0.1-2,0.1-2.1,0.6c-0.1,0.2,0.2,0.4,0.1,0.7c-0.4,0.8-0.6,1.7-0.6,2.6
			c-1.2-0.4-2,0.6-1.8,1.8C102.4,35.5,102.5,36.1,102.2,36.3z"/>
		<path class="st0" d="M106.7,41.6L106.7,41.6L106.7,41.6c-0.1,0.2,0,0.2,0.1,0.2S106.8,41.6,106.7,41.6z"/>
		<path class="st0" d="M96.8,30.7c0-0.2,0-0.3,0-0.4c-0.3-0.5-1-0.1-0.8,0.5C96.2,31,96.7,30.9,96.8,30.7z"/>
		<path class="st0" d="M91.8,31c0.1-0.2,0.1-0.5,0-0.8c-0.7-0.1-0.9,0.3-0.7,0.8C91.3,31.1,91.6,31.1,91.8,31z"/>
		<path class="st0" d="M128.5,30.3c-0.6,0-0.5,1.2-0.1,1.4C128.9,31.6,128.9,30.5,128.5,30.3z"/>
		<path class="st0" d="M94.6,33.4c-0.4,0-0.6,0.6-0.2,0.8c0.3-0.1,0.4-0.3,0.6-0.6c0.8,0.3,1.8-0.1,2.1-0.9c0-0.1,0.1-0.2,0.1-0.2
			c-0.2-0.4-0.6-0.5-0.9-0.7c-0.2-0.4-0.1-0.9-0.6-1.1S95,31.4,95.1,32C94.7,32.3,94.5,32.9,94.6,33.4z"/>
		<path class="st0" d="M92.3,31c-0.3-0.1-0.5,0-0.5,0.3c0.1,0.1,0.2,0.1,0.3,0.1C92.3,31.3,92.4,31.2,92.3,31z"/>
		<path class="st0" d="M45.6,31c-0.1,0-0.2,0-0.2,0.1L45.6,31L45.6,31z"/>
		<rect x="99.1" y="31.3" class="st0" width="0.1" height="0.1"/>
		<path class="st0" d="M25.8,32.2c0.3,0.2,1,0.1,1.1-0.2C27.3,31.1,25.4,31.2,25.8,32.2z"/>
		<path class="st0" d="M81,32.4c0,0.3,0.3,0.3,0.3,0.6c0.4,0,0.6,0.4,1,0.5c0.6-0.2,0.9-0.8,0.4-1.2c-0.3-0.4-1-0.5-1.4-0.2
			C81.2,32.2,81.1,32.3,81,32.4z"/>
		<path class="st0" d="M86.8,32c0,0-0.1,0-0.1,0c0,0,0,0.1,0,0.1C86.7,32,86.8,32,86.8,32z"/>
		<path class="st0" d="M86.4,32.5l0.1,0.1c-0.2-0.7-1.3-0.1-1.4,0.4C85.6,33.2,86.4,33,86.4,32.5z"/>
		<path class="st0" d="M87,32.8h0.3v-0.2C87.2,32.8,87,32.7,87,32.8z"/>
		<path class="st0" d="M99.6,34.4c-0.1,0.3-0.5,0.3-0.5,0.6c0,1,1.8,0.1,1.7-0.6c0-0.2-0.3-0.2-0.3-0.4c0.3-0.2,0.4-0.6,0.4-1
			c-0.6-0.6-1.9-0.3-1.8,0.6C99.2,34,99.5,34.1,99.6,34.4z"/>
		<path class="st0" d="M93.9,33c0.1,0.1,0.2,0,0.2-0.1S93.9,32.9,93.9,33z"/>
		<path class="st0" d="M119.6,33.1c-0.1,0.1-0.2,0.3-0.2,0.4c0.1,0,0.1,0.1,0.3,0S119.8,33.2,119.6,33.1z"/>
		<path class="st0" d="M88.9,33.7c0.3,0.2,0.9,0.1,0.8-0.3C89.5,33.2,88.9,33.3,88.9,33.7z"/>
		<path class="st0" d="M86.3,33.4c-0.2-0.2-0.8-0.1-0.8,0.1C85.7,33.8,86.3,33.8,86.3,33.4z"/>
		<path class="st0" d="M83.6,33.8L83.6,33.8c-0.1-0.1-0.3-0.1-0.3,0L83.6,33.8L83.6,33.8z"/>
		<path class="st0" d="M90.1,35.3c0.5,0.3,1.2,0.4,1.7,0.1c0.3-0.1,0.3-0.4,0.5-0.5s0.3-0.2,0.6-0.3s0.4-0.1,0.5-0.3s0-0.4-0.2-0.6
			c-0.6-0.3-1,0.3-1.4,0.5C91.1,34.5,90,34.4,90.1,35.3z"/>
		<path class="st0" d="M102.3,34.5c0-0.2,0-0.4-0.1-0.6c-0.3-0.1-0.5,0-0.8,0.1c-0.1,0.3,0,0.6,0.3,0.6
			C102,34.7,102.2,34.6,102.3,34.5z"/>
		<rect x="41.6" y="33.9" class="st0" width="0.1" height="0.1"/>
		<path class="st0" d="M81.7,33.9c-0.1,0-0.3-0.1-0.3,0l0.1,0V34C81.6,34,81.7,34,81.7,33.9z"/>
		<path class="st0" d="M91.7,33.9h-0.4v0.2C91.6,34.1,91.7,34.1,91.7,33.9z"/>
		<path class="st0" d="M95.7,34.1c-0.2,0.2-0.4,0.4-0.7,0.6c-0.2,0.1-0.4,0-0.3,0.4c0.2,0.1,0.5,0,0.7-0.1c0.4,0.2,0.8,0.2,1.2,0
			c0.8,0.6,1.7-0.7,1-1S96.3,34.3,95.7,34.1z"/>
		<path class="st0" d="M82.8,34.7c0.3,0.1,0.4,0.1,0.7,0s0.4-0.5,0.6-0.5s1,0.3,1.1-0.2c-0.9,0-1.7,0-2.6,0.1
			C82.6,34.4,82.8,34.5,82.8,34.7z"/>
		<path class="st0" d="M42.3,34.2c-0.1-0.1-0.3,0-0.4,0c0,0.1,0.1,0.2,0.1,0.3C42.2,34.6,42.4,34.5,42.3,34.2z"/>
		<path class="st0" d="M89.3,35.1c0.3-0.2,0.4-0.4,0.4-0.8c-0.4-0.3-1.2-0.1-1.2,0.3S89,35,89.3,35.1z"/>
		<path class="st0" d="M44.2,34.5c-0.3-0.4-1,0.1-0.6,0.6C44,35,44.2,34.8,44.2,34.5z"/>
		<path class="st0" d="M73.7,34.4c0.1,0,0.2,0,0.3,0C74,34.3,73.7,34.3,73.7,34.4z"/>
		<rect x="88.3" y="34.4" class="st0" width="0.2" height="0.1"/>
		<path class="st0" d="M74.5,34.6c0.2,0.1,0.3,0.1,0.5,0.1v-0.1h0.1v0H75h0.1C74.9,34.5,74.7,34.5,74.5,34.6z"/>
		<path class="st0" d="M18.3,34.6c-0.5,0-0.9,0.2-1.2,0.6c-0.2,0.3-0.3,0.6-0.3,0.9c0.1,0.6,1.5,0.7,2,0.4c0.5-0.3,0.7-0.8,0.7-1.4
			C19.4,34.8,19,34.5,18.3,34.6z"/>
		<path class="st0" d="M85,35.3c0.3,0.4,1,0.1,1.5,0.2c0.3,0.1,0.6,0.3,0.9,0.3c0.2,0,0.4-0.1,0.6-0.2c0.3-0.1,0.7,0,0.7-0.4
			c-0.5,0.1-0.9-0.4-1.4-0.4c-0.2,0-0.4,0-0.6,0s-0.4-0.1-0.6-0.1C85.7,34.7,85.1,34.9,85,35.3z"/>
		<path class="st0" d="M85,34.8h-0.4C84.6,35,84.9,34.9,85,34.8z"/>
		<path class="st0" d="M93.1,35.2c0.3,0.4,1,0.1,1-0.3C93.8,34.7,93.2,34.8,93.1,35.2z"/>
		<path class="st0" d="M89.6,35v0.3c0.1,0,0.1,0,0.2,0C89.8,35,89.7,35,89.6,35z"/>
		<path class="st0" d="M82.1,35.2c-0.2,0-0.6-0.3-0.7,0C81.5,35.4,81.9,35.4,82.1,35.2z"/>
		<path class="st0" d="M79,35.2c0,0,0.3,0.1,0.3,0S79.1,35.1,79,35.2z"/>
		<path class="st0" d="M56.3,35.5c0.1,0,0.2,0,0.3,0C56.6,35.2,56.2,35.1,56.3,35.5z"/>
		<path class="st0" d="M80.9,35.4c-0.2-0.2-0.6-0.2-1-0.2C79.9,35.6,80.7,35.6,80.9,35.4z"/>
		<path class="st0" d="M82.2,35.3c0.2,0.1,0.5,0.2,0.7,0.1C82.9,35.2,82.3,35.2,82.2,35.3z"/>
		<path class="st0" d="M95.2,35.3c-0.2,0.1-0.3,0.3-0.2,0.5c0,0,0,0,0,0c0.1,0.3,0.8,0.3,0.7-0.2C95.7,35.3,95.5,35.2,95.2,35.3
			C95.2,35.2,95.2,35.2,95.2,35.3z"/>
		<path class="st0" d="M77.5,35.3c-0.1,0-0.2-0.1-0.3,0C77.3,35.3,77.4,35.4,77.5,35.3z"/>
		<path class="st0" d="M89.5,35.4c-0.1-0.2-0.6-0.2-0.6,0S89.5,35.7,89.5,35.4z"/>
		<path class="st0" d="M94.6,35.3c-0.2,0-0.3,0.1-0.2,0.2S94.6,35.5,94.6,35.3z"/>
		<path class="st0" d="M55.6,35.4l-0.1,0.2c0.1,0,0.1,0,0.2,0C55.7,35.5,55.7,35.4,55.6,35.4z"/>
		<path class="st0" d="M96.3,36.3c0.2,0.2,0.6,0.1,0.7-0.1c0.1-0.1,0.1-0.3,0.1-0.4c-0.2-0.1-0.5-0.1-0.8,0c0-0.4-0.4-0.2-0.4,0
			C96.2,35.9,96.3,36.1,96.3,36.3z"/>
		<path class="st0" d="M108.3,35.6c-0.7-0.5-1,0.7-0.4,0.7C108.2,36.4,108.4,36,108.3,35.6z"/>
		<path class="st0" d="M32.6,35.9c-0.5,0.3-0.7,0.9-0.7,1.5c0.9,0.3,2.4-0.5,2.1-1.4C33.9,35.5,33,35.6,32.6,35.9z"/>
		<path class="st0" d="M82.7,35.7c0.1,0,0.2,0.1,0.3,0S82.7,35.6,82.7,35.7z"/>
		<path class="st0" d="M85.5,36.7c0.3,0,0.6,0.2,0.9,0c0-0.3-0.3-0.2-0.3-0.5s0.6,0,0.6-0.3c-0.2-0.4-0.7-0.2-1.2-0.1
			s-0.8-0.1-1,0.2C84.6,36.5,85.3,36.4,85.5,36.7z"/>
		<path class="st0" d="M79.8,35.9c-0.2-0.4-0.8-0.1-1.2-0.2v0.1h-0.1C78.9,36.1,79.4,36.1,79.8,35.9z"/>
		<path class="st0" d="M36.5,35.8h-0.1c0,0.1-0.1,0.2-0.1,0.3C36.5,36.1,36.5,36,36.5,35.8z"/>
		<path class="st0" d="M87.5,36.4c-0.1,0.3-0.1,0.6,0,0.8c0.1,0.2,0.4,0.1,0.4,0.3c-0.1,0.1-0.2,0.2-0.4,0.1
			c0.2,0.2,0.1,0.3,0.2,0.6c-0.1,0.2-0.4,0.2-0.5,0.4c-0.1,1.1,1.4,1.3,2.2,0.9c0.2,0.2,0.9,0.5,1.2,0.2c-0.2-0.3-0.5-0.4-0.8-0.6
			c0-0.2,0-0.4,0.1-0.5c0.4,0,0.8-0.1,1.2-0.3v-0.1h0.1c-0.2-0.2-0.4-0.3-0.6-0.5c0-0.3,0.4-0.1,0.7-0.2c0.2,0.2,0.1,0.5-0.1,0.7
			v0.1h-0.1c0.2,0.4,0.9,0.4,1.4,0.3c0-0.1,0-0.2,0.1-0.3c0.2-0.2,0.3-0.2,0.5-0.5s0-0.4,0.2-0.6c0.3-0.4,1.5-0.4,0.8-1.1
			c-0.2-0.1-0.6,0-0.8-0.1c-0.4,0.2-0.8,0.4-1.2,0.4c-0.3,0.1-0.3,0.5-0.6,0.6c-0.3,0-0.6,0-0.8,0c-0.3-0.2-0.6-0.3-0.7-0.8
			c0.1-0.2,0.4-0.1,0.4-0.3c-0.4,0-0.9-0.1-1.3-0.2c-0.5,0-1,0.1-1.4,0.4C87.8,36.3,87.6,36.2,87.5,36.4z"/>
		<path class="st0" d="M91.6,36.2c0.4,0.2,0.9,0.1,1.1-0.3c0,0,0-0.1,0.1-0.1C92.3,35.8,91.7,35.8,91.6,36.2z"/>
		<path class="st0" d="M82.9,36c0,0,0.2,0.1,0.2,0S82.9,35.9,82.9,36z"/>
		<path class="st0" d="M72.1,36c0,0.3,0.3,0.4,0.6,0.4C72.7,36.2,72.4,36.1,72.1,36z"/>
		<path class="st0" d="M34.2,37c0.5-0.1,0.9-0.2,0.9-0.7v-0.1C34.6,35.8,33.8,36.4,34.2,37z"/>
		<path class="st0" d="M95.6,36.2c-0.2-0.1-0.4,0-0.4,0.2S95.6,36.4,95.6,36.2z"/>
		<path class="st0" d="M81.7,36.5c-0.1-0.3-0.8-0.4-1.2-0.3C80.6,36.6,81.3,36.7,81.7,36.5z"/>
		<path class="st0" d="M86.4,36.4v0.1c0.2,0.1,0.5,0.2,0.7,0C87.1,36.3,86.6,36.3,86.4,36.4z"/>
		<path class="st0" d="M99.4,36.5c-0.2-0.1-0.4-0.1-0.6,0C98.7,37.3,99.7,37.1,99.4,36.5z"/>
		<path class="st0" d="M37,37c0.3,0,0.5-0.2,0.4-0.5C37.2,36.5,36.9,36.7,37,37z"/>
		<rect x="80.5" y="36.5" class="st0" width="0.1" height="0.1"/>
		<path class="st0" d="M72.7,37.3c0.7,0.3,1.2,1.4,2.1,0.9c-0.1-0.4-0.6-0.5-1-0.7c-0.4-0.4-0.9-0.6-1.4-0.8
			C72.4,36.8,72.5,37,72.7,37.3z"/>
		<path class="st0" d="M53.4,37.2c0.2-0.9-1.1-0.3-0.5,0.2C53.1,37.4,53.3,37.4,53.4,37.2z"/>
		<path class="st0" d="M81.6,36.8c0.1,0,0.3,0.2,0.3,0H81.6z"/>
		<path class="st0" d="M83,36.8c0,0.2,0.3,0.1,0.6,0.2s0.7,0.5,0.9,0C84,36.8,83.5,36.7,83,36.8z"/>
		<path class="st0" d="M85.8,37c-0.1,0-0.3-0.1-0.4-0.1C85.3,37.1,85.8,37.2,85.8,37z"/>
		<path class="st0" d="M83,37.3c-0.3-0.3-0.8-0.4-1.2-0.2C81.7,37.4,82.8,37.8,83,37.3z"/>
		<path class="st0" d="M96.3,37.3c0-0.2-0.1-0.2-0.3-0.3C95.8,37.2,96.1,37.5,96.3,37.3z"/>
		<path class="st0" d="M96.8,37.1c-0.2,0.4,0,0.9,0.5,1.1c0.1,0,0.1,0,0.2,0c0.2-0.1,0.5-0.2,0.5-0.5H98C98.1,37,97.3,37,96.8,37.1z
			"/>
		<path class="st0" d="M81.6,37.5c0-0.4-0.6-0.5-0.9-0.4C80.7,37.5,81.2,37.6,81.6,37.5z"/>
		<path class="st0" d="M33.7,37.6c0.2,0.1,0.5,0,0.4-0.3C33.9,37.3,33.7,37.3,33.7,37.6z"/>
		<path class="st0" d="M84,37.6c-0.3-0.2-0.6-0.3-0.9-0.3C83.1,37.8,83.9,38,84,37.6z"/>
		<path class="st0" d="M71.4,37.4c0.1,0.3,0.4,0.6,0.8,0.5C72.3,37.6,71.7,37.3,71.4,37.4z"/>
		<path class="st0" d="M94.8,37.6c-0.3-0.3-1,0-0.6,0.4C94.5,38.1,94.9,38,94.8,37.6z"/>
		<path class="st0" d="M34.8,38.3c0.6,0.2,1-0.3,1-0.8C35.3,37.6,34.9,37.7,34.8,38.3z"/>
		<path class="st0" d="M132.7,37.5l-0.2,0.1c0,0.3-0.1,0.6,0,0.7c0.3,0.2,0.4-0.2,0.5-0.5l0,0C132.9,37.7,132.9,37.5,132.7,37.5z"/>
		<path class="st0" d="M86.1,37.6L86.1,37.6c0.2,0.3,1,0.6,1.3,0.3C87.3,37.4,86.7,37.5,86.1,37.6L86.1,37.6z"/>
		<path class="st0" d="M28.7,37.7c0-0.2-0.1-0.1-0.2-0.1S28.6,37.7,28.7,37.7z"/>
		<path class="st0" d="M85.5,37.6c-0.1,0-0.2-0.1-0.3-0.1C85.2,37.7,85.4,37.7,85.5,37.6z"/>
		<path class="st0" d="M14.3,37.6c0,0.1,0,0.3,0,0.3s0.2,0,0.3,0C14.6,37.6,14.4,37.7,14.3,37.6z"/>
		<path class="st0" d="M34,37.7v0.2C34.1,37.9,34.2,37.7,34,37.7z"/>
		<polygon class="st0" points="42.1,37.8 42,37.9 42.2,37.9 42.2,37.8 		"/>
		<path class="st0" d="M74.6,39.4c-0.1-0.2-0.2-0.3-0.5-0.3c-0.1-0.2-0.4-0.4-0.5-0.6c0-0.1,0-0.1,0-0.2c-0.2-0.3-0.6-0.5-1-0.4
			c-0.1,0.4,0.2,0.5,0.4,0.6c-0.2,0.3-0.6,0.3-0.6,0.7c0,0.2,0.1,0.2,0.1,0.4c0.1,0.3,0.3,0.5,0.5,0.8c0.4,0.2,0.9-0.1,1.1-0.5
			c0-0.1,0-0.2,0-0.3C74.4,39.5,74.6,39.5,74.6,39.4z"/>
		<path class="st0" d="M86.8,39.9c-0.3-0.3-0.6-0.6-1-0.7c-0.2,0-0.4,0-0.6,0c-0.7,0-1.4-0.3-1.9-0.9c0-0.2,0.1-0.2,0.1-0.3
			s-0.4-0.2-0.6-0.3c0,0.2-0.3,0.2-0.5,0.2c0,0.2,0.3,0.1,0.2,0.3c-0.4,0.1-0.9,0-1.2,0.2c-0.1,0.2-0.1,0.4-0.2,0.5
			c0.3,0.3,0.9,0.4,1.2,0.9c0.1,0,0.3,0.1,0.4,0.1c0,0.4,0.3,0.8,0.8,0.7c0.1-0.1,0-0.3,0-0.3c0.4-0.1,0.6,0.2,0.8,0
			c0.2,0.2,0.4,0,0.8,0.1c0.5,0.1,0.9,0.5,1.4,0.3c0.3,0,0.5-0.3,0.5-0.6C86.9,40.1,86.9,40,86.8,39.9z"/>
		<path class="st0" d="M83.9,37.9c-0.1,0.1,0,0.2,0,0.3l0,0H84v0.1c0.5,0.2,1,0.3,1.5,0.2C85.7,37.9,84.5,37.7,83.9,37.9z"/>
		<path class="st0" d="M34.2,38.5c0.2,0,0.4-0.1,0.4-0.3c0-0.1,0-0.2-0.1-0.3C34.3,38,34,38.2,34.2,38.5z"/>
		<path class="st0" d="M75.3,38h-0.1C75.1,38.1,75.3,38.1,75.3,38z"/>
		<path class="st0" d="M82.3,38.2c0-0.1-0.3-0.3-0.3-0.1C82,38.1,82.1,38.2,82.3,38.2z"/>
		<path class="st0" d="M115.8,38.5c0.1,0.1,0.3,0.1,0.4,0c0-0.2,0.1-0.4,0-0.5C115.9,38,115.8,38.2,115.8,38.5z"/>
		<path class="st0" d="M33.8,38.1c0,0.1,0,0.2,0,0.3c0.2,0.1,0.3-0.3,0.1-0.3L33.8,38.1z"/>
		<path class="st0" d="M63.8,38.2l0.2-0.1C63.9,38.1,63.8,38.1,63.8,38.2z"/>
		<path class="st0" d="M70.8,38.6c0.2,0.2,0.3,0.4,0.7,0.4c0.1-0.1,0.2-0.2,0.2-0.3C71.5,38.3,70.8,37.9,70.8,38.6z"/>
		<path class="st0" d="M41.3,40.4c0.2-0.1,0.4-0.2,0.6-0.2c0.5-0.4,0.7-1.2,0.3-1.8c-0.4-0.2-1,0-1.2,0.4
			C41.3,39.4,40.7,40.2,41.3,40.4z"/>
		<path class="st0" d="M53.2,39.1c0.2-0.2,0.6-0.2,0.5-0.6c-0.1-0.2-0.5-0.3-0.8-0.2s-0.2,0.4-0.3,0.5c-0.5-0.1-1.1,0.3-1.1,0.8
			s0.3,1.1,0.8,1.1c0.3,0,0.6-0.1,0.9-0.3C53.4,40.1,53.4,39.6,53.2,39.1z"/>
		<path class="st0" d="M100.6,38.5c-0.2-0.3-0.8-0.2-0.9,0c0,0.1,0,0.3,0,0.4c0.2,0.2,0.6,0.2,0.8-0.1
			C100.5,38.8,100.5,38.7,100.6,38.5z"/>
		<path class="st0" d="M36.8,38.5v0.1c0.1,0,0.1,0,0.2,0v-0.2L36.8,38.5z"/>
		<path class="st0" d="M107.4,39.4c0.5,0.5,1.1-0.2,0.9-0.7S107,38.7,107.4,39.4z"/>
		<path class="st0" d="M42.7,38.5c0,0.1,0.1,0.1,0.2,0.1S42.8,38.5,42.7,38.5z"/>
		<path class="st0" d="M97,39l0.1,0.1c0.3,0,0.6-0.1,0.6-0.5C97.3,38.5,96.9,38.5,97,39z"/>
		<path class="st0" d="M33.2,38.6c-0.4,0-0.6,0.1-0.6,0.4c0.1,0.2,0.4,0.2,0.5,0C33.2,38.9,33.3,38.7,33.2,38.6z"/>
		<path class="st0" d="M75.8,39.4c0.2-0.4,0.7,0.1,1-0.1c-0.2-0.4-0.6-0.7-1.1-0.7l-0.1,0.2c-0.2-0.1-0.4-0.1-0.6,0
			C75,39.2,75.4,39.3,75.8,39.4z"/>
		<path class="st0" d="M33.4,38.9c0.1,0.1,0.2,0.1,0.3,0c0,0,0.1-0.1,0.1-0.1C33.6,38.6,33.4,38.7,33.4,38.9z"/>
		<path class="st0" d="M93.5,38.8c-0.1-0.1-0.3-0.1-0.5,0C92.9,39,93.6,39.2,93.5,38.8z"/>
		<path class="st0" d="M47.7,38.7c-0.3,0.1-0.8-0.2-1,0.1c0.2,0.3,0.3,0.8,0.6,0.9S48.3,39,47.7,38.7z"/>
		<rect x="94.3" y="38.7" class="st0" width="0.1" height="0.1"/>
		<path class="st0" d="M112.4,41.1c0,0.3,0.1,0.5,0.4,0.5c0,0,0,0,0,0c0.3,0,0.5-0.3,0.5-0.8c0.8-0.1,1.5-1.9,0.6-2.1
			s-1.4,0.9-1.1,1.8C112.7,40.7,112.4,40.8,112.4,41.1z"/>
		<path class="st0" d="M39.3,39c-0.1,0-0.1-0.1-0.2-0.1v0.2C39.1,39.1,39.2,39.1,39.3,39C39.3,39,39.3,39,39.3,39z"/>
		<path class="st0" d="M94.7,39.2V39c-0.2,0-0.3-0.1-0.3,0.1C94.4,39.2,94.5,39.2,94.7,39.2C94.6,39.2,94.7,39.2,94.7,39.2z"/>
		<path class="st0" d="M33.9,39.1h-0.1C33.7,39.2,33.9,39.2,33.9,39.1z"/>
		<path class="st0" d="M63.3,39.8c0.1,0.6,1.5,0,1.1-0.6C63.9,39,63.2,39.3,63.3,39.8z"/>
		<path class="st0" d="M94,39.3c-0.2-0.1-0.5-0.1-0.7-0.1c0,0.1,0,0.2,0,0.3C93.6,39.6,94,39.5,94,39.3z"/>
		<path class="st0" d="M39.4,40.1c0.3,0.6,1.3-0.1,0.8-0.8C39.7,39.2,39.3,39.7,39.4,40.1z"/>
		<path class="st0" d="M75.9,39.5c0,0.2-0.1,0.2-0.1,0.5c0.2,0.4,0.9,0.4,1.3,0.6v-0.1h0.1C77.4,39.7,76.4,39.8,75.9,39.5z"/>
		<path class="st0" d="M87.3,39.8c0-0.2-0.2-0.3-0.4-0.3c0,0-0.1,0-0.1,0C86.8,39.8,87.1,39.8,87.3,39.8z"/>
		<path class="st0" d="M109.2,39.9c-0.2,0.6,0.1,1.3,0.8,1.1c0.2-0.3,0.3-0.5,0.5-0.8c0-0.4-0.3-0.6-0.7-0.6
			C109.5,39.5,109.3,39.6,109.2,39.9z"/>
		<path class="st0" d="M92.2,40.1c0-0.5-0.5-0.6-0.9-0.5s-0.6,0.2-0.6,0.5C90.8,40.7,92.2,40.8,92.2,40.1z"/>
		<path class="st0" d="M30,40.3c0.3,0.1,0.7,0,0.8-0.3c0.1-0.1,0.1-0.3,0.1-0.4C30.4,39.6,30,39.7,30,40.3z"/>
		<path class="st0" d="M77.6,39.7c0.1,0.2,0.3,0.3,0.6,0.4C78.2,39.8,77.8,39.5,77.6,39.7z"/>
		<path class="st0" d="M95.4,40.3c0.5,0.3,0.8-0.3,1.2-0.2c0-0.1,0.1-0.1,0-0.2C96.3,39.6,95.2,39.7,95.4,40.3z"/>
		<path class="st0" d="M50.1,40c-0.5,0.1-0.9,0.5-0.9,1c0,0.8,1.1,0.9,1.6,0.4c0.4-0.4,0.4-1,0-1.4C50.6,39.9,50.3,39.9,50.1,40z"/>
		<path class="st0" d="M69.5,40.3c0.2,0,0.3-0.1,0.3-0.3S69.3,40,69.5,40.3z"/>
		<path class="st0" d="M78.9,40c0.1,0.1,0.4,0.3,0.6,0.1C79.4,40.1,79.1,39.8,78.9,40z"/>
		<path class="st0" d="M88.5,40.8c0.2,0.5,0.9,0.5,0.9,0s-1.4-1.3-1.7-0.6C87.9,40.5,88.2,40.7,88.5,40.8z"/>
		<path class="st0" d="M36,40.4c0.1-0.1,0-0.3-0.1-0.3S35.8,40.4,36,40.4z"/>
		<path class="st0" d="M38,40.3L38,40.3c0.2,0.1,0.3,0,0.3-0.1c-0.1-0.1-0.2-0.1-0.3,0C38,40.2,38,40.2,38,40.3z"/>
		<path class="st0" d="M78.1,40.4c0-0.2-0.2-0.3-0.5-0.3C77.6,40.3,77.8,40.4,78.1,40.4C78,40.4,78.1,40.4,78.1,40.4z"/>
		<path class="st0" d="M80.3,40.2c0,0-0.2-0.1-0.2,0S80.3,40.3,80.3,40.2z"/>
		<path class="st0" d="M90,40.3c-0.1,0.3,0.6,0.5,0.9,0.3C90.9,40.1,90,40,90,40.3z"/>
		<path class="st0" d="M76.9,41.1c-0.1-0.4-0.6-0.5-1-0.6c-0.1,0-0.3-0.2-0.3-0.2c-0.6,0-0.2,0.7,0.2,0.9c0,0.2-0.2,0.2-0.1,0.4
			c0.4-0.1,0.6,0.5,1,0.5s0.2-0.2,0.5-0.2C76.9,41.7,77,41.4,76.9,41.1z"/>
		<path class="st0" d="M80.9,41c0.1,0,0.1-0.1,0.2,0c0.3,0.2,0.6,0.4,0.9,0.5c0.1,0.2,0.2,0.3,0.4,0.3c-0.1-0.2-0.1-0.4-0.3-0.6
			c-0.1-0.1-0.3-0.2-0.4-0.3s-0.1-0.2-0.2-0.3c-0.3-0.2-0.7-0.3-1-0.1C80.5,40.7,80.8,40.7,80.9,41z"/>
		<path class="st0" d="M79.6,40.7c-0.2-0.1-0.3-0.3-0.5-0.3C79,40.7,79.4,40.9,79.6,40.7z"/>
		<path class="st0" d="M98,40.6c0-0.2-0.1-0.2-0.3-0.2C97.6,40.6,97.8,40.6,98,40.6z"/>
		<path class="st0" d="M95.5,40.7c0.1,0,0.1,0,0.2,0l-0.1-0.1C95.6,40.6,95.5,40.6,95.5,40.7z"/>
		<path class="st0" d="M97,40.8c-0.1-0.2-0.6-0.3-0.8-0.2s-0.3,0.2-0.3,0.3C95.9,41.5,97.2,41.5,97,40.8z"/>
		<path class="st0" d="M53.8,42c0.2,0.1,0.1,0.4,0.3,0.6c0.2-0.2,0.8-0.4,1-0.8c0.1-0.3,0-0.7-0.3-0.8c-0.2-0.1-0.5-0.1-0.7,0.1
			c-0.2-0.2-0.2-0.4-0.4-0.4c-0.9-0.4-1.3,1.2-0.4,1.3C53.5,42,53.7,41.8,53.8,42z"/>
		<path class="st0" d="M91.7,40.8v-0.1c-0.1,0-0.1,0.1-0.2,0.1H91.7z"/>
		<path class="st0" d="M93.3,40.7c-0.1,0.2,0.3,0.3,0.3,0.1S93.4,40.7,93.3,40.7z"/>
		<path class="st0" d="M76.8,40.7c0,0.2,0.2,0.2,0.3,0.2C77.1,40.8,77,40.7,76.8,40.7z"/>
		<path class="st0" d="M63.1,41.6c-0.5-0.2-0.9,0.2-0.8,0.6s0.5,0.3,0.9,0.3c0.1-0.1,0.1-0.3,0.2-0.4c0.6-0.2,1.3-0.2,1.2-1
			C64.1,40.5,63.3,41.2,63.1,41.6z"/>
		<path class="st0" d="M46.4,40.9c-0.1,0-0.1-0.1-0.2,0v0.2C46.3,41.1,46.3,41,46.4,40.9z"/>
		<path class="st0" d="M94.2,44.6c0.2-0.3,1,0.1,1.2-0.3c0-0.6-0.8-0.5-0.9-1c0-0.1,0-0.3,0-0.4c-0.2-0.2-0.5-0.3-0.6-0.6
			c0-0.1,0.1-0.2,0.1-0.3c-0.2-0.4-0.7-0.6-1.1-0.5c-0.2,0.2-0.3,0.5-0.6,0.5c-0.1-0.5-0.6-0.5-0.6-1.1c-0.3-0.1-0.4,0.1-0.6,0.2
			c-0.5-0.2-0.8,0.1-1.2,0.1c0,0.2,0.1,0.2,0.1,0.3c-0.3,0-0.7,0.3-1.1,0.3c-0.1,0-0.2-0.1-0.3-0.1c-0.9,0.2,0.2,1,0.7,0.5
			c0.1-0.1-0.1-0.3,0-0.3c0.1,0,0.3,0,0.4,0c-0.2,0.2-0.5,0.5-0.3,0.9c-0.2,0-0.3,0-0.5,0.1v0.1c0.1,0.5,0.6,0.5,0.6,0.9
			c0.4,0.4,0.6,0.2,1.2,0.3c0.7,0.1,1,1.3,1.8,0.8c0.3,0.4,0.9,0.6,1.4,0.5c0.4-0.2,0.6-0.6,0.7-1C94.3,44.5,94.3,44.7,94.2,44.6z"
			/>
		<path class="st0" d="M75.3,42c0.1,0,0.1,0,0.2,0c-0.2-0.3-0.9-0.8-1.3-0.4C73.6,42.3,75.4,43.6,75.3,42z"/>
		<path class="st0" d="M87.4,41.6c-0.1-0.1-0.2-0.2-0.3-0.1S87.3,41.8,87.4,41.6z"/>
		<path class="st0" d="M57.5,41.9v-0.2c-0.1-0.1-0.3,0-0.4,0.1c0,0,0,0.1,0,0.1l0,0.1C57.3,42,57.4,42,57.5,41.9z"/>
		<path class="st0" d="M61.4,42.2c0-0.3-0.2-0.5-0.5-0.5c-0.1,0-0.1,0-0.2,0c-0.3,0-0.5,0.3-0.5,0.5C60.1,43.1,61.4,43,61.4,42.2z"
			/>
		<path class="st0" d="M84.9,41.9c0.1,0.3,0.4,0.4,0.7,0.3C85.6,41.8,85,41.5,84.9,41.9z"/>
		<path class="st0" d="M86.6,42.4c0.1-0.5-0.7-0.7-0.8-0.4S86.3,42.6,86.6,42.4z"/>
		<path class="st0" d="M49.4,41.9c-0.5,0.1-0.7,0.7-0.3,0.8C49.8,42.9,50.4,41.7,49.4,41.9z"/>
		<path class="st0" d="M111,42.4c-0.1-0.4-0.6-0.5-1.1-0.4c-0.3,0.1-0.4,0.1-0.5,0.2c-0.3,0.3-0.4,0.9,0,1.2
			c0.2,0.2,0.4,0.3,0.6,0.3C110.6,43.6,111,43,111,42.4z"/>
		<path class="st0" d="M37.1,42.4c0.2,0.1,0.4,0.1,0.5-0.1c0.1-0.1,0.1-0.2,0.1-0.3c-0.2-0.1-0.4-0.1-0.5,0.1
			C37.1,42.2,37.1,42.3,37.1,42.4z"/>
		<path class="st0" d="M89.2,42c0,0.1,0.1,0.1,0.1,0.2S89.3,42,89.2,42z"/>
		<path class="st0" d="M107.6,42.2c-0.3,0.1-0.4,0.4-0.3,0.7c0,0.1,0.1,0.2,0.2,0.2c0.4,0.4,1.2,0.2,1.2-0.4
			C108.5,42.2,108.1,42,107.6,42.2C107.7,42.1,107.6,42.1,107.6,42.2z"/>
		<path class="st0" d="M77.5,42.2c0,0,0.2,0.1,0.2,0S77.5,42.1,77.5,42.2z"/>
		<path class="st0" d="M85.9,42.5H86C86.1,42.4,85.9,42.3,85.9,42.5z"/>
		<path class="st0" d="M65.3,43.4c-0.4-0.1-0.8,0.2-0.8,0.6c0,0,0,0.1,0,0.1c0.3,0.3,0.8-0.1,1-0.2c0.7,0.2,1.5-0.1,1.9-0.7
			c0.1-0.2,0.1-0.4,0-0.5C66.5,42,65.8,43,65.3,43.4z"/>
		<path class="st0" d="M38.5,44.1c1,0.3,2-0.3,1.7-1.2c-0.2-0.3-0.6-0.5-0.9-0.4C38.5,42.6,37.9,43.5,38.5,44.1z"/>
		<path class="st0" d="M87.8,42.9c0-0.3-0.3-0.3-0.6-0.3v0.2C87.4,42.9,87.6,42.9,87.8,42.9z"/>
		<path class="st0" d="M76.5,42.7c0.1,0,0.1,0.1,0.2,0S76.6,42.6,76.5,42.7z"/>
		<path class="st0" d="M58.7,42.7c0,0.1,0.1,0.2,0.2,0.3C58.9,42.8,58.8,42.7,58.7,42.7z"/>
		<path class="st0" d="M62.1,42.7c-0.6,0.2-1.2,0.4-1.1,1.1c0.2,0.8,2.1,0.3,2-0.5C62.9,42.9,62.4,42.7,62.1,42.7z"/>
		<path class="st0" d="M47.5,42.7c-0.1,0-0.2,0-0.3,0C47.2,43,47.6,43,47.5,42.7z"/>
		<path class="st0" d="M57,43.8c0.4-0.3,0.5-0.8,0.2-1.1C56.4,42.5,56.4,43.8,57,43.8z"/>
		<path class="st0" d="M32.3,43.6c0.5,0.1,1,0,0.9-0.6C32.8,42.6,32.1,43,32.3,43.6z"/>
		<path class="st0" d="M34.7,43.7c0,0.2,0.1,0.3,0.1,0.3s-0.2,0.1-0.2,0.4c0.2,0.1,0.3-0.1,0.5-0.1c0.1,0,0.3,0,0.4,0
			c0.5-0.1,1.1-0.6,1-1C36.3,42.5,34.8,43,34.7,43.7z"/>
		<path class="st0" d="M42.1,44.1c0,0.4,0,0.6,0.3,0.7c0.4-0.2,0.9-0.3,1.3-0.2c0.6-0.2,0.7-1.5,0.1-1.6c-0.8-0.2-1,0.6-1.3,0.9
			C42.3,43.9,42.2,43.9,42.1,44.1z"/>
		<path class="st0" d="M97.3,43.5c0-0.1,0.1-0.1,0.1-0.2c-0.1-0.4-0.8-0.5-0.8,0C96.7,43.5,97,43.7,97.3,43.5z"/>
		<path class="st0" d="M74.7,43L74.7,43c-0.1,0.1-0.1,0.3-0.1,0.4c0.1,0.1,0.3,0.1,0.4,0.1C75,43.4,74.9,43.1,74.7,43z"/>
		<path class="st0" d="M68.8,43.7l0.1,0.1c0.2-0.1,0.4-0.1,0.4-0.4C69.2,43.3,68.8,43.4,68.8,43.7z"/>
		<path class="st0" d="M54.7,44c-0.2-0.1-0.4-0.2-0.7-0.3c-0.1-0.5-0.9-0.5-0.9,0s0.2,0.4,0.5,0.5C53.4,45.2,55.3,44.9,54.7,44z"/>
		<path class="st0" d="M88.9,44.1c-0.3-0.4-0.8-0.7-1.3-0.6c-0.1,0.1-0.1,0.3-0.2,0.4c-0.2,0-0.3,0-0.5,0.1
			c-0.2,0.5,0.5,1.1,0.9,1.1c0.2,0,0.2-0.3,0.5-0.3c0.4,0.3,1.2,0.9,1.7,0.4C90.1,44.5,89.5,44.3,88.9,44.1z"/>
		<path class="st0" d="M60.5,44.4c0-0.2,0-0.4-0.1-0.6c-0.4-0.3-0.8,0.1-1,0.3c0,0.4-0.1,0.7,0.1,0.8l0.3,0.1
			C60.2,44.9,60.4,44.7,60.5,44.4z"/>
		<path class="st0" d="M46.5,44c-0.3,0.3-0.3,0.8,0,1.2c0.1,0.1,0.3,0.2,0.5,0.2c0.8,0,1.3-0.7,1.2-1.7C47.6,43.6,47,43.7,46.5,44z"
			/>
		<path class="st0" d="M71.3,44c0-0.2-0.2-0.3-0.3-0.3C71,43.9,71.2,44,71.3,44z"/>
		<path class="st0" d="M55,43.7c-0.4,0.6,0.6,0.7,0.3,0C55.3,43.7,55.2,43.7,55,43.7z"/>
		<path class="st0" d="M108.6,44.3c0.1,0.4,0.9,0.4,0.9-0.1C109.4,43.7,108.6,43.8,108.6,44.3z"/>
		<path class="st0" d="M98.4,44.7c-0.9,0.7,1,2,1.8,1.6c0.6-0.3,0.1-1-0.2-1.2s-0.6-0.2-0.9-0.4c0-0.2,0.1-0.3,0.1-0.5
			C98.6,43.6,97.7,44.3,98.4,44.7z"/>
		<path class="st0" d="M71.8,44c0,0.1,0,0.2,0.2,0.2S71.9,44,71.8,44z"/>
		<path class="st0" d="M104.7,44.2c-0.1,0.3,0.2,0.3,0.4,0.2v-0.2C104.9,44.2,104.8,44.1,104.7,44.2z"/>
		<path class="st0" d="M75.8,44.8c0-0.3-0.1-0.5-0.3-0.6C74.8,44.1,75.4,45,75.8,44.8z"/>
		<path class="st0" d="M52.3,44.3c0,0.1-0.1,0.2,0,0.2S52.4,44.3,52.3,44.3z"/>
		<path class="st0" d="M39.8,44.4c-0.2,0-0.3,0-0.5,0.1v0.3C39.6,45.1,40.2,44.7,39.8,44.4z"/>
		<path class="st0" d="M110.5,44.9c-0.2,0.1-0.2,0.3-0.1,0.5c0.1,0.1,0.2,0.2,0.3,0.2C111.3,45.6,111.1,44.6,110.5,44.9z"/>
		<path class="st0" d="M106.6,45.9c0-0.6-0.4-0.8-1-0.9C105,45.5,106,46.1,106.6,45.9z"/>
		<path class="st0" d="M101.6,45.5c-0.5-0.1-1-0.1-1,0.3s0.8,0.9,1.3,0.8c0.3-0.5,0.9-0.2,1.3,0C103.6,45.3,102,44.6,101.6,45.5z"/>
		<path class="st0" d="M59.8,45.8c0.2,0.1,0.5,0.1,0.7-0.2c0.1-0.1,0.1-0.2,0.1-0.3c-0.2-0.2-0.5-0.1-0.7,0.1
			C59.9,45.5,59.8,45.6,59.8,45.8z"/>
		<path class="st0" d="M88.1,45.4c-0.1,0.4,0.3,0.6,0.6,0.6c0.1-0.2,0-0.5-0.2-0.6C88.4,45.3,88.2,45.3,88.1,45.4z"/>
		<path class="st0" d="M89.7,45.6c0-0.2-0.3-0.3-0.4-0.2C89.4,45.5,89.5,45.7,89.7,45.6z"/>
		<path class="st0" d="M51.3,45.8c0.1,0.1,0.2,0.1,0.4,0.1c0.1-0.1,0.1-0.1,0.1-0.2C51.7,45.4,51.2,45.4,51.3,45.8z"/>
		<path class="st0" d="M56,46.6c0.7,0.1,0.8-0.4,0.7-1C56.1,45.2,55.6,46.1,56,46.6z"/>
		<path class="st0" d="M90.4,45.5c-0.1,0.4,0.3,0.6,0.6,0.6C91,45.7,90.7,45.5,90.4,45.5z"/>
		<path class="st0" d="M36.4,46.8c0.4,0.4,1.1,0.4,1.6,0.1c0.3-0.3,0.3-0.9,0-1.2c-0.1-0.1-0.1-0.1-0.2-0.1c-0.5-0.2-1.1,0-1.3,0.5
			C36.4,46.3,36.3,46.6,36.4,46.8z"/>
		<path class="st0" d="M89.8,46.7c0.6-0.1,0.3-1.2-0.4-0.9S89.4,46.8,89.8,46.7z"/>
		<path class="st0" d="M47,46.2c0-0.1-0.1-0.1,0-0.3c-0.2,0-0.2,0-0.3,0C46.5,46.2,46.8,46.2,47,46.2z"/>
		<path class="st0" d="M86.5,46.1c0-0.1-0.1-0.1-0.2-0.1S86.4,46,86.5,46.1z"/>
		<path class="st0" d="M86.9,46.2c0.1,0.1,0.3,0.2,0.4,0.1S87,45.8,86.9,46.2z"/>
		<path class="st0" d="M54.7,46.2v-0.1c-0.1,0-0.1,0-0.2,0C54.5,46.2,54.6,46.2,54.7,46.2z"/>
		<path class="st0" d="M39.6,52.4L39.6,52.4v0.1c0.4-0.1,0.8,0,1.2,0.2c0.3,0.2,0.3,0.5,0.5,0.6c0.5,0.1,0.9,0,1.3-0.3l0,0v0
			c0.2-0.2,0.4-0.3,0.6-0.4c0.5,0.9,1.6-0.2,1.1-1c-0.1-0.2-0.3-0.2-0.5-0.3c-0.1-0.5,0.1-0.9-0.2-1.3s-0.8-0.4-0.8-1
			c0-0.4,0.9-0.9,0.9-1.6c0-0.7-0.5-1.2-1.2-1.2c-0.5,0-1,0.3-1.2,0.8c0,0.1,0.1,0.1,0.1,0.3c-0.4,0.5,0.1,1,0,1.5s-0.5,0.7-0.5,1
			s0.1,0.8,0,1C40.8,51.4,40,51.8,39.6,52.4z"/>
		<path class="st0" d="M38.8,52.5c-0.1,0.1-0.1,0.3,0,0.4h0.1V53c0.2-0.1,0.4-0.2,0.5-0.3v-0.1v-0.1C39.2,52.5,39,52.3,38.8,52.5z"
			/>
		<path class="st0" d="M38.6,53.3c-0.1,0-0.2,0.4,0,0.4C38.7,53.6,38.8,53.4,38.6,53.3L38.6,53.3L38.6,53.3z"/>
		<path class="st0" d="M90.9,46.4c0-0.1-0.2-0.3-0.3-0.1C90.8,46.3,90.8,46.5,90.9,46.4z"/>
		<path class="st0" d="M33.6,47c0.3,0.1,0.8-0.1,0.6-0.5C33.8,46.3,33.5,46.6,33.6,47z"/>
		<path class="st0" d="M99.7,47.5c-0.1-0.6-1.1-1.1-1.6-0.9c-0.4,0.1-0.5,0.3-0.4,0.8C97.8,48.2,99.8,48.7,99.7,47.5z"/>
		<path class="st0" d="M53.3,46.8c0.1,0,0.3-0.1,0.3-0.2c0,0,0,0,0,0C53.4,46.4,53.1,46.6,53.3,46.8z"/>
		<path class="st0" d="M93.9,48c0.5-0.8-0.5-1.6-1.4-1.3c-0.1,0.1,0,0.5-0.2,0.5s-0.3-0.4-0.6-0.5c-0.3,0.4,0.2,0.6,0.3,0.9
			c-0.1,0.2-0.3,0.3-0.4,0.5c-0.1,0-0.3-0.1-0.5,0s0.2,0.3,0.3,0.5c0.4,0,0.8,0,1.2,0.1c0.3,0.3,0.8,0.7,1.4,0.5
			c0-0.6-0.7-0.5-0.6-1.1C93.5,47.9,93.7,48,93.9,48z"/>
		<path class="st0" d="M105.6,47.2c0.1-0.4-0.5-0.6-0.6-0.3C105.1,47.2,105.4,47.3,105.6,47.2C105.6,47.2,105.6,47.2,105.6,47.2z"/>
		<path class="st0" d="M90.9,48.7c0.1-0.3-0.2-0.5-0.6-0.5c-0.3-0.6-1-1.5-1.8-1.1c0,0.4,0.2,0.8,0.6,1c0.3,0.3,0.7,0.5,1.1,0.5
			c0.1,0,0.2-0.1,0.3,0S90.8,48.7,90.9,48.7z"/>
		<path class="st0" d="M94.9,47c-0.1,0.2-0.5,0.2-0.6,0.5c0.4,0.2,0.9,0.3,1.3,0.4C96,47.4,95.5,46.9,94.9,47z"/>
		<path class="st0" d="M57.5,47.5c0-0.1-0.4-0.3-0.5-0.3c-0.2,0.1-0.5,0.3-0.7,0.4c-0.2,0.2-0.3,0.4-0.3,0.6
			c-0.1,0.2-0.2,0.3-0.2,0.5c0,0.3,0,0.7,0.2,1c0.3,0.2,0.6,0.1,0.9-0.1c0.6-0.4,0.9-1.2,0.8-1.9L57.5,47.5z"/>
		<path class="st0" d="M104.3,48c0.4,0.4,1.3,0.4,1.3-0.2s-1-0.7-1.5-0.4c-0.2-0.1-0.4-0.1-0.6-0.1C103.1,47.8,103.8,48.3,104.3,48z
			"/>
		<path class="st0" d="M33,47.5c-0.3,0-0.9,0.3-0.8,0.7s1.2,0.1,1.3-0.3S33.3,47.5,33,47.5z"/>
		<path class="st0" d="M40.2,47.5c-0.3,0-0.4,0.2-0.4,0.4L40,48C40.3,48.1,40.4,47.7,40.2,47.5z"/>
		<path class="st0" d="M54.9,49.1c0-0.6,0.1-1.1-0.3-1.2c-1-0.2-0.9,1.4-0.1,1.5c0.1,0,0.2-0.1,0.3-0.2c0,0.1,0,0.2,0.2,0.2
			s0.2-0.1,0.2-0.3S54.9,49.2,54.9,49.1z"/>
		<path class="st0" d="M45.6,48.1C45.4,47.9,45,48,45,48.3l0.1,0.2C45.4,48.5,45.6,48.4,45.6,48.1z"/>
		<path class="st0" d="M71,48.1c-0.1,0.2,0,0.5,0.2,0.6c0.1,0,0.1,0,0.2,0C71.7,48.5,71.4,48.1,71,48.1z"/>
		<path class="st0" d="M99.9,49.2c0.7-0.6-0.9-1.5-0.7-0.3C99.3,49.1,99.6,49.2,99.9,49.2z"/>
		<path class="st0" d="M110.3,48.9c0.2,0.1,0.4,0,0.4-0.2c-0.1-0.1-0.2-0.2-0.3-0.1C110.2,48.6,110.2,48.8,110.3,48.9z"/>
		<path class="st0" d="M103.7,48.9c0-0.1-0.1-0.1-0.2-0.2C103.6,48.8,103.6,48.9,103.7,48.9C103.7,48.9,103.7,48.9,103.7,48.9z"/>
		<path class="st0" d="M90.7,48.9c0-0.1-0.1-0.1-0.2-0.1S90.6,49,90.7,48.9z"/>
		<path class="st0" d="M91.6,49.1h0.2C91.8,49,91.6,49,91.6,49.1z"/>
		<path class="st0" d="M46.1,49.1c-0.3,0-0.6,0.2-0.8,0.4c-0.4,0.4-0.3,1.3,0.1,1.5c0.8,0.3,2-0.4,1.8-1.4
			C47,49.2,46.6,49,46.1,49.1z"/>
		<path class="st0" d="M92.8,50.6c-0.1-0.3-0.2-0.5-0.4-0.8c-0.3-0.4-0.8-0.6-1.3-0.7c-0.1,0-0.3,0.1-0.3,0.2
			c-0.1,0.7,0.4,0.7,0.8,1s0.6,0.8,1.1,0.7C92.7,51,92.8,50.8,92.8,50.6z"/>
		<path class="st0" d="M34.2,49.3h-0.2C34,49.4,34.2,49.4,34.2,49.3z"/>
		<path class="st0" d="M96.3,49.4c0-0.1,0-0.2-0.2-0.2S96.2,49.3,96.3,49.4z"/>
		<path class="st0" d="M74.2,49.5v-0.1C74.1,49.2,74,49.5,74.2,49.5z"/>
		<path class="st0" d="M72.2,49.4v0.3h0.2C72.4,49.5,72.4,49.4,72.2,49.4z"/>
		<path class="st0" d="M86.9,50.2c0.1-0.3-0.1-0.5-0.3-0.5C86.5,50,86.7,50.2,86.9,50.2z"/>
		<path class="st0" d="M106.6,50c0.1,0,0.2,0.1,0.3,0C107,49.7,106.5,49.6,106.6,50z"/>
		<path class="st0" d="M98.7,50c0,0.1-0.1,0.1-0.1,0.2C98.9,50.3,99,50,98.7,50z"/>
		<path class="st0" d="M76.9,51.1c0.6-0.4-0.3-1.4-0.7-0.9C76.1,50.7,76.5,51.1,76.9,51.1z"/>
		<path class="st0" d="M50.3,50.3L50.3,50.3c-0.1,0.1,0,0.2,0,0.2S50.4,50.3,50.3,50.3z"/>
		<path class="st0" d="M33.7,50.4c-0.1,0-0.3,0-0.3,0.2C33.5,50.7,33.8,50.6,33.7,50.4z"/>
		<path class="st0" d="M101.3,51.9c0.1-0.7-0.7-1.1-1.1-1.5c-0.3,0.2-0.8,0.5-0.8,0.9c0,0.3,0.2,0.4,0.3,0.7
			C100.1,52.3,101.2,52.5,101.3,51.9z"/>
		<path class="st0" d="M84.7,50.6c-0.2,0.4,0.4,0.8,0.7,0.8C85.9,50.9,84.9,50.1,84.7,50.6z"/>
		<path class="st0" d="M0,50.6c0.1,0.1,0.3,0.1,0.3,0S0,50.5,0,50.6z"/>
		<path class="st0" d="M29.1,50.6c-0.2,0-0.3,0-0.3,0.2C28.9,50.8,29.2,50.8,29.1,50.6z"/>
		<path class="st0" d="M84.3,50.7c-0.6-0.2-0.8,0.1-0.7,0.6s0.7,1.5,1.1,1.5c0.2,0,0.3-0.3,0.4-0.4C85.2,51.7,84.9,51,84.3,50.7z"/>
		<path class="st0" d="M110.2,51c0.1,0.1,0.3,0.1,0.4,0v-0.2C110.4,50.6,110.3,50.8,110.2,51z"/>
		<path class="st0" d="M90.8,50.9c-0.1,0.4,0.2,0.7,0.6,0.8c0.1,0,0.3,0,0.4-0.1C91.7,51.3,91.3,50.7,90.8,50.9z"/>
		<path class="st0" d="M89.9,51l0.3,0.1C90.2,50.8,90,50.8,89.9,51z"/>
		<path class="st0" d="M37.6,51c-0.3,0-0.5,0.1-0.5,0.4c0,0.7,1.2,0.5,1-0.2C38,51.1,37.9,51,37.6,51z"/>
		<path class="st0" d="M30.4,51c-0.2-0.1-0.5,0-0.5,0.3c0.2,0.1,0.3,0,0.4-0.1C30.4,51.1,30.4,51,30.4,51z"/>
		<path class="st0" d="M86.7,51.2c-0.3,0.5,0.1,1.4,0.6,1C87.1,51.8,87.1,51.3,86.7,51.2z"/>
		<path class="st0" d="M33.1,51.5v0.1c0.1,0,0.2,0,0.3-0.1C33.3,51.5,33.2,51.4,33.1,51.5z"/>
		<path class="st0" d="M88.2,51.4v0.2h0.3C88.4,51.5,88.3,51.5,88.2,51.4z"/>
		<path class="st0" d="M45.3,52.4c0.1,0.3,0.5,0.2,0.8,0.1c0.1-0.1,0.2-0.3,0.1-0.5C45.8,51.6,45.2,52,45.3,52.4z"/>
		<path class="st0" d="M85.5,51.8c0,0.2,0,0.4,0.3,0.4C86,52,85.8,51.8,85.5,51.8z"/>
		<path class="st0" d="M98.1,53.1c0-0.4-0.7-1.1-1.1-1.1s-0.7,0.1-0.7,0.4s0.5,0.5,0.3,1.2c0.2,0.3,0.5,0.5,0.8,0.5
			C97.6,53.5,98.1,53.5,98.1,53.1z"/>
		<path class="st0" d="M86.8,52.7c0.1-0.3-0.2-0.5-0.3-0.5c-0.1,0.2,0,0.4,0.2,0.5C86.7,52.6,86.8,52.7,86.8,52.7z"/>
		<path class="st0" d="M86,52.2l0.2,0.1C86.2,52.2,86.1,52.1,86,52.2z"/>
		<path class="st0" d="M90.8,52.5c0-0.1-0.1-0.3-0.3-0.2C90.5,52.5,90.7,52.5,90.8,52.5z"/>
		<path class="st0" d="M78.3,52.9c0.4,0,0.6-0.2,0.6-0.5C78.7,52.2,78.2,52.6,78.3,52.9z"/>
		<path class="st0" d="M86.3,52.5c-0.1,0.2,0.1,0.2,0.3,0.3C86.5,52.5,86.4,52.5,86.3,52.5z"/>
		<path class="st0" d="M101.4,52.7c0,0.1-0.1,0.1-0.1,0.2c0.1,0.1,0.3,0.1,0.4,0C101.7,52.8,101.6,52.7,101.4,52.7z"/>
		<path class="st0" d="M86.7,53.1c0,0.2,0.1,0.3,0.3,0.3C87,53.2,86.9,53.1,86.7,53.1z"/>
		<path class="st0" d="M89.3,53.2c0,0.1,0,0.2,0.2,0.2c0,0,0.1,0,0.1,0C89.6,53.3,89.4,53.3,89.3,53.2z"/>
		<path class="st0" d="M86.3,53.3c-0.1,0.1-0.2,0.4,0,0.5c0.1,0.1,0.3,0.2,0.5,0.1C86.8,53.5,86.6,53.3,86.3,53.3z"/>
		<path class="st0" d="M29.6,54.3c0.6,0,1.3-0.2,1.1-0.9C30,53.2,29.3,53.6,29.6,54.3z"/>
		<path class="st0" d="M95.3,54.6c-0.1-0.7-0.7-1.2-1.4-1.1c0,0-0.1,0-0.1,0c-0.1,0-0.2,0.1-0.3,0.3C93.1,54.9,95.3,55.9,95.3,54.6z
			"/>
		<path class="st0" d="M35.3,53.8c-0.7,0-1.3,0.4-1.7,0.9c-0.7,1.4,1,2.5,2.3,1.9c0.5-0.3,0.8-0.7,1.1-1.2
			C37.2,54.2,36.2,53.7,35.3,53.8z"/>
		<path class="st0" d="M43.9,55.5c0.4-0.2,0.9-0.8,0.5-1.4C43.3,53.5,42.8,55.4,43.9,55.5z"/>
		<path class="st0" d="M92,54c-0.1,0.2,0,0.4,0.2,0.5c0.1,0,0.1,0,0.2,0c0.1-0.2,0.1-0.4-0.1-0.5C92.2,54,92.1,54,92,54z"/>
		<path class="st0" d="M31.6,55.5c0.5,0,0.9-0.2,1.3-0.5c0.6-0.8-0.5-1.2-1.1-0.7c-0.4,0.2-0.5,0.7-0.3,1.1
			C31.5,55.4,31.6,55.5,31.6,55.5z"/>
		<path class="st0" d="M83.1,54.5c0,0.1,0.1,0.1,0.2,0.1S83.2,54.4,83.1,54.5z"/>
		<path class="st0" d="M96.2,55.3c0-0.4-0.4-0.6-0.6-0.3c0,0.2,0.2,0.4,0.4,0.4C96,55.4,96.1,55.4,96.2,55.3z"/>
		<path class="st0" d="M101.6,58.2c0.2,0.3,0.5,0.4,0.8,0.6c0.7,0.6,0.8,1.7,1,2.6h0.1v0.1c0.2-0.3,0.3-0.4,0.6-0.5
			c0.5-0.1,1,0.3,1.4,0.2s0.5-0.3,0.5-0.7h-0.1v-0.1c-0.1-0.1-0.1-0.5,0-0.6s0.5,0.1,0.6,0c-0.1-0.9-0.6-1.3-1.6-1.3
			c-0.5-0.3-1-0.9-1.7-1c-0.6-0.1-1,0-1.2-0.4s-0.3-1.1-0.8-1.5c-0.4-0.4-0.8-0.6-1.4-0.6c-0.9-0.1-1,0.8-0.6,1.5
			c0.2,0,0.1-0.2,0.3-0.2c0.2,0.7,1,0.8,1.5,1.2C101.3,57.5,101.4,58,101.6,58.2z"/>
		<path class="st0" d="M103.4,61.6L103.4,61.6c-0.1,0.1-0.4-0.1-0.4,0.2c0,0.2,0.2,0.4,0.4,0.3c0,0,0,0,0,0h0.1h0.1
			c0.1-0.2,0.1-0.4,0-0.5L103.4,61.6z"/>
		<path class="st0" d="M103.7,62.7L103.7,62.7c-0.1,0.2,0.1,0.2,0.3,0.3C104,62.8,103.9,62.6,103.7,62.7L103.7,62.7z"/>
		<path class="st0" d="M102.5,55.3c0,0.1,0.2,0.2,0.4,0.3l0.1-0.1C103.1,55,102.4,54.9,102.5,55.3z"/>
		<path class="st0" d="M86,55.4c0,0.3,0.2,0.6,0.5,0.7C87,55.7,86.1,54.7,86,55.4z"/>
		<path class="st0" d="M106.1,56.7c-0.1-0.8-0.8-1.4-1.6-1.4c-0.4,0.1-0.6,0.4-0.6,0.8C104,57.3,106,57.9,106.1,56.7z"/>
		<path class="st0" d="M92,55.5c-0.5,0.4-0.1,1.3,0.5,1.4c0.1,0.2,0.1,0.3,0.3,0.4c0-0.3,0.3-0.4,0.4-0.5C93.3,56,92.8,55.4,92,55.5
			z"/>
		<path class="st0" d="M76,56.5c-0.9,0.6,0.1,2.6,0.9,2.5c0.4,0,0.7-0.3,0.7-0.7C77.8,57.6,76.8,56.3,76,56.5z"/>
		<path class="st0" d="M95.7,56.8c-0.4,0.1-0.4,0.4-0.3,0.8c0.1,0.4,0.5,0.7,0.9,0.8c0.3,0,0.9-0.1,0.9-0.6S96.1,56.7,95.7,56.8z"/>
		<path class="st0" d="M90.3,57c-0.1,0.3,0,0.7,0.4,0.8c0,0,0.1,0,0.1,0C91.3,57.5,90.7,56.5,90.3,57z"/>
		<path class="st0" d="M99.4,57.6c0-0.2-0.2-0.4-0.4-0.5C98.8,57.3,99.1,57.8,99.4,57.6z"/>
		<path class="st0" d="M44.2,59.4C44.4,59,45,58.6,45,58s-0.5-0.8-1.2-0.7l0,0l0,0l0,0c-0.5,0.5-0.2,1.5,0.2,2H44L44.2,59.4z"/>
		<path class="st0" d="M44.2,59.4L44.2,59.4L44.2,59.4c-1.3,0.1-2.5,1.1-2.4,2.4s1.8,1.3,2.8,0.6h-0.1v-0.1c0-0.2,0.4-0.4,0.5-0.7
			c0.2-0.3,0.3-0.5,0.3-0.8C45.4,59.9,44.7,59.8,44.2,59.4z"/>
		<path class="st0" d="M107.3,58.1c-0.1-0.3-0.3-0.4-0.6-0.4c-0.6,0.2-0.1,1,0.3,0.8C107.3,58.5,107.3,58.3,107.3,58.1z"/>
		<path class="st0" d="M94.6,58.1c-0.1,0-0.1-0.2-0.3-0.2C94.2,58.2,94.5,58.3,94.6,58.1z"/>
		<path class="st0" d="M28.5,58.8c0.2,0,0.4-0.1,0.4-0.3c0,0,0,0,0,0v-0.1c-0.1-0.1-0.3-0.1-0.4,0C28.4,58.5,28.4,58.7,28.5,58.8
			L28.5,58.8z"/>
		<path class="st0" d="M33.5,58.4c-0.6,0-1,0.5-1,1c0,0.1,0,0.1,0,0.1c0.5,0.9,1.9,0.1,1.7-0.8C34.2,58.6,33.8,58.4,33.5,58.4z"/>
		<path class="st0" d="M37.2,58.5c-0.3,0.1-0.6,0.2-0.6,0.6c0,0.7,0.9,0.8,1.3,0.4c0.2-0.2,0.2-0.6,0-0.9
			C37.7,58.5,37.4,58.4,37.2,58.5z"/>
		<path class="st0" d="M35.7,59.4c0.3,0,0.5,0,0.5-0.3S35.5,59.1,35.7,59.4z"/>
		<path class="st0" d="M94.5,59.2c-0.3,0.3,0,0.7,0.3,0.8c0.2-0.2,0.1-0.5,0-0.6C94.6,59.2,94.6,59.2,94.5,59.2z"/>
		<path class="st0" d="M28.7,61c-0.1-0.4-0.7-0.7-1.2-0.7c-1.4,0-3.6,1.3-2.5,2.8c1,0.2,2.1,0,2.9-0.7C28.2,62.1,28.8,61.6,28.7,61z
			"/>
		<path class="st0" d="M108.9,61.7c0.2-0.7-1.2-1.9-1.5-1.2C107.2,61.1,108.2,62,108.9,61.7z"/>
		<path class="st0" d="M95.2,60.6c-0.7,0-0.4,1.3,0.3,1.2c0.3-0.3,0.3-0.7,0-1C95.5,60.7,95.3,60.6,95.2,60.6z"/>
		<path class="st0" d="M30.7,60.7L30.7,60.7c-0.3,0-0.6,0.1-0.8,0.1c-0.5,0.2-1.7,1.1-1.7,1.7c-0.1,0.8,0.6,1,1.4,0.9
			c0.6-0.1,1.2-0.3,1.8-0.6C32.2,62.3,31.8,60.7,30.7,60.7z"/>
		<path class="st0" d="M100.9,61.2c-0.6,0.4,0.7,1.4,0.8,0.6C101.8,61.4,101.2,60.9,100.9,61.2z"/>
		<path class="st0" d="M97.1,61.5c0,0.1,0.1,0.1,0.2,0.1S97.2,61.5,97.1,61.5z"/>
		<path class="st0" d="M76.8,61.5v0.2c0.1,0.1,0.2,0.2,0.3,0.2C77.1,61.8,77,61.6,76.8,61.5z"/>
		<path class="st0" d="M98,62.8c0,0.2,0,0.3,0.2,0.3C98.2,62.9,98.1,62.8,98,62.8z"/>
		<path class="st0" d="M110.8,63L110.8,63L110.8,63c0.3,0.9,1.2,1.2,2.1,1.5C112.7,63.7,111.9,62.4,110.8,63z"/>
		<path class="st0" d="M27.6,64.6c0.6,0,1.3-0.3,1.1-0.9C28.1,63.4,27.2,63.9,27.6,64.6z"/>
		<path class="st0" d="M98.9,63.8h-0.2c0,0.1,0,0.2,0.1,0.2c0,0,0,0,0,0C98.9,64,98.9,63.9,98.9,63.8z"/>
		<path class="st0" d="M42.6,64.4c-0.5,0-1,0.2-1.4,0.6c-0.3,0.3-0.3,0.8,0,1.1c0.1,0.1,0.3,0.2,0.5,0.2c0.7,0,1.7-0.6,1.5-1.4
			C43.2,64.6,42.9,64.4,42.6,64.4z"/>
		<path class="st0" d="M104.3,67.7c0.5-0.1,0.8-0.5,0.8-0.9c0.1-1.2-0.8-2.3-2.1-2.3c-0.1,0-0.3,0-0.4,0c-0.3,0.1-0.6,0.3-0.8,0.6
			C101.3,66.4,103.2,67.8,104.3,67.7z"/>
		<path class="st0" d="M115.8,66.9c-0.1-1.3-1.1-2.3-2.4-2.2c-0.2,0-0.3,0-0.5,0.1v0.1h-0.1c-0.5,1.3,0.2,2.8,1.5,3.3
			c0.1,0,0.2,0.1,0.4,0.1c1.2,0.1,1.6-0.7,1.6-1.7C116,66.5,116,66.9,115.8,66.9z"/>
		<path class="st0" d="M96.7,65l-0.1,0.1c0,0.2,0.1,0.3,0.3,0.4C97,65.4,97,65.2,96.7,65C96.8,65,96.8,65,96.7,65z"/>
		<path class="st0" d="M95.6,65.3c-0.1,0.1,0,0.3,0.1,0.3c0,0,0.1,0,0.1,0C95.8,65.5,95.8,65.2,95.6,65.3z"/>
		<path class="st0" d="M101.1,66.3c-0.2,0.1-0.4,0.3-0.4,0.5c-0.2,0.8,0.5,1.1,1.1,1.3C102.4,67.6,101.8,66.2,101.1,66.3z"/>
		<path class="st0" d="M98.8,67.1c-0.1,0.4,0.2,0.9,0.6,1c0.2-0.2,0.3-0.4,0.3-0.6C99.7,67,99,66.5,98.8,67.1z"/>
		<path class="st0" d="M29.6,68.5c0.5-0.1,1.1-0.4,1-1C30.5,66.7,28.9,67.7,29.6,68.5z"/>
		<path class="st0" d="M108.1,67.4c-0.2,0-0.4,0.2-0.3,0.4c0,0.8,1.3,1.3,1.4,0.5C109.1,67.8,108.7,67.3,108.1,67.4
			C108.1,67.4,108.1,67.4,108.1,67.4z"/>
		<path class="st0" d="M107.8,69.2L108,69C107.9,68.3,107.2,69,107.8,69.2z"/>
		<path class="st0" d="M117.1,69.3c-0.5,0.2-0.8,0.8-0.6,1.3c0,0,0,0.1,0,0.1c0.2,0.4,0.5,0.7,0.9,0.8c0.4,0.1,0.8-0.1,1-0.5
			c0,0,0-0.1,0-0.1C118.6,70.1,118,69.1,117.1,69.3z"/>
		<path class="st0" d="M106.3,69.4c-0.4-0.1-0.8,0.1-0.8,0.5c-0.1,0.7,0.7,1.5,1.4,1.2C107.3,70.4,106.7,69.5,106.3,69.4z"/>
		<path class="st0" d="M83.5,70.1c0,0.1-0.2,0.3,0,0.3S83.7,70.2,83.5,70.1z"/>
		<path class="st0" d="M102.7,72.1c-0.1,0.2,0,0.4,0.2,0.5c0,0,0.1,0,0.2,0c0.1-0.2,0-0.4-0.1-0.5C102.9,72,102.8,72,102.7,72.1z"/>
		<path class="st0" d="M106.5,72.9h-0.1c-0.9,0.3-0.5,2.6,0,3.1c0.3,0.3,0.7,0.5,1.1,0.6c0.6,0,1.3-1.3,1.1-2.1
			C108.4,73.5,107.5,72.9,106.5,72.9z"/>
		<path class="st0" d="M41,73.8c-0.6,0-1.2,0.2-1.7,0.5c-0.6,0.4-1.1,1.1-1.3,1.8c-0.1,0.5,0.1,1.1,0.6,1.4c1.4,1,3.8-0.6,4.2-1.6
			C43.3,74.5,42.2,73.7,41,73.8z"/>
		<path class="st0" d="M104.3,74.2c-0.7,0.2-1,1-1,1.8c0,0.5,0.2,1,0.4,1.4c0.2,0.3,0.9,1,1.3,0.9s0.8-0.6,0.9-0.9
			C106.5,76.2,105.7,73.9,104.3,74.2z"/>
		<path class="st0" d="M107.7,76.7c-0.7,0-0.3,1.5,0.3,1.4C108.6,77.8,108.2,76.6,107.7,76.7z"/>
		<path class="st0" d="M125.7,77.6c-0.8,0.2-1.4,1-1.4,1.8c-0.1,1.4,0.8,2.8,2.3,3.1c0.2,0,0.4,0,0.6,0c1-0.2,1.7-2.1,1.1-3.4
			C127.8,78.1,126.8,77.5,125.7,77.6z"/>
		<path class="st0" d="M112,78.7c-0.2,0.6,0,1.2,0.6,1.5c0.1,0,0.2,0.1,0.2,0.1C113.1,79.5,112.8,78.7,112,78.7z"/>
		<path class="st0" d="M71.9,37.3c0-0.3-0.3-0.3-0.3-0.6c0.1-0.4,0-0.9-0.4-1.2l0,0l0,0c-0.2-0.1-0.3-0.1-0.5-0.2
			c0-0.3,0.1-0.3,0.1-0.6c0.4,0,0.4,0.3,0.7,0.3c-0.1,0.1-0.2,0.2-0.3,0.3h0.1v0.1c0.2,0,0.2-0.1,0.4-0.1c0.2,0.5,0.7,0.7,1.2,0.6
			c-0.1-0.2,0.3-0.3,0.3-0.6c0.3,0,0.4,0.3,0.8,0.2c0.1-0.2-0.2-0.2-0.1-0.3s0.3,0,0.3,0.1v-0.1v0.1h0.2v-0.1h0.1
			c-0.2-0.1-0.4-0.2-0.6-0.3c-0.2-0.1-0.6,0-0.7-0.3h0.1v-0.1v-0.1c-0.2-0.2-0.4-0.5-0.6-0.8c0.3-0.1,0.6-0.1,0.8-0.3
			c0.6,0.1,0.9-0.3,1.4-0.4c0.1,0.1,0.2,0.1,0.3,0.2s0,0.4,0.1,0.5l0.2,0.1c0.2,0.2,0.2,0.3,0.5,0.3c0.4-0.6-0.2-0.7-0.5-0.9
			c0.1-0.1,0-0.3,0.1-0.3c0.4,0,0.6-0.3,1.1-0.3c0.2,0.2,0.5,0.4,0.8,0.5c0.1-0.1,0.3-0.2,0.4-0.4c-0.2-0.1-0.3-0.5-0.5-0.7
			s-0.2-0.2-0.3-0.3s-0.1-0.4,0.1-0.5c0.4,0.1,1.1,0.5,1.6,0.2c0-0.2-0.1-0.4-0.3-0.5c-0.8,0.2-1.7-0.5-1-1.1
			c-0.1-0.3,0.1-0.6,0.4-0.7c0.2,0.2,0.6,0.2,0.9,0.3s0.3,0.4,0.5,0.4c0.2,0,0.4-0.1,0.5-0.3c0.2-0.6-0.6-1-1.1-0.6
			c-0.2-0.2-0.6-0.2-0.7-0.6c0-0.1,0.1-0.4,0.1-0.6s-0.1-0.8,0.1-1c0.5-0.2,1-0.1,1.5,0.2c0.1,0.1,0.2,0.2,0.3,0.3
			c0.2,0,0.5,0,0.7,0c0.2-0.4,0.6-0.9,0.3-1.5c-0.2-0.1-0.3-0.2-0.4-0.3c-0.8-0.3-1.2,0.3-1.7,0.5c-0.1-0.1-0.3-0.1-0.3-0.3
			c0.2-0.3,0.2-0.6,0.2-0.9c-0.2-0.4-0.5-0.8-0.9-1.1c-0.5,0-0.8-0.5-0.9-0.9c-0.2-0.3-0.7-0.4-0.9-0.7h-2c-0.5-0.3-0.8-0.6-1.1-1.1
			c-0.5,0-1.3-0.1-1.5,0.1c0.1-0.4,0.1-0.7-0.1-1.1c-0.3-0.3-0.9-0.4-1.3-0.1c0-0.5-0.8-0.4-0.6,0.2c0.1,0.1,0.2,0.2,0.4,0.2
			c-0.2,0.5-0.1,1,0.4,1.3c0,0,0.1,0,0.1,0.1c0.1,0,0.3-0.1,0.4,0.1c-0.2,0.1-0.5,0.2-0.7,0.1c0-0.2,0-0.3-0.2-0.4s-0.3,0.2-0.4,0.3
			s-0.5,0.1-0.7,0.3c-0.2,0-0.2,0-0.3,0c-0.1,0.2-0.4,0.4-0.6,0.4c-0.1-0.4,0.4-0.6,0.7-0.9c0.2-0.3,0.4-0.6,0.5-0.9
			c0.1-0.4,0.1-0.8,0-1.2v-0.2c-0.2-0.2-0.4-0.4-0.6-0.5c-0.8-0.2-0.8,0.5-1.4,0.6c-0.1,0.1-0.3,0.4-0.1,0.6
			c-0.2,0.1-0.4,0.2-0.7,0.3c-0.3,0-0.7,0.1-0.7-0.1s0.1,0,0.2-0.1s0.2-0.5-0.1-0.5s-0.2,0.6-0.5,0.8c-0.1,0,0-0.3-0.2-0.2
			s0,0.3-0.2,0.2s-0.3-0.1-0.6-0.1c-0.6-0.6,0.4-1.9-0.4-2.5c-0.5-0.1-0.8,0.2-1.1,0.2c-0.6,0.1-1-0.1-1.5-0.1S60.5,18,60.1,18
			c-0.6,0-1.1,0.3-1.4,0.8c-0.1,0.1-0.2,0.2-0.3,0.3c-0.1,0.2-0.2,0.5-0.4,0.5c-0.4,0.1-0.6-0.5-1-0.4c-0.1-0.1-0.1-0.2-0.3-0.3
			c-0.4,0.1-0.8,0-1.1-0.3c-0.1,0-0.2,0.1-0.3,0.1c0-0.3,0-0.5,0-0.8c-0.1-0.1-0.1-0.2-0.3-0.2v-0.6c-0.1-0.2-0.3-0.2-0.4-0.3
			c0.1-0.2,0-0.5-0.1-0.7c-0.2-0.2-0.6-0.2-0.8,0c0,0.1,0.1,0.3,0,0.4s-0.1-0.2-0.2-0.2c-0.1-0.1-0.3-0.1-0.4,0
			c0.1,0.3,0.3,0.5,0.4,0.8c-0.1,0.1-0.3,0-0.5,0.1c-0.3,0.5,0.2,0.7,0.1,1.2c-0.1,0.1-0.3,0.1-0.5,0.3c0,0.3-0.1,0.6-0.4,0.8
			c-0.1-0.2-0.5-0.4-0.6-0.1s0.2,0.4,0.1,0.5c-0.5,0.1-0.8,0.3-0.8,0.9c-0.3,0.1-0.5,0.2-0.8,0.3c0.2-0.5,0.3-1.1,0.1-1.7
			c-0.1-0.3-0.5-0.4-0.7-0.5s-0.1-0.2-0.2-0.3c-0.1,0-0.3,0-0.4-0.1c0-0.3-0.2-0.5-0.5-0.5s0,0.4,0,0.5c-0.2-0.4-0.6-0.4-0.7,0.1
			c-0.6,0.1-1.1,0.2-1.7,0.3c0.2-0.2,0.2-0.7,0-0.9h-0.3c-0.1,0.3,0,0.7,0.2,0.9c-0.2,0-0.2,0.1-0.3,0.1s-0.2-0.4-0.3-0.4
			c-0.2-0.1-0.5,0-0.6,0.2c-0.2-0.2-0.1-0.3-0.1-0.6c-0.1-0.2-0.1-0.5-0.4-0.5c-0.2,0.2-0.5,0.2-0.8,0.1c-0.1,0.2-0.2,0.4-0.4,0.6
			c0,0.3,0,0.5-0.2,0.5c-0.1-0.3-0.2-0.5-0.5-0.5c-0.2,0.2,0,0.5,0,0.6h0.4c0.1,0.2,0.2,0.5,0,0.6s-0.2-0.3-0.4-0.1
			c-0.1,0.5,0.1,1-0.1,1.4v0.1h-0.1c0,0.3,0.3,0.4,0.3,0.8c0.1,0,0.3,0,0.3,0c0,0.3,0.1,0.6,0.2,0.9c-0.5,0-0.4,0.6-0.8,0.6
			c-0.1,0.4,0.1,0.5,0.3,0.6c-0.2,0.2-0.1,0.7,0,0.9c-0.2,0-0.4,0-0.5,0c-0.2,0.1-0.2,0.3-0.1,0.5c0.3,0.1,0.5,0,0.8-0.1
			c0.1,0.4,0.4,0.6,0.8,0.5c0,0,0.1,0,0.1,0c0.2-0.1,0.2-0.5,0.5-0.4c0.2,0.4-0.3,0.9,0,1.3c0.2,0,0.4,0,0.5,0
			c0,0.4-0.1,0.6,0.2,0.8c-0.2,0.3-0.2,0.8-0.7,0.8c0,0.1,0,0.3,0,0.3c-0.5,0-0.7,0.4-0.9,0.7c-0.1,0-0.3-0.1-0.3-0.2
			C42.7,29,43,29,43,28.8c-0.2-0.3-0.6-0.3-0.8-0.2c0-0.1-0.1-0.1-0.2-0.2s0-0.3,0-0.6c0.3-0.2,0.8-0.5,0.5-0.9
			c-0.3,0-0.5,0.1-0.7,0.1s-0.3-0.1-0.4,0c-0.7,0.1-0.6,0.7-1,1.2c-0.3,0-0.3-0.5-0.4-0.7c-0.5-0.1-0.6,0.2-0.6,0.6
			c0.2,0.3,0.3,0.6,0.4,0.9c-0.2,0.1-0.3,0.2-0.5,0.2c-0.6,0-0.4-0.8-0.5-1.4c0.4-0.1,0.5-0.5,0.8-0.6c0.3,0.2,0.9,0,0.9-0.3
			s-0.3-0.5-0.7-0.3c-0.2-0.5-0.7-0.3-1.1,0s-0.5,0.8-0.7,1.1c-0.2,0-0.2,0.1-0.5,0.1h-0.1v-0.1c-0.5-0.3-1,0.4-1.5,0.2
			c0.2-0.5-0.1-1.1-0.6-1.3c-1.3-0.4-2,1-2.5,1.5c-0.1-0.1-0.2-0.2-0.4-0.1c-0.1,0.1,0,0.2,0,0.3c-0.7,0.1-1.4,0.5-2,0.9
			c-0.5,0.6,0.2,1.1,0.8,1.2c0.2,0,0.5-0.1,0.7,0c0.5,0.2,0.2,0.9,0.3,1.5c0.2,0.5,0.4,0.9,0.8,1.3c0.2,0.4,0.4,0.7,0.7,1.1
			c0.8,0.6,1.8,0.9,2.7,0.8c0.5,0.1,1.1,0,1.6-0.3c0,0.2,0.3,0,0.4,0.1s-0.2,0.3-0.2,0.5c-0.2,0.8,0.2,1.7,0,2.6
			c0.2,0.3,0.6,0.8,1,0.8c0.4,0,0.8-0.2,1.1-0.4c0.2-0.1,0.3-0.4,0.4-0.6c0.3-0.4,0.7-0.7,0.8-1.1c0.1-0.9-0.2-1.8-0.6-2.5
			c0.2-0.2,0.4-0.3,0.6-0.4c0.2-0.1,0.5-0.2,0.7-0.3c0.2,0,0.4,0.2,0.5,0.2c0.8,0.1,0.9-0.7,0.8-1.5c-0.1-0.1-0.2-0.2-0.4-0.2
			c-0.1,0.2-0.2,0.4-0.4,0.4s-0.4-0.8-0.1-0.9c0.1,0.1,0.4,0.1,0.5-0.1c0,0,0.1-0.1,0.1-0.2c0-0.1-0.3-0.1-0.3-0.2
			c0.2-0.2,0.1-0.7,0.5-0.7c0.6,0.4,0.7-0.5,1.1-0.6c0.1,0.1,0.1,0.3,0.2,0.4c0.2,0,0.2-0.3,0.4-0.3c0.1,0.4,0.1,0.9,0.3,1.1
			c0.3,0,0.3,0.2,0.4,0.4c0.3,0,0.4,0.3,0.6,0.4c-0.2,0.1-0.3,0.1-0.3,0.3c0.1,0.2,0.2,0.3,0.4,0.3c0.2,0,0.2-0.3,0.3-0.3
			s0.1,0.5,0.2,0.8c-0.3,0.3-0.5,0.7-0.8,0.9c0,0.1,0.1,0.2,0,0.2c-0.1-0.2,0-0.5,0-0.7c-0.1-0.3-0.4-0.5-0.7-0.5
			c-0.1,0-0.2,0.1-0.3,0.1c-0.7-0.5-1.7,0.5-1,1.1c0.4,0,0.7-0.1,0.8,0.1c-0.2,0.4,0.5,0.9,0.1,1.1C45,35,45,34.8,44.8,34.8
			c-0.1,0.2,0.1,0.3,0,0.5c-0.4-0.2-0.8-0.1-1.2,0.2c-0.2,0.3,0.1,0.8-0.2,1.2c-0.3-0.1-0.4,0.1-0.5,0.3c0.2,0.1,0.3,0.6-0.1,0.6
			c0-0.2-0.2-0.2-0.2-0.4c0.4-0.3,0.5-0.9,0.3-1.4c-0.9-0.8-1.8,0.8-1.2,1.5c0.2,0.3,0.6,0.1,0.6,0.5c0.2,0.1,0.3-0.2,0.4-0.1
			c0,0.3,0.2,0.4,0.3,0.5c-0.1,0.1-0.1,0.2-0.1,0.3c0.4,0.1,0.8-0.2,0.9,0.2c-0.1,0.3,0,0.9,0.4,0.9c0.7,0.1,0.3-1,0.9-1.1
			c0.2,0,0.3,0.2,0.5,0.2c1.1,0.1,1.3-1.7,0.2-1.5c-0.2,0-0.2,0.2-0.6,0.3c-0.1-0.2,0-0.3,0.1-0.4V37c0.1-0.3,0.3-0.4,0.4-0.7
			s-0.1-0.2-0.1-0.3s0.1-0.2,0.1-0.3c0.1,0,0.2,0,0.3,0c0.1-0.1,0.1-0.3,0.2-0.4c0.3,0.2,0.5-0.1,0.8-0.2c-0.1,0.3-0.1,0.6-0.1,0.8
			c0.1,0.2,0.4,0.1,0.5,0.3c-0.3,1.3,1.4,1.2,2.1,0.7c0.1-0.1-0.2-0.1,0-0.1c0.4-0.1,0.6,0.3,0.8,0.4s0.4-0.1,0.6-0.3
			c0.4,0,0.9,0,1.3,0c0.3-0.1,0.5-0.5,0.7-0.8c0.6-0.3,0.8-0.9,1.4-1.1c-0.1,0.1,0,0.3,0,0.4c0.3,0.3,1,0.2,1.1-0.2
			s-0.2-0.5-0.4-0.6c0.4-0.4,1,0.1,1.6,0.1c0.4,0.3,0.5,0.9,1,1.2c0,0.1,0.1,0.2,0.1,0.3c0.1,0.1,0.4,0.2,0.5,0.3
			c-0.2,0.1-0.4,0.3-0.6,0.4c-0.3-0.1-0.5-0.4-0.6-0.7c-0.5,0.1-0.9-0.3-1.5-0.2c-0.4,0-0.6,0.4-0.9,0.4s-0.2-0.1-0.3,0
			c-0.2,0-0.3,0.3-0.3,0.5c0,0.2,0.3,0.2,0.4,0.3c0.1,0.4,0.5,0.7,1,0.8c0.6,0,1-0.7,1.5-0.6c0,0.1-0.1,0.2-0.2,0.3
			c0.3,0,0.3,0,0.4,0.2c0.1,0.5-1,0.4-1.3,0.6c-0.1-0.1-0.2-0.2-0.3-0.4c-0.3,0.2-0.8,0-1.1,0.2c-0.1,0.6,0.6,0.5,0.9,0.8
			c-0.1,0.2-0.1,0.4-0.2,0.6c-0.5,0.1-0.8,0.8-0.2,0.9c0.2,0,0.3-0.1,0.6-0.1c0.2,0.3,0.8,0.2,1.1,0.4c0,0.2,0.1,0.5,0.2,0.7
			c0.4,0.1,0.7,0,0.7-0.3s-0.5-0.3-0.3-0.6c1.1-0.3,1.2,1.1,2,1.3c1,0.2,0.9-0.7,1.5-0.8c0.4-0.1,0.9,0.2,1.4,0.1
			c0.4-0.1,0.7-0.3,1-0.5c0.1-0.3,0.3-0.6,0.1-1s-0.8-0.2-0.9-0.5s0.8-1.3,1.1-1.5c0.2,0.2,0.5,0.2,0.7,0.3s0.2,0.4,0.3,0.6l0.2,0.1
			c0.3,0.3,0.6,0.7,1,0.7s0.7-0.4,1.2-0.1c-0.1,0.1-0.2,0.3-0.3,0.4c0.1,0.1,0.3,0.3,0.3,0.3c-0.3,0.1-0.6,0.2-0.8,0.3
			c-0.3-0.2-0.7-0.1-0.9,0.3c0,0.1-0.1,0.1-0.1,0.2c0,0.2,0.2,0.2,0.3,0.3c-0.2,0.1-0.2,0.4-0.2,0.7c0.7,1,3,0.4,3.1-0.8
			c0.1-0.5-0.3-1-0.9-1.1c0,0-0.1,0-0.1,0c0.4-0.2,0.9-0.2,1.3-0.2c1.3-0.1,2.5-0.9,3.1-2.1C71.6,37.2,71.8,37.4,71.9,37.3z"/>
		<path class="st0" d="M42.1,20.7c-0.4-0.1-0.8,0-0.9,0.4c0,0.5,1,0.5,1.1,0v-0.1h0.1C42.3,20.9,42.2,20.9,42.1,20.7z"/>
		<path class="st0" d="M89.9,50.7c0.1-0.3,0.2-0.6,0.2-0.9c-0.4-0.5-0.4-1.1-0.8-1.5c-0.4-0.4-0.9-0.7-1.4-1
			c-0.5-0.3-1.1-0.6-1.6-0.8c-0.1-0.4,0.1-0.6,0.1-1c0.2-0.1,0.7,0,0.8-0.3c-0.1-0.7-0.8-0.9-1.2-1.2c-0.1,0-0.1,0.1-0.2,0V44h-0.1
			c0,0.2,0.1,0.2,0,0.3c-0.4,0-0.8-0.2-1-0.5c0.1-0.1,0.3,0,0.3-0.2s-0.2-0.3-0.5-0.2c-0.1-0.3-0.5-0.3-0.5-0.7c0.1,0,0.3,0,0.3-0.1
			s-0.3-0.4-0.3-0.7c0.3,0,0.4,0.2,0.6,0.2c-0.1-0.9-1-1-1.7-1.3c0-0.2-0.1-0.2-0.1-0.3c-0.1-0.1-0.3-0.2-0.5-0.2
			c-0.1-0.4-0.4-0.7-0.8-0.7c-0.3-0.5-0.9-0.6-1.3-0.9c0.1-0.1,0.2-0.3,0.2-0.4c0.2,0,0.5,0.1,0.6,0c0.1-0.4-0.3-0.7-0.6-0.8
			c-0.4-0.2-0.8-0.3-1.2-0.3c-0.1,0-0.1-0.2-0.2-0.2c-0.5-0.1-1.1-0.3-1.6-0.5c0.3-0.4,0.5,0.4,1.1,0.2c-0.1-0.5-0.7-0.5-1.1-0.7
			c-0.1-0.2,0-0.1,0-0.3c-0.3-0.1-0.5-0.2-0.8-0.3c0.2,0,0.5,0.1,0.6,0h-0.1V35c-0.4-0.1-0.9-0.2-1.4-0.1l0.1,0.1
			c0.1,0.1,0.3,0,0.4,0.2c-0.3,0-0.5-0.1-0.8-0.1v0.1h-0.1c-0.3,0-0.7-0.2-1.1-0.2V35h-0.1c0,0.1,0.3,0.1,0.2,0.2v0.1v0.1
			c0.1,0.2-0.2,0-0.3,0v0.1v0.1c0.1,0.2,0.5,0.2,0.6,0.4l0,0V36v0.1c0.3,0.4,1.2,0.2,1.5,0.6c-0.2-0.1-0.4-0.1-0.6-0.1v0.1h-0.1
			c0.4,0.2,0.8,0.5,1.1,0.8c-0.7,0-0.8-0.6-1.4-0.7c-0.1-0.1,0-0.1,0-0.2c-0.3-0.2-0.6-0.4-1-0.5c-0.1-0.3-0.5-0.4-0.9-0.5
			c-0.1,0.1,0.1,0.2,0,0.3s-0.3,0-0.3,0.1c0.2,0.1,0.5,0.3,0.5,0.5c-0.2-0.1-0.6-0.3-0.7,0c0.1,0.4,0.6,0.6,1,0.5c0,0,0,0,0,0
			c0.1-0.1-0.1-0.3,0-0.3c0.3,0.1,0.6,0.4,1.1,0.3c0.3,0.2,0.6,0.4,0.9,0.5c-0.1,0.3,0.3,0.4,0.3,0.7c0.2,0.2,0.4,0.2,0.7,0.3
			c0.3,0.3,0.6,0.5,1,0.7c-0.1,0-0.2,0-0.2,0.2c0.1,0.2,0.3,0.4,0.6,0.4c0.1,0,0.1-0.2,0.2-0.3c0.2,0.2,0.8,0.3,1,0.1
			c0-0.2-0.3-0.3-0.2-0.4c0.6,0.1,0.9,1.1,1.7,0.7c0.2,0.3,0.5,0.4,0.9,0.5c0.1,0.2,0.2,0.3,0.3,0.4c-0.1,0-0.2-0.1-0.3-0.1
			c0,0.2,0.1,0.2,0.3,0.2v-0.1c0.1,0,0.1,0.1,0.1,0.2c0,0.1,0,0.2,0,0.3s0.2,0.1,0.3,0.3c-0.2,0-0.2,0.1-0.2,0.3s0.3,0.4,0.3,0.6
			c-0.1,0-0.3,0-0.4,0c0-0.1,0-0.3-0.1-0.4c-0.2-0.1-0.4-0.1-0.6-0.1l-0.1,0.2c-0.3-0.1-0.6-0.4-0.9-0.6V41
			c-0.2-0.3-0.4-0.4-0.7-0.4c-0.1,0.2-0.3,0.3-0.5,0.4c0,0.7,0.5,0.8,0.7,1.2c-0.5,0.1-0.6-0.5-1-0.3c0,0.5,0.6,0.6,1,0.8
			c0.3,0.1,0.8,0.5,0.3,0.6s-1-0.8-1.5-0.9c0-0.3-0.2-0.5-0.2-0.8c0.1,0,0.3,0,0.3-0.1c0-0.4-0.3-0.6-0.8-0.6c-0.1,0,0,0.2-0.2,0.2
			s-0.3-0.1-0.5-0.1c-0.4,0.8,1.1,1.4,0.4,1.7l0,0l0,0l0,0c-0.2,0-0.2,0-0.3,0.1s0,0.6-0.2,0.6c-0.4-0.2-1.1-1-1.7-0.8
			c-0.4,0.1-0.4,0.6-0.3,0.9s0.5,0.7,0.6,1.2c-0.1,0-0.2-0.1-0.3,0s0.3,0.1,0.3,0.3c-0.3,0.7-0.1,1.5,0.4,2c0.3,0.2,0.8,0.3,1.2,0.1
			c0.1-0.1,0.1-0.2,0.3-0.3c0.4-0.1,0.7,0.4,1.1,0.7c0.7,0.6,1.4,1,2.2,1.2c0.4,0.2,0.8,0.4,1.3,0.5c0.6,0,1.2,0,1.8-0.2
			c0.1-0.1,0.2-0.2,0.2-0.3c0.5,0,0.5-0.5,0.6-0.9c0.2,0.1,0.2-0.1,0.3-0.1c0.1,0.1,0.2,0.2,0.3,0.4c0.5,0.5,1,0.9,1.6,1.2
			C88.2,50.2,88.7,51,89.9,50.7z"/>
		<path class="st0" d="M78.2,42.8L78.2,42.8C78.2,42.7,78.1,42.6,78.2,42.8L78.2,42.8z"/>
		<polygon class="st0" points="74.2,35.5 74.3,35.5 74.2,35.5 		"/>
		<polygon class="st0" points="74.2,35.6 74.2,35.5 74.2,35.6 		"/>
		<path class="st0" d="M35.1,45.8h0.3c-0.1,0,0-0.3-0.1-0.3S35.1,45.6,35.1,45.8z"/>
		<path class="st0" d="M79.9,33.7L79.9,33.7L79.9,33.7l-0.3-0.1c-0.4-0.5-1.6-0.2-1.4,0.6c-0.3,0-0.7,0-1,0.1h0.1v0.1
			c0.4,0,0.8-0.1,1.1,0c0.3,0.4,0.9,0.5,1.3,0.3v-0.1h0.1c0-0.3,0.2-0.4,0.3-0.6S79.8,33.8,79.9,33.7z"/>
		<path class="st0" d="M80.9,34.8c0.1-0.3-0.4-0.2-0.2-0.3c-0.3,0.1-0.8,0-1.1,0.1v0.1h-0.1C80,34.9,80.5,35,80.9,34.8z"/>
	</g>
</g>
</svg>
