<?xml version="1.0" encoding="utf-8"?>
<!-- Generator: Adobe Illustrator 23.0.1, SVG Export Plug-In . SVG Version: 6.00 Build 0)  -->
<svg version="1.1" id="Layer_1" xmlns="http://www.w3.org/2000/svg" xmlns:xlink="http://www.w3.org/1999/xlink" x="0px" y="0px"
	 viewBox="0 0 117.1 206.7" style="enable-background:new 0 0 117.1 206.7;" xml:space="preserve">
<title>Asset 69</title>
<g>
	<g id="Layer_1-2">
		<path d="M115.5,0.3c-1.7,1.9-3.6,3.7-5.4,5.5c-1.7,1.7-3.6,3.1-5.8,4.2c-3.4,3.5-5.9,7.5-9,11.6C89.3,31.3,80.6,37,73.7,45.3
			c-15.5,21.2-29.2,43.8-37.5,67.2c0-0.9,0.1-1.7,0.2-2.6l-0.2-0.1c-0.6,1.7-0.7,3.7-1.7,5.2c0.2-1.6,0.5-3,0.8-4.6
			c-0.1-0.1-0.2-0.2-0.3-0.1c-0.8,3.1-1.4,6.2-1.8,9.4h-0.5c-0.3,0.4,0,0.9,0,1.3c0,0.7,0,1.7-0.9,1.6c0.1-0.4-0.1-0.9,0.1-1.3
			c0-0.8-0.1-1.8-1-2c-1.1-0.1-0.8-1.5-1.5-2c-0.6,0.9-1.9,0.2-2.5,1c0.3,0.9-1.5,1.2-0.6,2.2c-1.7,1.3-1.1,3.7-2.5,5.3
			c-0.1,0.5-0.7,0.8-0.6,1.4c-0.1,0.1-0.4,0-0.4,0.2l0.2,0.1c0.6-0.6,1.3,0,1.9,0.3c-0.3-0.2-0.5-0.9-1-1c0-0.9,0.7-1.3,0.9-2
			c0.5-1.4,0.8-2.9,1.9-4c0-0.6-0.2-1.4,0.5-1.7c-0.2-1.2,1.4-0.6,1.9-1c0.1,0.4,1,0.1,0.8,0.8c-0.1,0.3,0.2,0.7,0.5,0.7
			c0.1,0,0.2,0,0.4,0v0.6c2.2,0-0.4,2.7,1.3,3.1c0.2,1.2-0.6,2.3,0,3.3c7.3-14.2,14.3-28.7,23.4-42.4c-2.5,4.6-5,9.1-7.5,13.6
			l-13.2,24.3c-1,2.7-2.5,5.6-3.8,8.4L30,131l0-0.5c0.4-0.3,0-1.1,0.7-1.5c-1.1-0.2,0-1.1,0-1.7s-0.3-1.2-0.8-1.1l0.2,1.1
			c-0.4,0.3,0.1,1.2-0.6,0.9c-0.3,0.6,0.3,1.6-0.5,1.8c-0.3,1-1.1-0.3-1.6,0c-0.2,0.1-0.1,0.3-0.1,0.6c0.1,0.3,0.4,0,0.5-0.1
			c0,0.4,0.2,0.6,0.2,1h-0.7c0.1,0.6,1.3,1.3,0.3,1.7c-0.4,0.7,0.6,0.6,0.6,1.1l-0.5,0.1c-1.2-1.9-2.9-3.6-4.2-5.4
			c0.4-0.8-0.3-0.9-0.7-1.5c0,0.1-0.3,0.3-0.1,0.5c0.1,0.2,0.2,0.4,0.5,0.4v0.8c1.4,2,3,3.9,4.7,5.8c0.9-0.1,1.3-1.1,2.2-1.2
			c0.3,0.1,0.2,0.3,0.3,0.5c-0.2,0.3-0.3,0.6-0.6,0.7c-0.6,0.2-1.6,1.1-2,0.4c-4.5,10.1-8.7,20.6-13.1,30.9l-0.8,1.2
			c-3,7.2-5.4,14.6-8.5,21.8c-1,5-3.5,9.6-5,14.5c0,0.5-0.7,1.1-0.1,1.5c1.8-2,3.5-5.2,5.7-7.2c1.2-1.8,0.7-5.3,3.8-5.3
			c1-2.6,2-5.3,3.6-7.6l6.1-15.9l-0.4-0.7c3-8.6,6.5-17,10.5-25.1l0.6,0.3c-0.4,1.2,0.9,1.8,1.6,2.3l0.2-0.3c0.6-1,1.8,0.8,2-0.8
			l0.3,0.2c0.3,0.2,0.5,0.2,0.7-0.2c1.3-0.3,2.7-0.3,4,0.1c0.2-1.7,1.8,0.4,2.3-1.3c0.8,0.9,1.5-0.1,2.3,0.6
			c0.6-0.1,1.2-0.4,1.5-0.9l-0.5-0.5c-2.3-0.6-3.9-2.7-6.1-3.4l-0.1-0.3c1.9,0.2,3.7,1,5.7,0.5c1.4,0.4,2.9-1,4.1-0.1
			c2-2.5,4.6-4.5,5.4-7.7c2.9-2.9,5.7-6.2,6.9-10.1c1.9-2.3,4.2-4.3,5.7-7c3.3-6.4,8.4-11.8,12.4-18.3v-0.7c-1.4-0.3-3.3,0.2-4.4-1
			c2.4-0.6,5.8-0.5,6.3-3.6c0.7-4.5,4.3-8,6.6-11.9c1-3.6,4-6.8,5.2-10.4c0.2-0.8,1.4-1.7,1.6-2.7c2.7-3.7,3.7-7.9,5.8-11.8
			c2-4.4,2.6-9.2,5.2-13.4c1.1-0.4,1-2.6,2.2-2.5l3.4-6.5c4.5-9.4,5.3-19.7,6.6-29.8V0.1C116.4-0.5,116.2,0.9,115.5,0.3z
			 M29.7,132.8l-0.2-0.1l0.7-0.8C30.1,132.3,29.9,132.6,29.7,132.8z M5,193.3l0.2,0.1c-0.6,1.7-1.4,3.3-2.1,5l0-0.1
			C3.4,196.5,4.1,194.9,5,193.3z M3,200.4c0.5-1.9,2.4-2.9,2.8-4.8c0.4-0.5,0.2-2,1-1.6C6.3,196.5,4.7,198.4,3,200.4L3,200.4z
			 M9.6,184l-2.9,6.5l8.2-21.8l0.4-0.3C14,173.7,11.4,178.8,9.6,184z M29.7,142.7l-0.2-0.7c0.3,0.1,0.2,0.4,0.3,0.6L29.7,142.7z
			 M27.9,139c-4.2,9.4-7.6,19-11.7,28.4h-0.1c3.5-9.9,7.6-19.8,12-29.5c0.3-1,0.9-2.4,2.3-2.5l0,0.3C29,136.2,28.6,137.8,27.9,139z
			 M76.8,50.6l0.3-1.2c8.1-12.9,16.7-24.1,25.8-36.4c2.9-3.9,7.4-5.9,10.6-9.8L97.1,23.7l-19.9,27l-10.8,16
			C69.5,61.3,73.1,56,76.8,50.6z M77.3,52.2L77,52.6l-0.1,0L77.3,52.2L77.3,52.2z M66.2,66.9l-5.6,8.8C62.1,72.6,64,69.6,66.2,66.9z
			 M59.3,77.5l-0.2,0.7l-2.4,3.7L59.3,77.5z M32.7,135.7l-1,0.4C31.6,135.6,32.3,135.7,32.7,135.7z M32.4,135.1c0-1,0.7,0.2,1.1-0.3
			C33.5,135.1,32.8,135.2,32.4,135.1z M32.8,136.6c0.2-0.1,0.4-0.1,0.5-0.1L32.8,136.6c-0.4,0.2-0.5,0.7-1.1,0.7l-0.3-0.5
			L32.8,136.6z M34.1,138.1c-0.1,0.4-0.6,0.6-0.8,0.2c-0.1-0.1-0.3-0.1-0.3-0.4C33.3,137.9,33.7,137.9,34.1,138.1z M33.3,135.8
			l0.8-0.4l0.5,0.4H33.3z M33.1,134.2c0.2-0.4,0.6-0.9,1-0.7C33.8,133.8,33.5,134,33.1,134.2z M33,130.2c0.1,0.9-0.9,1.5-1.2,2.4
			l-0.5,0.1L33,130.2z M31.4,133.6c0.3,0.1,0.7,0,0.8-0.4c0.7,0.9-1.8,1.1-0.6,1.4l-0.7,0.7c0.1-0.2,0-0.5-0.2-0.6
			C30.9,134.3,31.1,134,31.4,133.6L31.4,133.6z M41.9,142.2c0.7,0.3,1.7,0.6,2.1,1.4c-0.6,0.6-1.2-0.8-1.7,0.1
			c-0.7,0.1-0.9-1-1.7-0.6c-0.1,0.2,0,0.5-0.3,0.7c-1.2-0.6-1.3,0.6-2.5,0c-0.4,0-0.6,0.2-1,0c0.6-0.2-0.1-0.9-0.4-0.9
			c-0.6,0.4,0.2,0.7-0.8,0.8c-0.6-0.1-1,0.1-1,0.7l-0.1,0.2l-0.5-0.3c0.2-0.1,0.3-0.2,0.4-0.4c-0.2-0.6-0.9-0.4-1.3-0.4
			c-0.2,0.1-0.1,0.3-0.1,0.5l0.4,0.2c-0.3-0.2-0.7-0.2-1.1,0c-0.1,0.4,0.4,0.6,0.6,0.6h0.2c0,0.8-0.4-0.1-0.7,0.1
			c-0.4,0-0.8,0.2-1,0.5c-0.7-0.2-1-0.9-0.9-1.6v-0.2c0.6-0.3,2.1,1.1,2-0.1l-0.6-0.3c0.1-0.2,0.2-0.4,0.1-0.6l0,0
			c-0.1,0-0.2-0.1-0.3-0.1c0.1,0,0.2,0.1,0.3,0.1l0,0l0,0c0.4,0.3,0.7,0.9,1.3,0.7c0.4-1.1-1.9-1.3-1.5-2.2l0,0
			c0.1-0.1,0.1-0.3,0.3-0.4c0.3,0,0.5,0.1,0.8,0.3c-0.3,0-0.7-0.2-1,0.1l0,0c-0.1,0.4,0.4,0.5,0.7,0.5c0.7-0.3,1.5-0.2,2.2,0.2
			c-0.2,0.3-0.9,0.1-0.7,0.6c0.7,0.2,1.4,0,1.9-0.5l-0.2-0.6l1-0.5c-0.5-0.9-2.1-0.4-2.6-1.7C37,138.5,39.6,140.6,41.9,142.2
			L41.9,142.2z M34.4,140.8c-0.1-0.2,0.4-0.3,0.5-0.1C34.9,141.1,34.6,140.8,34.4,140.8L34.4,140.8z M33.4,129.5l-0.2-0.1l2.7-6.2
			l10.5-19.9c6.7-12.4,13.6-25.1,21.6-36.8c2.3-3.9,5-8.1,7.4-11.7L63.3,74.2L52,93.9C45.5,105.5,39.1,117.5,33.4,129.5L33.4,129.5z
			 M48.3,138.5c-0.6-0.3-1.2-0.5-1.9-0.4l2.2-0.3L48.3,138.5z M113,24.1c-1.7,4.7-3.3,9.5-6.2,14l-11.2,2.5v0.4
			c3.3-0.7,6.7-1.1,10-2.1c-0.5,2.7-4,1.7-6,2.7l-6.4,2.1c0,0.1-0.3,0.2-0.2,0.5l0.2,0.1c3.5-1,7.1-2.8,10.9-3
			c-1.5,2.5-2.2,5.2-3.3,7.9c-0.2,1.6-1.2,2.8-1.4,4.4L99,54.1c-6.1,1.7-12.8,2-18.1,4.7l0.1,0.3c5.1-2.2,10.9-2.8,16.5-4.1
			c0.4,0.2,1-0.2,1.3,0.2c-2.3,3.8-2.8,8.3-5.8,11.7c-1,1.6-1.9,3.3-2.6,5C85,74.1,78.6,73,73,74.7c-0.3,0.4-1.2,0.2-1,0.8l0.2,0.1
			c5.3-2.4,11.4-1,16.9-2.9l0.6,0.1l-2.8,5c-6.3,3-13.2,0.8-19.6,3.5v0.2c3.7-0.7,7.9-1.5,11.6-1c2.4-0.4,4.8-0.5,7.3-0.9
			c-1.7,2.4-2.8,6.1-6.4,5.8c-0.7,0.2-1.8,0.1-2.2,0.6c1.6,0.1,3.2-0.1,4.7-0.6c-1.6,2.3-1.3,5.5-3.4,7.6c-3.6,1.6-7.9,1.4-11.6,2.3
			l0.1,0.4c1.5-0.2,3.1-0.4,4.6-0.4c2.2-0.3,4,1,6.1,1c-3.5,5.3-7.4,10.6-11,15.7c-4.3,1.6-8.3-0.2-12.4,0.7l0,0.3
			c4.1-0.5,7.9,1,11.9-0.2c-0.3,1.7-2,2.8-2.8,4.3c-2,2.3-4.3,4.6-5.2,7.6c-0.8,0.1-1.6,0.3-2.3,0.7c-2.2,0.3-4,0-6.1,0.3
			c0.6,1,2-0.2,3,0.3c1.6-0.2,3.4,0.1,5-0.5c-0.6,1.9-2.5,3.2-3.7,4.8c-1.7,0.9-1.4,3.1-3.1,3.8c-1.5,0.7-3.2,1-4.9,0.8
			c-0.2,0.1,0,0.3,0,0.4c1.6,0.2,3.2,0,4.7-0.4c-0.4,1.4-2,2.3-3.5,2.5c-1.7-0.6-1.2,1.2-2.9,0.4c-0.8-0.4-2-0.1-2.9-0.5
			c0.3-0.5,1.6-0.6,2.3-0.6c0.6,0.2,1.2,0.1,1.7-0.3v-0.2c-2.4,0.1-4.8,0.1-7.2-0.1c0.7-0.6,2-0.3,2.7-0.9c0.3,0,0.6,0.2,0.9,0.1
			c-0.1-0.4-0.1-0.4,0.1-0.9c-0.8-0.6-2.2-0.4-3.2-0.6l0.6-0.5c1.7-0.2,3.4-0.3,5.1-0.2l0.2-0.3c-0.5-0.6-1.4-0.1-2.1-0.4
			c0.1,0,0.3-0.1,0.3-0.2c0-0.9-0.9-0.1-1.3-0.3c0.6-0.3,1.8-0.1,1.9-1c-1.2,0.1-2.4,0.1-3.5-0.2c3.4-1.1,7-1.6,10.6-1.7l-0.6-0.4
			l-8.7,0.7c0-0.5-0.5-0.4-0.8-0.7c0.5-0.5,1.6-0.5,1.7-1.4l-0.3-0.8l3.1-0.8l-0.1-0.3h-2.3c0.3-0.7,0.1-1.9,1-2.3
			c0.1-0.5-0.4-0.2-0.5-0.5c3.9-10.7,9.8-21.2,14.3-31.8c3.4-5,4.7-10.6,7.6-15.7l-0.1-0.6l10.4-16.8l13-19.2l11-15.3l14.3-18.6
			l2.4-2.7C115.7,9.1,115.4,16.9,113,24.1z"/>
		<path d="M31.8,200.4l-22.2,4.3c-3.4,0.7-5.3,1.2-8.1,2c2.9-0.3,4.9-0.6,8.3-1.2l22.2-4.3l22.2-4.3c3.4-0.7,5.3-1.2,8.1-2
			c-2.8,0.3-5.5,0.7-8.3,1.2C50.3,196.9,31.8,200.4,31.8,200.4z"/>
	</g>
</g>
</svg>
